<?xml version="1.0" encoding="UTF-8"?>
<!DOCTYPE svg PUBLIC "-//W3C//DTD SVG 1.1//EN" "http://www.w3.org/Graphics/SVG/1.1/DTD/svg11.dtd">
<svg version="1.2" width="1140mm" height="1140mm" viewBox="0 0 114000 114000" preserveAspectRatio="xMidYMid" fill-rule="evenodd" stroke-width="28.222" stroke-linejoin="round" xmlns="http://www.w3.org/2000/svg" xmlns:ooo="http://xml.openoffice.org/svg/export" xmlns:xlink="http://www.w3.org/1999/xlink" xmlns:presentation="http://sun.com/xmlns/staroffice/presentation" xmlns:smil="http://www.w3.org/2001/SMIL20/" xmlns:anim="urn:oasis:names:tc:opendocument:xmlns:animation:1.0" xml:space="preserve">
 <defs class="ClipPathGroup">
  <clipPath id="presentation_clip_path" clipPathUnits="userSpaceOnUse">
   <rect x="0" y="0" width="114000" height="114000"/>
  </clipPath>
  <clipPath id="presentation_clip_path_shrink" clipPathUnits="userSpaceOnUse">
   <rect x="114" y="114" width="113772" height="113772"/>
  </clipPath>
 </defs>
 <defs class="TextShapeIndex">
  <g ooo:slide="id1" ooo:id-list="id3 id4 id5 id6 id7 id8 id9 id10 id11 id12 id13 id14 id15 id16 id17 id18 id19 id20 id21"/>
 </defs>
 <defs class="EmbeddedBulletChars">
  <g id="bullet-char-template-57356" transform="scale(0.00048828125,-0.00048828125)">
   <path d="M 580,1141 L 1163,571 580,0 -4,571 580,1141 Z"/>
  </g>
  <g id="bullet-char-template-57354" transform="scale(0.00048828125,-0.00048828125)">
   <path d="M 8,1128 L 1137,1128 1137,0 8,0 8,1128 Z"/>
  </g>
  <g id="bullet-char-template-10146" transform="scale(0.00048828125,-0.00048828125)">
   <path d="M 174,0 L 602,739 174,1481 1456,739 174,0 Z M 1358,739 L 309,1346 659,739 1358,739 Z"/>
  </g>
  <g id="bullet-char-template-10132" transform="scale(0.00048828125,-0.00048828125)">
   <path d="M 2015,739 L 1276,0 717,0 1260,543 174,543 174,936 1260,936 717,1481 1274,1481 2015,739 Z"/>
  </g>
  <g id="bullet-char-template-10007" transform="scale(0.00048828125,-0.00048828125)">
   <path d="M 0,-2 C -7,14 -16,27 -25,37 L 356,567 C 262,823 215,952 215,954 215,979 228,992 255,992 264,992 276,990 289,987 310,991 331,999 354,1012 L 381,999 492,748 772,1049 836,1024 860,1049 C 881,1039 901,1025 922,1006 886,937 835,863 770,784 769,783 710,716 594,584 L 774,223 C 774,196 753,168 711,139 L 727,119 C 717,90 699,76 672,76 641,76 570,178 457,381 L 164,-76 C 142,-110 111,-127 72,-127 30,-127 9,-110 8,-76 1,-67 -2,-52 -2,-32 -2,-23 -1,-13 0,-2 Z"/>
  </g>
  <g id="bullet-char-template-10004" transform="scale(0.00048828125,-0.00048828125)">
   <path d="M 285,-33 C 182,-33 111,30 74,156 52,228 41,333 41,471 41,549 55,616 82,672 116,743 169,778 240,778 293,778 328,747 346,684 L 369,508 C 377,444 397,411 428,410 L 1163,1116 C 1174,1127 1196,1133 1229,1133 1271,1133 1292,1118 1292,1087 L 1292,965 C 1292,929 1282,901 1262,881 L 442,47 C 390,-6 338,-33 285,-33 Z"/>
  </g>
  <g id="bullet-char-template-9679" transform="scale(0.00048828125,-0.00048828125)">
   <path d="M 813,0 C 632,0 489,54 383,161 276,268 223,411 223,592 223,773 276,916 383,1023 489,1130 632,1184 813,1184 992,1184 1136,1130 1245,1023 1353,916 1407,772 1407,592 1407,412 1353,268 1245,161 1136,54 992,0 813,0 Z"/>
  </g>
  <g id="bullet-char-template-8226" transform="scale(0.00048828125,-0.00048828125)">
   <path d="M 346,457 C 273,457 209,483 155,535 101,586 74,649 74,723 74,796 101,859 155,911 209,963 273,989 346,989 419,989 480,963 531,910 582,859 608,796 608,723 608,648 583,586 532,535 482,483 420,457 346,457 Z"/>
  </g>
  <g id="bullet-char-template-8211" transform="scale(0.00048828125,-0.00048828125)">
   <path d="M -4,459 L 1135,459 1135,606 -4,606 -4,459 Z"/>
  </g>
  <g id="bullet-char-template-61548" transform="scale(0.00048828125,-0.00048828125)">
   <path d="M 173,740 C 173,903 231,1043 346,1159 462,1274 601,1332 765,1332 928,1332 1067,1274 1183,1159 1299,1043 1357,903 1357,740 1357,577 1299,437 1183,322 1067,206 928,148 765,148 601,148 462,206 346,322 231,437 173,577 173,740 Z"/>
  </g>
 </defs>
 <defs class="TextEmbeddedBitmaps"/>
 <g>
  <g id="id2" class="Master_Slide">
   <g id="bg-id2" class="Background"/>
   <g id="bo-id2" class="BackgroundObjects"/>
  </g>
 </g>
 <g class="SlideGroup">
  <g>
   <g id="container-id1">
    <g id="id1" class="Slide" clip-path="url(#presentation_clip_path)">
     <g class="Page">
      <g class="com.sun.star.drawing.PolyPolygonShape">
       <g id="id3">
        <rect class="BoundingBox" stroke="none" fill="none" x="95" y="70" width="113811" height="113862"/>
        <path fill="rgb(132,117,111)" stroke="none" d="M 106,80 L 106,113921 113895,113921 113895,80 106,80 Z"/>
        <path fill="none" stroke="rgb(27,25,24)" stroke-width="20" stroke-linejoin="miter" d="M 106,80 L 106,113921 113895,113921 113895,80 106,80 Z"/>
       </g>
      </g>
      <g class="Group">
       <g class="com.sun.star.drawing.ClosedBezierShape">
        <g id="id4">
         <rect class="BoundingBox" stroke="none" fill="none" x="23343" y="82355" width="67558" height="8610"/>
         <path fill="rgb(255,255,255)" stroke="none" d="M 27438,83777 C 27331,83837 27254,83904 27205,83981 27158,84055 27125,84180 27103,84353 27084,84525 27074,84784 27074,85129 L 27074,88261 C 27074,88721 27115,89017 27199,89151 27282,89284 27403,89407 27564,89521 27723,89635 27803,89791 27803,89988 27803,90342 27556,90576 27064,90689 26570,90801 26056,90858 25519,90858 25010,90858 24520,90803 24049,90691 23579,90579 23344,90354 23344,90011 23344,89801 23469,89637 23720,89517 23867,89447 23967,89388 24022,89341 24077,89294 24126,89194 24171,89041 24214,88888 24245,88649 24267,88325 24286,88002 24296,87526 24296,86896 24296,86070 24290,85464 24281,85080 24271,84696 24251,84424 24222,84267 24192,84108 24155,84010 24110,83969 24063,83930 23965,83869 23814,83788 23685,83720 23589,83655 23524,83596 23459,83539 23426,83457 23426,83355 23426,82965 23716,82700 24294,82561 24871,82424 25457,82356 26049,82356 26113,82356 26443,82369 27037,82395 27629,82422 28107,82436 28471,82436 28767,82436 29146,82422 29606,82395 30065,82369 30463,82356 30800,82356 32212,82356 32917,82634 32917,83189 32917,83436 32796,83620 32555,83741 32406,83808 32302,83875 32247,83941 32190,84010 32147,84175 32117,84433 32088,84694 32072,85125 32072,85729 L 32072,88788 C 32072,88976 32096,89119 32141,89219 32188,89317 32286,89409 32437,89494 32582,89572 32686,89641 32747,89699 32805,89758 32837,89854 32837,89988 32837,90225 32698,90431 32419,90601 32143,90772 31500,90858 30496,90858 29146,90858 28471,90591 28471,90060 28471,89878 28515,89750 28605,89676 28693,89603 28793,89521 28905,89433 29014,89343 29109,89176 29183,88929 29257,88682 29295,88294 29295,87767 L 29295,85225 C 29295,84657 29263,84286 29201,84118 29136,83949 29052,83835 28942,83777 28901,83747 28652,83732 28189,83732 27740,83732 27489,83747 27438,83777 Z M 27438,83777 L 27438,83777 Z M 34340,84271 C 34340,84073 34293,83933 34201,83849 34109,83767 33968,83696 33782,83637 33595,83579 33460,83518 33374,83455 33290,83392 33246,83281 33246,83120 33246,82908 33335,82761 33511,82679 33690,82595 33895,82553 34131,82553 34229,82553 34374,82557 34564,82563 34756,82571 34901,82575 35001,82575 35493,82575 35963,82561 36410,82536 36859,82510 37265,82481 37628,82450 37992,82416 38194,82401 38233,82401 38649,82401 39043,82455 39413,82563 39786,82671 40121,82834 40418,83053 40716,83273 40951,83547 41122,83877 41292,84206 41376,84584 41376,85010 41376,85435 41294,85817 41128,86154 40963,86492 40734,86777 40441,87008 40148,87239 39815,87412 39439,87529 39062,87645 38668,87704 38257,87704 38137,87704 37961,87694 37731,87674 37502,87657 37335,87647 37236,87647 37108,87647 37045,87708 37045,87833 L 37045,88517 C 37055,88939 37112,89209 37216,89329 37320,89450 37467,89558 37657,89654 37847,89750 37941,89886 37941,90060 37941,90385 37700,90599 37220,90703 36740,90807 36240,90858 35718,90858 34227,90858 33482,90599 33482,90084 33482,89940 33515,89841 33582,89784 33648,89727 33754,89664 33897,89597 34042,89531 34152,89447 34227,89345 34303,89243 34340,89086 34340,88870 L 34340,84271 Z M 34340,84271 L 34340,84271 Z M 37492,83708 C 37288,83708 37163,83735 37116,83790 37069,83845 37045,83943 37045,84084 L 37045,85847 C 37045,85980 37057,86082 37083,86154 37108,86225 37159,86278 37236,86311 37312,86344 37426,86362 37577,86362 37941,86362 38214,86241 38392,85999 38570,85756 38659,85445 38659,85059 38659,84812 38615,84582 38527,84376 38441,84171 38310,84006 38135,83886 37959,83767 37745,83708 37492,83708 Z M 37492,83708 L 37492,83708 Z M 50080,88282 C 50080,88723 50133,89019 50241,89176 50348,89331 50495,89468 50682,89590 50868,89709 50962,89846 50962,89999 50962,90572 50217,90858 48727,90858 48120,90858 47657,90826 47337,90764 47018,90703 46802,90619 46693,90515 46583,90411 46526,90278 46526,90117 46526,89990 46553,89893 46604,89829 46655,89764 46736,89701 46843,89637 46949,89572 47034,89509 47096,89448 47157,89388 47198,89296 47220,89176 47275,88876 47302,88496 47302,88035 47302,87798 47290,87624 47269,87514 47247,87402 47212,87333 47165,87304 47118,87275 47047,87261 46949,87261 46659,87261 46446,87355 46306,87543 46165,87729 46055,87992 45973,88329 45859,88821 45758,89207 45667,89492 45575,89774 45448,90029 45281,90254 45117,90480 44889,90656 44601,90779 44311,90903 43942,90964 43492,90964 42874,90964 42408,90874 42094,90693 41780,90511 41621,90295 41621,90044 41621,89890 41653,89790 41712,89743 41770,89695 41870,89652 42014,89611 42155,89572 42268,89503 42353,89405 42439,89307 42496,89137 42527,88894 42609,88263 42751,87790 42954,87477 43156,87165 43464,86932 43880,86779 43991,86730 44068,86690 44111,86656 44154,86625 44176,86570 44176,86493 44176,86407 44113,86329 43985,86260 43668,86103 43423,85870 43248,85560 43074,85253 42986,84916 42986,84555 42986,84065 43127,83657 43405,83334 43686,83010 44044,82773 44483,82624 44924,82475 45381,82401 45856,82401 46142,82401 46532,82414 47026,82442 47518,82469 47890,82483 48139,82483 48300,82483 48535,82469 48847,82442 49157,82414 49403,82401 49586,82401 49939,82401 50258,82452 50544,82553 50831,82653 50974,82848 50974,83130 50974,83285 50923,83394 50823,83455 50725,83518 50615,83583 50499,83651 50382,83720 50284,83847 50201,84037 50121,84227 50080,84523 50080,84931 L 50080,88282 Z M 50080,88282 L 50080,88282 Z M 47302,84331 C 47286,84092 47257,83926 47214,83834 47169,83741 47049,83696 46855,83696 46306,83696 46034,84084 46034,84859 46034,85241 46110,85527 46263,85721 46416,85915 46677,86013 47043,86013 47169,86013 47251,85988 47290,85935 47332,85884 47355,85807 47363,85705 47363,85598 47357,85511 47347,85447 L 47302,84331 Z M 47302,84331 L 47302,84331 Z M 60030,88788 C 60030,88976 60053,89119 60098,89219 60145,89317 60243,89409 60394,89494 60539,89572 60643,89641 60704,89699 60763,89758 60794,89854 60794,89988 60794,90225 60655,90431 60377,90601 60100,90772 59457,90858 58454,90858 57103,90858 56429,90591 56429,90060 56429,89878 56472,89750 56562,89676 56650,89603 56750,89521 56862,89433 56972,89343 57066,89174 57140,88927 57215,88680 57252,88294 57252,87765 57252,87561 57233,87416 57193,87333 57154,87249 57089,87198 56999,87181 56909,87163 56750,87153 56523,87153 56019,87153 55672,87165 55486,87188 55300,87214 55176,87269 55119,87357 55061,87445 55031,87604 55031,87833 L 55031,88259 C 55031,88719 55072,89017 55157,89151 55239,89284 55361,89407 55521,89521 55680,89635 55760,89790 55760,89988 55760,90342 55513,90576 55021,90689 54527,90801 54014,90858 53477,90858 52967,90858 52477,90803 52007,90691 51536,90579 51301,90354 51301,90011 51301,89801 51426,89639 51677,89517 51824,89447 51924,89388 51979,89341 52034,89294 52083,89194 52128,89041 52171,88888 52203,88649 52224,88325 52244,88002 52254,87526 52254,86896 52254,86070 52248,85464 52238,85080 52228,84696 52209,84424 52179,84267 52150,84108 52113,84010 52067,83969 52020,83930 51922,83869 51771,83788 51642,83720 51546,83655 51481,83596 51417,83539 51383,83457 51383,83355 51383,82965 51673,82700 52252,82561 52830,82424 53414,82356 54006,82356 54443,82356 54861,82406 55264,82508 55666,82608 55866,82812 55866,83120 55866,83285 55831,83408 55758,83492 55688,83577 55566,83671 55396,83777 55288,83835 55212,83904 55163,83979 55116,84055 55082,84178 55061,84353 55041,84525 55031,84784 55031,85129 55031,85376 55074,85533 55159,85602 55245,85670 55388,85705 55594,85705 L 55902,85705 56499,85705 C 56739,85705 56913,85692 57021,85662 57129,85633 57195,85590 57217,85529 57240,85468 57252,85366 57252,85223 57252,84655 57221,84286 57158,84116 57093,83947 57009,83834 56899,83777 56741,83683 56627,83602 56562,83538 56495,83471 56462,83371 56462,83238 56462,83096 56505,82965 56592,82840 56678,82716 56890,82604 57227,82504 57564,82405 58073,82356 58758,82356 60169,82356 60875,82634 60875,83189 60875,83436 60753,83620 60512,83741 60363,83808 60259,83875 60204,83941 60147,84010 60104,84175 60075,84433 60045,84694 60030,85125 60030,85729 L 60030,88788 Z M 60030,88788 L 60030,88788 Z M 69933,88788 C 69933,88976 69956,89119 70001,89219 70048,89317 70146,89409 70297,89494 70442,89572 70546,89641 70607,89699 70666,89758 70697,89854 70697,89988 70697,90225 70558,90431 70280,90601 70003,90772 69360,90858 68357,90858 67006,90858 66332,90591 66332,90060 66332,89844 66420,89678 66600,89556 66779,89437 66916,89300 67012,89143 67108,88988 67155,88647 67155,88117 67155,87988 67159,87827 67167,87635 67175,87445 67179,87324 67179,87271 67179,87020 67116,86894 66992,86894 66945,86894 66887,86906 66814,86930 66671,86983 66444,87139 66136,87400 65826,87661 65550,87931 65303,88214 65058,88494 64934,88698 64934,88821 64934,89025 64954,89168 64995,89254 65036,89339 65099,89409 65181,89466 65264,89523 65324,89584 65365,89648 65407,89711 65428,89825 65428,89988 65428,90568 64746,90858 63380,90858 62870,90858 62380,90803 61910,90691 61439,90579 61204,90354 61204,90011 61204,89801 61329,89639 61580,89517 61727,89447 61827,89388 61882,89341 61937,89294 61986,89194 62031,89041 62074,88888 62106,88649 62127,88325 62147,88002 62157,87526 62157,86896 62157,86070 62151,85464 62141,85080 62131,84696 62112,84424 62082,84267 62053,84108 62015,84010 61970,83969 61923,83930 61825,83869 61674,83788 61545,83720 61449,83655 61384,83596 61320,83539 61286,83457 61286,83355 61286,82965 61576,82700 62155,82561 62733,82424 63317,82356 63909,82356 64346,82356 64764,82406 65167,82508 65569,82608 65769,82812 65769,83120 65769,83285 65734,83408 65661,83492 65591,83577 65469,83671 65299,83777 65181,83841 65101,83898 65058,83945 65015,83994 64981,84079 64964,84198 64944,84320 64934,84512 64934,84776 64934,84959 64930,85166 64922,85398 64915,85629 64911,85772 64911,85823 64911,85972 64930,86072 64969,86123 65007,86174 65093,86199 65226,86199 65344,86178 65534,86054 65801,85827 66067,85602 66328,85353 66585,85082 66840,84814 66998,84627 67061,84529 67132,84412 67167,84306 67167,84214 67167,84126 67139,84035 67083,83943 67045,83877 66977,83806 66879,83732 66783,83659 66710,83590 66667,83532 66624,83471 66600,83373 66600,83238 66600,83063 66640,82916 66714,82795 66791,82675 66979,82571 67281,82485 67582,82399 68041,82356 68661,82356 70072,82356 70778,82634 70778,83189 70778,83436 70656,83620 70415,83741 70266,83808 70162,83875 70107,83941 70050,84010 70007,84175 69978,84433 69948,84694 69933,85125 69933,85729 L 69933,88788 Z M 69933,88788 L 69933,88788 Z M 76361,89141 C 75748,88412 75360,88047 75199,88047 74964,88047 74846,88263 74846,88694 L 74846,88941 C 74846,89066 74877,89170 74938,89252 75001,89335 75093,89425 75213,89525 75334,89623 75426,89717 75491,89803 75554,89891 75587,90001 75587,90129 75587,90276 75530,90401 75416,90507 75305,90611 75073,90695 74726,90760 74379,90825 73884,90858 73245,90858 72397,90858 71836,90797 71562,90676 71289,90554 71152,90376 71152,90140 71152,90003 71176,89907 71225,89848 71272,89790 71350,89723 71460,89645 71568,89568 71658,89474 71728,89364 71799,89252 71850,89090 71881,88870 71960,88382 71999,87688 71999,86790 71999,86284 71993,85853 71979,85496 71965,85141 71932,84806 71881,84494 71848,84269 71795,84104 71719,84000 71644,83894 71546,83806 71426,83732 71307,83657 71223,83588 71176,83528 71127,83465 71103,83357 71103,83202 71103,82975 71258,82777 71566,82608 71873,82440 72544,82356 73575,82356 74056,82356 74474,82403 74824,82495 75175,82587 75352,82806 75352,83153 75352,83312 75281,83455 75142,83583 75005,83710 74897,83843 74821,83981 74742,84120 74705,84388 74705,84786 74705,85115 74779,85280 74928,85280 75026,85280 75175,85178 75373,84974 75573,84770 75756,84545 75924,84298 76091,84051 76175,83884 76175,83798 76175,83712 76144,83608 76081,83485 76016,83363 75985,83259 75985,83175 75985,82830 76185,82606 76585,82506 76987,82406 77490,82356 78102,82356 L 78349,82356 C 79470,82356 80031,82614 80031,83130 80031,83412 79952,83581 79794,83639 79637,83698 79390,83735 79055,83749 78717,83765 78500,83826 78398,83932 78263,84047 78102,84188 77912,84351 77724,84514 77551,84688 77396,84872 77239,85059 77163,85225 77163,85374 77163,85508 77198,85627 77269,85733 77339,85837 77461,85992 77633,86198 L 80092,89011 C 80172,89102 80319,89200 80533,89307 80746,89417 80903,89519 81007,89615 81109,89711 81160,89868 81160,90082 81160,90513 80807,90728 80103,90728 L 78102,90728 C 77939,90728 77822,90717 77749,90695 77677,90674 77604,90627 77532,90552 77461,90478 77337,90333 77163,90117 L 76361,89141 Z M 76361,89141 L 76361,89141 Z M 90055,88788 C 90055,88976 90079,89119 90124,89219 90171,89317 90269,89409 90420,89494 90565,89572 90669,89641 90730,89699 90788,89758 90820,89854 90820,89988 90820,90225 90681,90431 90402,90601 90126,90772 89483,90858 88479,90858 87129,90858 86454,90591 86454,90060 86454,89844 86543,89678 86723,89556 86901,89437 87038,89300 87135,89143 87231,88988 87278,88647 87278,88117 87278,87988 87282,87827 87289,87635 87297,87445 87301,87324 87301,87271 87301,87020 87238,86894 87115,86894 87068,86894 87009,86906 86937,86930 86793,86983 86566,87139 86258,87400 85949,87661 85672,87931 85425,88214 85180,88494 85057,88698 85057,88821 85057,89025 85076,89168 85118,89254 85159,89339 85221,89409 85304,89466 85386,89523 85447,89584 85488,89648 85529,89711 85551,89825 85551,89988 85551,90568 84869,90858 83502,90858 82993,90858 82503,90803 82032,90691 81562,90579 81326,90354 81326,90011 81326,89801 81452,89639 81703,89517 81850,89447 81950,89388 82005,89341 82060,89294 82109,89194 82154,89041 82197,88888 82228,88649 82250,88325 82269,88002 82279,87526 82279,86896 82279,86070 82273,85464 82263,85080 82254,84696 82234,84424 82205,84267 82175,84108 82138,84010 82093,83969 82046,83930 81948,83869 81797,83788 81668,83720 81571,83655 81507,83596 81442,83539 81409,83457 81409,83355 81409,82965 81699,82700 82277,82561 82855,82424 83440,82356 84032,82356 84469,82356 84886,82406 85290,82508 85692,82608 85892,82812 85892,83120 85892,83285 85857,83408 85784,83492 85713,83577 85592,83671 85421,83777 85304,83841 85223,83898 85180,83945 85137,83994 85104,84079 85086,84198 85067,84320 85057,84512 85057,84776 85057,84959 85053,85166 85045,85398 85037,85629 85033,85772 85033,85823 85033,85972 85053,86072 85092,86123 85129,86174 85216,86199 85349,86199 85466,86178 85657,86054 85923,85827 86190,85602 86450,85353 86707,85082 86962,84814 87121,84627 87184,84529 87254,84412 87289,84306 87289,84214 87289,84126 87262,84035 87205,83943 87168,83877 87099,83806 87001,83732 86905,83659 86833,83590 86790,83532 86746,83471 86723,83373 86723,83238 86723,83063 86762,82916 86837,82795 86913,82675 87101,82571 87403,82485 87705,82399 88164,82356 88783,82356 90194,82356 90900,82634 90900,83189 90900,83436 90779,83620 90537,83741 90388,83808 90285,83875 90230,83941 90173,84010 90130,84175 90100,84433 90071,84694 90055,85125 90055,85729 L 90055,88788 Z"/>
        </g>
       </g>
       <g class="com.sun.star.drawing.ClosedBezierShape">
        <g id="id5">
         <rect class="BoundingBox" stroke="none" fill="none" x="17804" y="83932" width="78352" height="4600"/>
         <path fill="rgb(255,255,255)" stroke="none" d="M 96155,83932 C 95082,85494 93918,86988 92671,88409 L 92671,83932 96155,83932 Z M 96155,83932 L 96155,83932 Z M 21396,88531 C 20108,87074 18908,85539 17804,83932 L 21396,83932 21396,88531 Z"/>
        </g>
       </g>
       <g class="com.sun.star.drawing.ClosedBezierShape">
        <g id="id6">
         <rect class="BoundingBox" stroke="none" fill="none" x="26414" y="93590" width="61143" height="1934"/>
         <path fill="rgb(255,255,255)" stroke="none" d="M 87556,93590 C 86760,94260 85943,94905 85104,95523 L 28866,95523 C 28027,94905 27209,94260 26414,93590 L 87556,93590 Z"/>
        </g>
       </g>
       <g class="com.sun.star.drawing.ClosedBezierShape">
        <g id="id7">
         <rect class="BoundingBox" stroke="none" fill="none" x="18920" y="68206" width="5791" height="5790"/>
         <path fill="rgb(255,255,255)" stroke="none" d="M 21816,68206 L 21815,68206 C 22348,68206 22801,68327 23263,68594 23724,68860 24056,69192 24322,69653 24589,70115 24710,70568 24710,71100 L 24710,71101 24710,71101 C 24710,71633 24589,72086 24322,72548 24056,73009 23724,73341 23263,73607 22801,73874 22348,73995 21816,73995 21283,73995 20830,73874 20368,73607 19907,73341 19575,73009 19309,72548 19042,72086 18921,71633 18921,71101 18921,70568 19042,70115 19309,69653 19575,69192 19907,68860 20368,68594 20830,68327 21283,68206 21815,68206 L 21816,68206 Z"/>
        </g>
       </g>
       <g class="com.sun.star.drawing.ClosedBezierShape">
        <g id="id8">
         <rect class="BoundingBox" stroke="none" fill="none" x="88878" y="68277" width="5790" height="5790"/>
         <path fill="rgb(255,255,255)" stroke="none" d="M 91773,68277 L 91772,68277 C 92305,68277 92758,68398 93220,68665 93681,68931 94013,69263 94279,69724 94546,70186 94667,70639 94667,71171 L 94667,71172 94667,71172 C 94667,71704 94546,72157 94279,72619 94013,73080 93681,73412 93220,73678 92758,73945 92305,74066 91773,74066 91240,74066 90787,73945 90325,73678 89864,73412 89532,73080 89266,72619 88999,72157 88878,71704 88878,71172 88878,70639 88999,70186 89266,69724 89532,69263 89864,68931 90325,68665 90787,68398 91240,68277 91772,68277 L 91773,68277 Z"/>
        </g>
       </g>
       <g class="Group">
        <g class="com.sun.star.drawing.ClosedBezierShape">
         <g id="id9">
          <rect class="BoundingBox" stroke="none" fill="none" x="15609" y="15540" width="82630" height="48680"/>
          <path fill="rgb(255,255,255)" stroke="none" d="M 25346,56503 C 25322,57182 25310,57713 25313,58099 25313,58485 25316,59095 25323,59932 25327,60769 25323,61388 25309,61794 25289,62372 25207,62923 25063,63449 24919,63976 24650,64231 24256,64218 24007,64209 23823,64070 23705,63797 23630,63626 23567,63509 23515,63445 23464,63380 23351,63320 23179,63262 23006,63207 22733,63162 22365,63124 21996,63089 21452,63059 20733,63033 19789,63001 19097,62983 18657,62979 18218,62975 17906,62986 17725,63014 17543,63041 17429,63080 17380,63129 17334,63182 17260,63291 17162,63461 17079,63606 17001,63713 16931,63785 16864,63856 16768,63891 16652,63887 16206,63871 15915,63529 15779,62863 15645,62196 15591,61526 15614,60849 15631,60368 15705,59917 15834,59498 15963,59081 16203,58876 16557,58888 16743,58895 16885,58940 16978,59026 17072,59113 17175,59253 17289,59452 17354,59578 17436,59657 17534,59694 17634,59731 17830,59754 18126,59764 L 18825,59788 22400,59913 C 22781,59927 23076,59903 23287,59846 23500,59788 23649,59688 23739,59547 23827,59405 23877,59204 23886,58945 23897,58615 23867,58388 23793,58257 23719,58129 23554,58040 23297,57995 23041,57950 22578,57916 21906,57893 L 19002,57791 C 18326,57768 17895,57773 17705,57805 17518,57838 17395,57904 17339,58003 17226,58180 17132,58305 17053,58376 16976,58450 16861,58482 16706,58476 16569,58471 16447,58445 16341,58394 16233,58343 16131,58232 16039,58065 15948,57896 15876,57637 15828,57295 15779,56950 15766,56503 15785,55956 15838,54440 16155,53693 16738,53713 16924,53719 17066,53765 17159,53851 17253,53937 17355,54078 17470,54277 17535,54402 17617,54482 17715,54519 17814,54556 18011,54578 18307,54589 L 19006,54613 22581,54738 C 22962,54751 23257,54728 23467,54670 23680,54613 23830,54512 23920,54372 24008,54229 24057,54029 24066,53769 24077,53465 24046,53246 23973,53115 23899,52983 23727,52889 23453,52835 23181,52778 22725,52740 22087,52718 L 19183,52616 C 18506,52593 18076,52598 17886,52629 17699,52663 17575,52728 17520,52827 17406,53005 17312,53130 17234,53201 17157,53274 17041,53306 16887,53301 16750,53296 16628,53269 16522,53219 16414,53168 16312,53057 16219,52887 16129,52720 16057,52462 16008,52120 15960,51774 15946,51327 15965,50780 16021,49185 16367,48399 17001,48421 17295,48431 17501,48568 17619,48830 17690,49003 17762,49125 17836,49190 17912,49258 18098,49314 18393,49358 18690,49402 19182,49437 19872,49461 L 23367,49583 C 23582,49590 23746,49569 23862,49522 23976,49472 24086,49363 24188,49194 24286,49027 24368,48911 24438,48846 24505,48781 24616,48752 24768,48757 25040,48766 25269,48934 25453,49259 25637,49581 25710,50320 25670,51467 25658,51805 25635,52218 25600,52706 25565,53191 25531,53641 25497,54052 25464,54464 25432,54876 25406,55287 25381,55697 25360,56105 25346,56503 Z M 25346,56503 L 25346,56503 Z M 22715,43618 C 22378,43187 22110,42851 21907,42612 21706,42370 21471,42128 21207,41881 20939,41635 20660,41433 20367,41277 19924,41042 19635,40740 19498,40376 19360,40011 19426,39576 19693,39073 19937,38616 20315,38315 20827,38168 21339,38021 21957,37933 22676,37904 22919,37891 23885,37913 25577,37969 27269,38023 28381,38071 28918,38113 29166,38133 29357,38108 29490,38044 29623,37980 29748,37889 29860,37773 29975,37657 30072,37584 30152,37553 30229,37523 30345,37549 30499,37631 30743,37760 30861,37978 30856,38283 30850,38589 30780,38913 30642,39248 30505,39587 30331,39953 30119,40351 29746,41054 29455,41572 29244,41907 29032,42243 28819,42486 28603,42635 28383,42785 28159,42797 27925,42673 27798,42606 27720,42523 27691,42430 27662,42332 27658,42211 27676,42066 27695,41921 27701,41810 27692,41732 27683,41653 27631,41588 27538,41538 27354,41440 27194,41421 27060,41482 26927,41546 26771,41717 26593,41998 26412,42280 26143,42759 25782,43438 25589,43800 25488,44071 25478,44256 25469,44442 25596,44603 25863,44745 25964,44799 26048,44808 26114,44770 26183,44732 26271,44657 26382,44549 26493,44440 26597,44369 26689,44334 26780,44301 26899,44321 27039,44396 27522,44653 27452,45367 26829,46539 26546,47071 26303,47457 26097,47696 25893,47932 25721,48064 25581,48094 25439,48122 25294,48099 25143,48019 24979,47931 24894,47838 24882,47737 24872,47636 24881,47458 24905,47201 24932,46946 24912,46745 24848,46597 24748,46356 24444,45900 23943,45230 L 22715,43618 Z M 22715,43618 L 22715,43618 Z M 24896,41580 C 25064,41264 25097,41078 24994,41023 24869,40957 24471,40933 23798,40951 23545,40954 23342,40965 23189,40985 23033,41006 22926,41074 22865,41188 22819,41274 22832,41379 22901,41507 22970,41635 23051,41755 23143,41859 23233,41966 23328,42069 23425,42169 23476,42230 23542,42302 23613,42388 23686,42476 23765,42561 23844,42646 23924,42734 23987,42788 24028,42810 24102,42849 24165,42840 24218,42784 24273,42727 24342,42621 24423,42469 L 24896,41580 Z M 24896,41580 L 24896,41580 Z M 30636,37357 C 30559,37195 30529,37071 30551,36979 30572,36890 30623,36731 30710,36503 30796,36276 30833,36082 30821,35918 30805,35657 30668,35126 30410,34330 L 29775,32406 C 29596,31889 29452,31485 29340,31191 29226,30898 29085,30592 28914,30273 28742,29952 28544,29670 28318,29428 27976,29060 27799,28683 27788,28294 27778,27902 27981,27513 28397,27125 28777,26770 29233,26608 29765,26636 30297,26664 30910,26783 31599,26989 31755,27037 32237,27225 33048,27554 33858,27884 34680,28219 35507,28560 36336,28900 36945,29151 37334,29313 37486,29373 37671,29378 37890,29327 38108,29275 38301,29235 38465,29211 38631,29185 38804,29239 38988,29370 39335,29611 39652,29885 39939,30193 40175,30446 40294,30705 40301,30972 40306,31240 40188,31488 39945,31715 39699,31944 39473,32054 39270,32046 39066,32041 38779,31993 38408,31907 38036,31821 37773,31824 37616,31919 37210,32174 36393,32875 35162,34022 34054,35056 33378,35747 33137,36094 33047,36231 33014,36494 33043,36884 33069,37274 33071,37588 33045,37826 33019,38065 32892,38290 32663,38504 32482,38673 32268,38738 32022,38701 31775,38664 31567,38552 31392,38365 31023,37968 30771,37633 30636,37357 Z M 30636,37357 L 30636,37357 Z M 34356,31702 C 34003,31523 33589,31342 33118,31159 32645,30974 32346,30864 32217,30828 31979,30747 31782,30694 31630,30661 31475,30631 31352,30660 31259,30747 31157,30842 31133,31020 31183,31283 31236,31547 31296,31770 31369,31950 31425,32155 31513,32466 31632,32879 31752,33294 31878,33649 32013,33939 32052,34007 32079,34049 32095,34066 32176,34153 32273,34185 32388,34163 32503,34142 32614,34081 32726,33977 L 34378,32436 C 34488,32333 34557,32223 34583,32106 34613,31990 34585,31888 34505,31802 34470,31765 34420,31731 34356,31702 Z M 34356,31702 L 34356,31702 Z M 38014,22562 C 37922,22356 37808,22232 37673,22187 37538,22144 37358,22136 37136,22161 36914,22186 36745,22185 36625,22160 36508,22134 36411,22037 36336,21869 36237,21648 36261,21453 36408,21285 36555,21114 36751,20975 36996,20866 37099,20820 37252,20757 37454,20675 37658,20594 37811,20530 37916,20484 38430,20255 38915,20022 39370,19787 39827,19552 40237,19332 40602,19131 40967,18926 41171,18816 41212,18798 41646,18605 42083,18479 42520,18419 42959,18358 43385,18372 43797,18464 44210,18555 44584,18732 44915,18997 45246,19262 45510,19618 45708,20062 45906,20506 45998,20944 45981,21374 45965,21803 45858,22206 45660,22584 45463,22961 45195,23297 44856,23595 44517,23890 44133,24135 43703,24327 43578,24382 43389,24454 43140,24540 42892,24628 42714,24696 42609,24742 42476,24802 42439,24894 42497,25025 L 42815,25740 C 43022,26176 43207,26432 43371,26509 43536,26587 43740,26631 43983,26643 44227,26655 44388,26753 44469,26935 44620,27275 44468,27610 44014,27943 43561,28275 43062,28561 42518,28804 40959,29497 40061,29574 39821,29035 39754,28885 39743,28766 39786,28675 39829,28585 39910,28470 40029,28334 40149,28197 40225,28058 40255,27916 40288,27774 40254,27592 40153,27367 L 38014,22562 Z M 38014,22562 L 38014,22562 Z M 41046,20509 C 40833,20603 40714,20690 40691,20770 40667,20849 40688,20962 40754,21110 L 41574,22951 C 41636,23090 41695,23191 41756,23255 41815,23317 41893,23348 41988,23348 42084,23347 42211,23312 42368,23242 42749,23073 42977,22819 43052,22484 43125,22147 43072,21781 42893,21377 42778,21119 42626,20899 42438,20725 42252,20551 42038,20440 41800,20396 41560,20353 41310,20391 41046,20509 Z M 41046,20509 L 41046,20509 Z M 58558,22801 C 58573,23015 58611,23177 58671,23287 58732,23395 58851,23493 59030,23577 59202,23655 59326,23724 59400,23787 59472,23849 59515,23956 59526,24108 59545,24379 59403,24625 59099,24842 58797,25058 58070,25208 56925,25288 55384,25396 54594,25145 54552,24539 54534,24293 54622,24096 54818,23943 55012,23793 55157,23625 55254,23438 55352,23254 55378,22861 55336,22257 55326,22110 55317,21926 55311,21706 55305,21489 55299,21350 55295,21290 55275,21003 55194,20865 55053,20875 54999,20879 54933,20897 54852,20929 54693,21001 54446,21198 54116,21520 53783,21842 53489,22173 53230,22515 52973,22854 52848,23097 52858,23237 52875,23470 52908,23632 52962,23727 53016,23820 53093,23895 53191,23953 53290,24012 53364,24076 53416,24147 53468,24215 53502,24343 53515,24529 53561,25191 52806,25576 51247,25685 50666,25726 50102,25702 49557,25612 49011,25522 48725,25284 48697,24892 48681,24653 48811,24458 49087,24299 49250,24207 49359,24132 49418,24074 49477,24016 49525,23898 49564,23719 49601,23542 49618,23266 49616,22896 49613,22525 49586,21981 49536,21263 49470,20322 49415,19631 49373,19193 49331,18756 49287,18447 49241,18270 49195,18091 49145,17982 49090,17939 49033,17898 48916,17837 48738,17757 48585,17689 48470,17623 48392,17561 48313,17501 48269,17410 48261,17294 48229,16849 48539,16524 49188,16319 49837,16116 50498,15991 51173,15944 51672,15909 52152,15934 52621,16018 53087,16100 53332,16317 53356,16668 53369,16856 53339,16999 53263,17101 53189,17203 53058,17320 52872,17454 52743,17538 52656,17609 52610,17666 52565,17725 52534,17824 52523,17962 52510,18102 52514,18322 52536,18624 52550,18832 52562,19069 52572,19334 52581,19598 52588,19762 52592,19820 52604,19990 52635,20103 52683,20157 52730,20213 52830,20235 52982,20224 53115,20190 53322,20034 53608,19754 53894,19475 54172,19170 54443,18841 54712,18515 54879,18289 54942,18173 55013,18033 55045,17909 55038,17804 55031,17703 54992,17603 54920,17502 54872,17429 54788,17354 54671,17277 54555,17202 54467,17129 54413,17066 54359,17000 54325,16890 54314,16736 54300,16537 54333,16366 54408,16221 54486,16079 54692,15945 55030,15823 55367,15700 55887,15614 56594,15565 58204,15453 59031,15714 59075,16346 59095,16628 58971,16848 58706,17006 58541,17094 58428,17178 58371,17259 58311,17341 58275,17533 58262,17830 58249,18130 58266,18623 58314,19312 L 58558,22801 Z M 58558,22801 L 58558,22801 Z M 70425,25406 C 70370,25614 70353,25779 70373,25902 70396,26025 70477,26155 70619,26293 70756,26423 70851,26529 70900,26612 70948,26695 70954,26810 70915,26957 70845,27219 70630,27405 70272,27511 69916,27618 69180,27523 68072,27226 66580,26826 65914,26332 66071,25745 66125,25544 66210,25416 66332,25360 66451,25306 66586,25245 66735,25181 66883,25113 67037,24955 67192,24704 67348,24453 67503,24038 67660,23453 67720,23228 67742,23062 67723,22959 67704,22855 67648,22779 67553,22733 67459,22687 67287,22629 67035,22562 66479,22413 66092,22323 65879,22294 65666,22267 65514,22291 65425,22372 65334,22452 65254,22618 65186,22872 L 65060,23342 C 64924,23850 64881,24192 64935,24364 64986,24536 65084,24708 65228,24881 65370,25054 65413,25249 65354,25467 65249,25859 64907,26044 64330,26024 63751,26001 63167,25912 62574,25753 62011,25602 61486,25396 60999,25133 60513,24871 60319,24552 60421,24173 60483,23942 60670,23799 60983,23739 61166,23705 61294,23669 61369,23633 61443,23598 61527,23502 61622,23346 61715,23190 61820,22935 61940,22584 62057,22233 62209,21710 62395,21015 62640,20103 62812,19432 62915,19005 63018,18577 63077,18271 63091,18089 63106,17905 63093,17785 63056,17726 63015,17669 62925,17573 62782,17440 62660,17326 62573,17226 62519,17142 62464,17060 62452,16959 62482,16846 62597,16415 62996,16209 63676,16226 64355,16246 65021,16343 65675,16518 66158,16648 66604,16827 67020,17060 67434,17289 67595,17573 67503,17913 67455,18095 67379,18221 67274,18293 67171,18365 67009,18433 66789,18499 66653,18533 66548,18586 66472,18653 66397,18724 66324,18851 66249,19037 66176,19222 66088,19505 65986,19886 65913,20158 65914,20344 65987,20445 66062,20547 66210,20628 66437,20689 L 66777,20780 67438,20957 C 67702,21028 67899,21064 68026,21064 68154,21063 68241,21035 68282,20974 68326,20914 68369,20805 68412,20647 68580,20019 68655,19603 68636,19396 68614,19190 68555,19040 68450,18944 68303,18794 68201,18671 68149,18581 68095,18487 68087,18367 68127,18220 68169,18064 68255,17931 68388,17818 68519,17707 68786,17647 69188,17636 69590,17625 70168,17722 70924,17925 72483,18342 73180,18859 73016,19472 72943,19744 72754,19912 72451,19975 72267,20004 72133,20047 72052,20105 71969,20164 71873,20333 71764,20610 71654,20889 71509,21361 71330,22028 L 70425,25406 Z M 70425,25406 L 70425,25406 Z M 81030,23192 C 81348,23414 81601,23646 81795,23889 81988,24130 82171,24393 82346,24677 82522,24962 82643,25129 82711,25176 82798,25237 82895,25285 83004,25321 83112,25358 83198,25399 83261,25443 83422,25556 83530,25750 83586,26021 83642,26293 83623,26611 83526,26975 83429,27340 83245,27718 82976,28102 82748,28427 82465,28636 82123,28730 81783,28824 81455,28761 81141,28541 80893,28368 80756,28184 80735,27988 80710,27793 80708,27435 80728,26918 80746,26400 80692,25965 80559,25615 80427,25265 80140,24936 79698,24626 79435,24442 79163,24358 78880,24371 78599,24385 78339,24468 78102,24622 77865,24777 77669,24963 77515,25181 77226,25594 77009,26017 76862,26453 76717,26888 76649,27322 76663,27752 76674,28181 76773,28579 76965,28946 77155,29311 77438,29627 77815,29891 78223,30176 78580,30350 78885,30407 79190,30464 79482,30480 79761,30454 80043,30427 80222,30440 80299,30494 80446,30597 80513,30748 80502,30943 80493,31139 80432,31317 80318,31479 80203,31644 80008,31812 79736,31982 79465,32151 79182,32265 78893,32326 78606,32384 78377,32356 78208,32237 78118,32174 77881,32104 77494,32025 77108,31947 76743,31850 76398,31734 76054,31619 75692,31429 75314,31164 74559,30635 73985,29962 73594,29144 73202,28325 73036,27471 73092,26586 73148,25700 73431,24894 73936,24172 74320,23625 74801,23191 75382,22866 75962,22542 76586,22341 77256,22265 77926,22189 78586,22230 79242,22388 79894,22547 80492,22815 81030,23192 Z M 81030,23192 L 81030,23192 Z M 84617,37606 C 84880,36549 84956,35944 84848,35796 84690,35578 84411,35614 84012,35904 L 83784,36070 C 83668,36154 83593,36253 83557,36365 83523,36478 83502,36624 83490,36802 83481,36980 83456,37129 83419,37246 83380,37364 83301,37468 83183,37554 83047,37653 82892,37685 82718,37651 82547,37617 82313,37460 82020,37182 81727,36905 81364,36470 80935,35879 80364,35094 80044,34534 79972,34198 79901,33865 79974,33618 80191,33460 80318,33367 80423,33325 80510,33330 80596,33334 80711,33362 80857,33411 81000,33459 81148,33480 81297,33471 81448,33461 81632,33399 81857,33280 82361,33025 83029,32595 83860,31991 84328,31651 84723,31356 85044,31103 85363,30852 85651,30596 85905,30339 86091,30157 86208,29997 86252,29857 86300,29717 86316,29567 86305,29406 86293,29245 86300,29121 86324,29037 86350,28949 86433,28855 86577,28751 86787,28598 87074,28608 87437,28780 87800,28951 88329,29515 89022,30469 89345,30913 89582,31331 89732,31718 89883,32104 89798,32415 89477,32648 89331,32755 89151,32786 88939,32743 88729,32701 88533,32691 88355,32713 88174,32734 87900,32880 87532,33147 87227,33369 87125,33548 87225,33686 87291,33777 87485,33846 87807,33892 88130,33940 88461,33957 88803,33947 89144,33935 89354,33901 89434,33843 89514,33785 89589,33687 89661,33546 89730,33404 89805,33305 89883,33249 90202,33017 90543,33051 90905,33354 91267,33659 91653,34091 92064,34656 L 92230,34885 C 92984,35922 93121,36615 92644,36962 92383,37151 92175,37192 92014,37085 91854,36979 91653,36776 91415,36475 91174,36173 90972,36013 90805,35990 90607,35942 90369,35888 90090,35822 89813,35757 89536,35715 89261,35695 88984,35676 88778,35717 88640,35817 88517,35907 88430,36020 88379,36156 88331,36291 88269,36508 88195,36806 L 87244,40971 C 87215,41106 87223,41308 87267,41578 87309,41849 87320,42063 87301,42224 87281,42382 87170,42535 86972,42679 86573,42968 86137,42787 85664,42136 L 84318,40284 C 84209,40134 84141,40017 84112,39935 84083,39854 84078,39755 84098,39638 84120,39522 84171,39311 84253,39004 L 84617,37606 Z M 84617,37606 L 84617,37606 Z M 91287,52511 C 91080,52571 90930,52642 90835,52723 90742,52805 90671,52942 90626,53135 90586,53319 90543,53455 90498,53540 90452,53623 90356,53688 90209,53730 89949,53805 89678,53716 89403,53464 89129,53214 88831,52535 88515,51430 88089,49946 88170,49120 88753,48953 88991,48885 89202,48929 89392,49089 89580,49248 89774,49355 89976,49411 90177,49468 90567,49412 91149,49245 91291,49205 91469,49158 91682,49106 91894,49055 92029,49021 92087,49004 92363,48925 92481,48817 92442,48681 92427,48629 92396,48568 92347,48496 92244,48355 92000,48155 91616,47899 91232,47640 90847,47422 90459,47239 90074,47058 89811,46987 89675,47026 89451,47090 89300,47157 89218,47229 89138,47301 89080,47392 89044,47501 89007,47609 88960,47695 88901,47761 88845,47826 88727,47885 88548,47936 87911,48119 87377,47461 86946,45959 86785,45399 86691,44843 86666,44290 86640,43738 86814,43408 87191,43300 87421,43234 87640,43321 87853,43558 87976,43697 88073,43789 88142,43834 88211,43880 88336,43902 88518,43904 88700,43903 88973,43862 89335,43784 89697,43703 90224,43564 90915,43366 91823,43105 92487,42908 92906,42776 93325,42644 93618,42537 93782,42455 93947,42373 94043,42301 94074,42238 94102,42174 94138,42047 94179,41856 94214,41692 94254,41566 94299,41477 94341,41387 94421,41325 94533,41293 94962,41170 95344,41405 95679,41997 96012,42590 96272,43210 96459,43861 96596,44341 96672,44817 96687,45293 96704,45766 96543,46050 96204,46147 96023,46199 95877,46199 95761,46146 95646,46095 95504,45991 95334,45837 95226,45728 95138,45657 95073,45625 95006,45593 94902,45583 94765,45601 94626,45618 94411,45668 94120,45751 93920,45808 93690,45870 93434,45934 93177,45998 93018,46039 92962,46055 92798,46102 92695,46155 92651,46214 92607,46271 92606,46374 92648,46521 92709,46643 92904,46813 93238,47035 93570,47257 93926,47465 94304,47662 94680,47857 94935,47973 95062,48011 95214,48052 95341,48057 95443,48028 95540,48000 95630,47942 95713,47850 95775,47788 95831,47691 95882,47559 95931,47431 95984,47330 96035,47264 96088,47197 96189,47140 96337,47098 96529,47043 96703,47039 96860,47083 97016,47129 97189,47303 97379,47608 97569,47913 97761,48403 97956,49084 98401,50636 98318,51499 97708,51674 97436,51752 97195,51677 96986,51450 96866,51307 96760,51214 96669,51175 96576,51134 96381,51138 96087,51187 95791,51237 95312,51356 94649,51546 L 91287,52511 Z"/>
         </g>
        </g>
        <g class="com.sun.star.drawing.ClosedBezierShape">
         <g id="id10">
          <rect class="BoundingBox" stroke="none" fill="none" x="88466" y="54670" width="10069" height="9525"/>
          <path fill="rgb(255,255,255)" stroke="none" d="M 98208,60763 C 98171,61291 98160,61706 98178,62006 98195,62303 98223,62546 98262,62728 98301,62911 98320,63018 98318,63047 98302,63282 98178,63473 97945,63623 97713,63771 97445,63876 97137,63935 96829,63997 96563,64019 96337,64003 96075,63984 95852,63911 95668,63783 95486,63658 95402,63475 95419,63237 95434,63014 95520,62851 95673,62745 95829,62641 95993,62536 96168,62431 96342,62327 96497,62135 96635,61862 96771,61586 96859,61158 96900,60575 96930,60150 96922,59844 96879,59659 96836,59474 96739,59349 96593,59285 96444,59223 96200,59179 95852,59154 L 95181,59107 C 94897,59088 94706,59090 94603,59114 94503,59136 94436,59201 94399,59307 94365,59412 94337,59613 94316,59911 94300,60137 94352,60295 94474,60383 94596,60470 94778,60541 95023,60596 95269,60649 95449,60716 95567,60794 95685,60870 95736,61015 95721,61223 95698,61560 95463,61766 95015,61843 94567,61922 94102,61943 93624,61910 93351,61891 93053,61847 92729,61780 92406,61712 92119,61602 91874,61452 91626,61300 91512,61104 91528,60862 91541,60683 91596,60572 91693,60534 91792,60496 91968,60464 92221,60434 92473,60405 92666,60335 92800,60225 92931,60113 93009,59907 93030,59603 93047,59360 92975,59203 92816,59129 92657,59055 92429,59007 92129,58986 91510,58943 91074,58937 90826,58969 90577,59001 90413,59091 90337,59241 90262,59390 90209,59666 90181,60067 L 90157,60400 C 90114,61024 90166,61504 90316,61836 90463,62170 90657,62417 90893,62575 91130,62735 91351,62890 91552,63039 91755,63186 91847,63374 91831,63605 91817,63804 91717,63954 91530,64058 91343,64161 91142,64206 90928,64191 90626,64170 90278,64076 89885,63914 89492,63749 89155,63557 88871,63337 88590,63117 88456,62921 88467,62751 88468,62743 88506,62550 88582,62171 88658,61794 88709,61418 88735,61044 L 89120,55529 C 89162,54929 89376,54646 89760,54672 89955,54686 90102,54804 90205,55029 90306,55256 90407,55423 90504,55536 90602,55646 90855,55731 91261,55786 92485,55955 93269,56050 93614,56074 93614,56074 94372,56098 95887,56150 96298,56163 96600,56128 96792,56040 96983,55955 97116,55852 97191,55733 97267,55617 97354,55497 97452,55376 97551,55255 97703,55201 97909,55215 98374,55247 98579,55648 98526,56418 98521,56478 98513,56563 98501,56672 98489,56781 98482,56855 98479,56898 L 98208,60763 Z"/>
         </g>
        </g>
       </g>
       <g class="com.sun.star.drawing.ClosedBezierShape">
        <g id="id11">
         <rect class="BoundingBox" stroke="none" fill="none" x="9500" y="9455" width="95002" height="70548"/>
         <path fill="rgb(255,255,255)" stroke="none" d="M 57001,9455 C 83230,9455 104501,30725 104501,56956 104501,65319 102335,73176 98539,80002 L 15461,80002 C 11665,73176 9500,65319 9500,56956 9500,30725 30770,9455 57001,9455 Z M 57001,9455 L 57001,9455 Z M 63459,60992 L 63756,61706 C 65470,61829 69877,57837 69402,55997 68899,57786 64919,61000 63459,60992 Z M 63459,60992 L 63459,60992 Z M 51254,75462 C 42433,73342 36753,66479 34999,59798 36592,61101 38247,61162 40076,60646 38022,60786 34443,58113 34231,56073 34019,54041 33982,52119 34402,50112 35428,52453 37270,53904 39410,54826 37452,53773 34555,48701 35238,46512 35850,44551 36703,42850 38072,40898 38184,44401 39348,47186 40965,50001 39410,46639 39249,42077 39341,39127 41955,36047 45118,33869 48555,32478 49677,32024 49588,32777 49318,33034 49212,33135 49051,33248 49051,33248 45212,35766 42631,40096 42545,45287 42545,49486 44990,55237 49216,57036 49249,57050 49290,57053 49316,57078 49707,57461 49330,59423 49113,59972 47635,59641 44457,57121 44036,55623 43623,58450 48768,60736 48717,60872 46637,65170 47163,72291 51307,75406 51425,75496 51331,75481 51254,75462 Z M 51254,75462 L 51254,75462 Z M 63095,58021 L 64345,57376 C 68656,54795 71586,50775 71586,45287 71499,40008 68831,35620 64884,33122 63493,32242 64979,32206 65926,32619 68861,33897 71615,35697 73963,38201 76176,40559 74388,47360 73166,50001 74784,47186 75947,44401 76059,40898 77429,42850 78281,44551 78893,46512 79809,49447 77344,53416 74722,54826 76862,53904 78703,52453 79730,50112 80173,52235 80107,54263 79863,56426 79608,58680 76284,60797 74056,60646 75885,61162 77540,61101 79133,59798 77365,66532 71495,73451 62518,75512 63778,76099 65099,76604 66495,76948 66768,77015 66857,77252 66827,77463 L 95573,77463 C 98846,71341 100702,64349 100702,56924 100702,32827 81162,13287 57066,13287 32970,13287 13429,32827 13429,56924 13429,64349 15286,71341 18559,77463 L 47304,77463 C 47275,77252 47363,77015 47637,76948 49031,76605 50687,76115 52004,75513 52166,75440 52109,75335 51998,75234 48120,71684 47609,65163 49189,61250 49598,60406 49924,59328 49905,58185 49898,57707 49749,57349 49686,56906 49143,53111 59265,48000 58667,43268 59252,43113 59712,42677 59705,41815 59696,40785 58762,40264 57831,40016 57872,39813 57911,39624 57910,39462 57906,39048 57485,38944 57254,39266 57149,39412 57084,39630 57003,39858 56907,39847 56816,39838 56730,39831 56507,39814 56283,39813 56061,39829 56294,39201 56757,38429 56687,37744 L 56320,37831 C 56371,38330 56014,38986 55824,39440 55441,40352 55357,41076 55247,42030 L 50656,40614 C 50541,40578 50522,40577 50469,40463 50390,40294 50363,40098 50515,40064 51053,39944 54793,39098 55205,38480 55481,38032 55711,37691 56320,37831 58047,37291 61900,38307 62389,39953 62470,40229 62528,40566 62579,40851 63510,46102 56443,60184 63095,58021 Z M 63095,58021 L 63095,58021 Z M 63459,60992 L 63756,61706 C 65470,61829 69877,57837 69402,55997 68899,57786 64919,61000 63459,60992 Z M 63459,60992 L 63459,60992 Z M 55900,40227 C 55794,40620 55730,41005 55679,41411 L 55597,42197 C 56238,42435 56852,42646 57369,42794 58007,42976 59035,42960 59026,41815 59016,40595 57412,40282 56614,40214 56376,40194 56137,40197 55900,40227 Z"/>
        </g>
       </g>
       <g class="com.sun.star.drawing.ClosedBezierShape">
        <g id="id12">
         <rect class="BoundingBox" stroke="none" fill="none" x="32297" y="97707" width="49125" height="6840"/>
         <path fill="rgb(255,255,255)" stroke="none" d="M 81421,97707 C 74254,102047 65847,104546 56859,104546 47871,104546 39465,102047 32298,97707 L 81421,97707 Z"/>
        </g>
       </g>
      </g>
      <g class="Group">
       <g class="com.sun.star.drawing.ClosedBezierShape">
        <g id="id13">
         <rect class="BoundingBox" stroke="none" fill="none" x="23344" y="82355" width="67557" height="8609"/>
         <path fill="rgb(255,255,255)" stroke="none" d="M 27438,83776 C 27331,83836 27254,83903 27205,83980 27158,84054 27125,84179 27103,84352 27084,84524 27074,84783 27074,85128 L 27074,88260 C 27074,88720 27115,89016 27199,89150 27282,89283 27403,89406 27564,89520 27723,89634 27803,89790 27803,89987 27803,90341 27556,90575 27064,90688 26570,90800 26056,90857 25519,90857 25010,90857 24520,90802 24049,90690 23579,90578 23344,90353 23344,90010 23344,89800 23469,89636 23720,89516 23867,89446 23967,89387 24022,89340 24077,89293 24126,89193 24171,89040 24214,88887 24245,88648 24267,88324 24286,88001 24296,87525 24296,86895 24296,86069 24290,85463 24281,85079 24271,84695 24251,84423 24222,84266 24192,84107 24155,84009 24110,83968 24063,83929 23965,83868 23814,83787 23685,83719 23589,83654 23524,83595 23459,83538 23426,83456 23426,83354 23426,82964 23716,82699 24294,82560 24871,82423 25457,82355 26049,82355 26113,82355 26443,82368 27037,82394 27629,82421 28107,82435 28471,82435 28767,82435 29146,82421 29606,82394 30065,82368 30463,82355 30800,82355 32212,82355 32917,82633 32917,83188 32917,83435 32796,83619 32555,83740 32406,83807 32302,83874 32247,83940 32190,84009 32147,84174 32117,84432 32088,84693 32072,85124 32072,85728 L 32072,88787 C 32072,88975 32096,89118 32141,89218 32188,89316 32286,89408 32437,89493 32582,89571 32686,89640 32747,89698 32805,89757 32837,89853 32837,89987 32837,90224 32698,90430 32419,90600 32143,90771 31500,90857 30496,90857 29146,90857 28471,90590 28471,90059 28471,89877 28515,89749 28605,89675 28693,89602 28793,89520 28905,89432 29014,89342 29109,89175 29183,88928 29257,88681 29295,88293 29295,87766 L 29295,85224 C 29295,84656 29263,84285 29201,84117 29136,83948 29052,83834 28942,83776 28901,83746 28652,83731 28189,83731 27740,83731 27489,83746 27438,83776 Z M 27438,83776 L 27438,83776 Z M 34340,84270 C 34340,84072 34293,83932 34201,83848 34109,83766 33968,83695 33782,83636 33595,83578 33460,83517 33374,83454 33290,83391 33246,83280 33246,83119 33246,82907 33335,82760 33511,82678 33690,82594 33895,82552 34131,82552 34229,82552 34374,82556 34564,82562 34756,82570 34901,82574 35001,82574 35493,82574 35963,82560 36410,82535 36859,82509 37265,82480 37628,82449 37992,82415 38194,82400 38233,82400 38649,82400 39043,82454 39413,82562 39786,82670 40121,82833 40418,83052 40716,83272 40951,83546 41122,83876 41292,84205 41376,84583 41376,85009 41376,85434 41294,85816 41128,86153 40963,86491 40734,86776 40441,87007 40148,87238 39815,87411 39439,87528 39062,87644 38668,87703 38257,87703 38137,87703 37961,87693 37731,87673 37502,87656 37335,87646 37236,87646 37108,87646 37045,87707 37045,87832 L 37045,88516 C 37055,88938 37112,89208 37216,89328 37320,89449 37467,89557 37657,89653 37847,89749 37941,89885 37941,90059 37941,90384 37700,90598 37220,90702 36740,90806 36240,90857 35718,90857 34227,90857 33482,90598 33482,90083 33482,89939 33515,89840 33582,89783 33648,89726 33754,89663 33897,89596 34042,89530 34152,89446 34227,89344 34303,89242 34340,89085 34340,88869 L 34340,84270 Z M 34340,84270 L 34340,84270 Z M 37492,83707 C 37288,83707 37163,83734 37116,83789 37069,83844 37045,83942 37045,84083 L 37045,85846 C 37045,85979 37057,86081 37083,86153 37108,86224 37159,86277 37236,86310 37312,86343 37426,86361 37577,86361 37941,86361 38214,86240 38392,85998 38570,85755 38659,85444 38659,85058 38659,84811 38615,84581 38527,84375 38441,84170 38310,84005 38135,83885 37959,83766 37745,83707 37492,83707 Z M 37492,83707 L 37492,83707 Z M 50080,88281 C 50080,88722 50133,89018 50241,89175 50348,89330 50495,89467 50682,89589 50868,89708 50962,89845 50962,89998 50962,90571 50217,90857 48727,90857 48120,90857 47657,90825 47337,90763 47018,90702 46802,90618 46693,90514 46583,90410 46526,90277 46526,90116 46526,89989 46553,89892 46604,89828 46655,89763 46736,89700 46843,89636 46949,89571 47034,89508 47096,89447 47157,89387 47198,89295 47220,89175 47275,88875 47302,88495 47302,88034 47302,87797 47290,87623 47269,87513 47247,87401 47212,87332 47165,87303 47118,87274 47047,87260 46949,87260 46659,87260 46446,87354 46306,87542 46165,87728 46055,87991 45973,88328 45859,88820 45758,89206 45667,89491 45575,89773 45448,90028 45281,90253 45117,90479 44889,90655 44601,90778 44311,90902 43942,90963 43492,90963 42874,90963 42408,90873 42094,90692 41780,90510 41621,90294 41621,90043 41621,89889 41653,89789 41712,89742 41770,89694 41870,89651 42014,89610 42155,89571 42268,89502 42353,89404 42439,89306 42496,89136 42527,88893 42609,88262 42751,87789 42954,87476 43156,87164 43464,86931 43880,86778 43991,86729 44068,86689 44111,86655 44154,86624 44176,86569 44176,86492 44176,86406 44113,86328 43985,86259 43668,86102 43423,85869 43248,85559 43074,85252 42986,84915 42986,84554 42986,84064 43127,83656 43405,83333 43686,83009 44044,82772 44483,82623 44924,82474 45381,82400 45856,82400 46142,82400 46532,82413 47026,82441 47518,82468 47890,82482 48139,82482 48300,82482 48535,82468 48847,82441 49157,82413 49403,82400 49586,82400 49939,82400 50258,82451 50544,82552 50831,82652 50974,82847 50974,83129 50974,83284 50923,83393 50823,83454 50725,83517 50615,83582 50499,83650 50382,83719 50284,83846 50201,84036 50121,84226 50080,84522 50080,84930 L 50080,88281 Z M 50080,88281 L 50080,88281 Z M 47302,84330 C 47286,84091 47257,83925 47214,83833 47169,83740 47049,83695 46855,83695 46306,83695 46034,84083 46034,84858 46034,85240 46110,85526 46263,85720 46416,85914 46677,86012 47043,86012 47169,86012 47251,85987 47290,85934 47332,85883 47355,85806 47363,85704 47363,85597 47357,85510 47347,85446 L 47302,84330 Z M 47302,84330 L 47302,84330 Z M 60030,88787 C 60030,88975 60053,89118 60098,89218 60145,89316 60243,89408 60394,89493 60539,89571 60643,89640 60704,89698 60763,89757 60794,89853 60794,89987 60794,90224 60655,90430 60377,90600 60100,90771 59457,90857 58454,90857 57103,90857 56429,90590 56429,90059 56429,89877 56472,89749 56562,89675 56650,89602 56750,89520 56862,89432 56972,89342 57066,89173 57140,88926 57215,88679 57252,88293 57252,87764 57252,87560 57233,87415 57193,87332 57154,87248 57089,87197 56999,87180 56909,87162 56750,87152 56523,87152 56019,87152 55672,87164 55486,87187 55300,87213 55176,87268 55119,87356 55061,87444 55031,87603 55031,87832 L 55031,88258 C 55031,88718 55072,89016 55157,89150 55239,89283 55361,89406 55521,89520 55680,89634 55760,89789 55760,89987 55760,90341 55513,90575 55021,90688 54527,90800 54014,90857 53477,90857 52967,90857 52477,90802 52007,90690 51536,90578 51301,90353 51301,90010 51301,89800 51426,89638 51677,89516 51824,89446 51924,89387 51979,89340 52034,89293 52083,89193 52128,89040 52171,88887 52203,88648 52224,88324 52244,88001 52254,87525 52254,86895 52254,86069 52248,85463 52238,85079 52228,84695 52209,84423 52179,84266 52150,84107 52113,84009 52067,83968 52020,83929 51922,83868 51771,83787 51642,83719 51546,83654 51481,83595 51417,83538 51383,83456 51383,83354 51383,82964 51673,82699 52252,82560 52830,82423 53414,82355 54006,82355 54443,82355 54861,82405 55264,82507 55666,82607 55866,82811 55866,83119 55866,83284 55831,83407 55758,83491 55688,83576 55566,83670 55396,83776 55288,83834 55212,83903 55163,83978 55116,84054 55082,84177 55061,84352 55041,84524 55031,84783 55031,85128 55031,85375 55074,85532 55159,85601 55245,85669 55388,85704 55594,85704 L 55902,85704 56499,85704 C 56739,85704 56913,85691 57021,85661 57129,85632 57195,85589 57217,85528 57240,85467 57252,85365 57252,85222 57252,84654 57221,84285 57158,84115 57093,83946 57009,83833 56899,83776 56741,83682 56627,83601 56562,83537 56495,83470 56462,83370 56462,83237 56462,83095 56505,82964 56592,82839 56678,82715 56890,82603 57227,82503 57564,82404 58073,82355 58758,82355 60169,82355 60875,82633 60875,83188 60875,83435 60753,83619 60512,83740 60363,83807 60259,83874 60204,83940 60147,84009 60104,84174 60075,84432 60045,84693 60030,85124 60030,85728 L 60030,88787 Z M 60030,88787 L 60030,88787 Z M 69933,88787 C 69933,88975 69956,89118 70001,89218 70048,89316 70146,89408 70297,89493 70442,89571 70546,89640 70607,89698 70666,89757 70697,89853 70697,89987 70697,90224 70558,90430 70280,90600 70003,90771 69360,90857 68357,90857 67006,90857 66332,90590 66332,90059 66332,89843 66420,89677 66600,89555 66779,89436 66916,89299 67012,89142 67108,88987 67155,88646 67155,88116 67155,87987 67159,87826 67167,87634 67175,87444 67179,87323 67179,87270 67179,87019 67116,86893 66992,86893 66945,86893 66887,86905 66814,86929 66671,86982 66444,87138 66136,87399 65826,87660 65550,87930 65303,88213 65058,88493 64934,88697 64934,88820 64934,89024 64954,89167 64995,89253 65036,89338 65099,89408 65181,89465 65264,89522 65324,89583 65365,89647 65407,89710 65428,89824 65428,89987 65428,90567 64746,90857 63380,90857 62870,90857 62380,90802 61910,90690 61439,90578 61204,90353 61204,90010 61204,89800 61329,89638 61580,89516 61727,89446 61827,89387 61882,89340 61937,89293 61986,89193 62031,89040 62074,88887 62106,88648 62127,88324 62147,88001 62157,87525 62157,86895 62157,86069 62151,85463 62141,85079 62131,84695 62112,84423 62082,84266 62053,84107 62015,84009 61970,83968 61923,83929 61825,83868 61674,83787 61545,83719 61449,83654 61384,83595 61320,83538 61286,83456 61286,83354 61286,82964 61576,82699 62155,82560 62733,82423 63317,82355 63909,82355 64346,82355 64764,82405 65167,82507 65569,82607 65769,82811 65769,83119 65769,83284 65734,83407 65661,83491 65591,83576 65469,83670 65299,83776 65181,83840 65101,83897 65058,83944 65015,83993 64981,84078 64964,84197 64944,84319 64934,84511 64934,84775 64934,84958 64930,85165 64922,85397 64915,85628 64911,85771 64911,85822 64911,85971 64930,86071 64969,86122 65007,86173 65093,86198 65226,86198 65344,86177 65534,86053 65801,85826 66067,85601 66328,85352 66585,85081 66840,84813 66998,84626 67061,84528 67132,84411 67167,84305 67167,84213 67167,84125 67139,84034 67083,83942 67045,83876 66977,83805 66879,83731 66783,83658 66710,83589 66667,83531 66624,83470 66600,83372 66600,83237 66600,83062 66640,82915 66714,82794 66791,82674 66979,82570 67281,82484 67582,82398 68041,82355 68661,82355 70072,82355 70778,82633 70778,83188 70778,83435 70656,83619 70415,83740 70266,83807 70162,83874 70107,83940 70050,84009 70007,84174 69978,84432 69948,84693 69933,85124 69933,85728 L 69933,88787 Z M 69933,88787 L 69933,88787 Z M 76361,89140 C 75748,88411 75360,88046 75199,88046 74964,88046 74846,88262 74846,88693 L 74846,88940 C 74846,89065 74877,89169 74938,89251 75001,89334 75093,89424 75213,89524 75334,89622 75426,89716 75491,89802 75554,89890 75587,90000 75587,90128 75587,90275 75530,90400 75416,90506 75305,90610 75073,90694 74726,90759 74379,90824 73884,90857 73245,90857 72397,90857 71836,90796 71562,90675 71289,90553 71152,90375 71152,90139 71152,90002 71176,89906 71225,89847 71272,89789 71350,89722 71460,89644 71568,89567 71658,89473 71728,89363 71799,89251 71850,89089 71881,88869 71960,88381 71999,87687 71999,86789 71999,86283 71993,85852 71979,85495 71965,85140 71932,84805 71881,84493 71848,84268 71795,84103 71719,83999 71644,83893 71546,83805 71426,83731 71307,83656 71223,83587 71176,83527 71127,83464 71103,83356 71103,83201 71103,82974 71258,82776 71566,82607 71873,82439 72544,82355 73575,82355 74056,82355 74474,82402 74824,82494 75175,82586 75352,82805 75352,83152 75352,83311 75281,83454 75142,83582 75005,83709 74897,83842 74821,83980 74742,84119 74705,84387 74705,84785 74705,85114 74779,85279 74928,85279 75026,85279 75175,85177 75373,84973 75573,84769 75756,84544 75924,84297 76091,84050 76175,83883 76175,83797 76175,83711 76144,83607 76081,83484 76016,83362 75985,83258 75985,83174 75985,82829 76185,82605 76585,82505 76987,82405 77490,82355 78102,82355 L 78349,82355 C 79470,82355 80031,82613 80031,83129 80031,83411 79952,83580 79794,83638 79637,83697 79390,83734 79055,83748 78717,83764 78500,83825 78398,83931 78263,84046 78102,84187 77912,84350 77724,84513 77551,84687 77396,84871 77239,85058 77163,85224 77163,85373 77163,85507 77198,85626 77269,85732 77339,85836 77461,85991 77633,86197 L 80092,89010 C 80172,89101 80319,89199 80533,89306 80746,89416 80903,89518 81007,89614 81109,89710 81160,89867 81160,90081 81160,90512 80807,90727 80103,90727 L 78102,90727 C 77939,90727 77822,90716 77749,90694 77677,90673 77604,90626 77532,90551 77461,90477 77337,90332 77163,90116 L 76361,89140 Z M 76361,89140 L 76361,89140 Z M 90055,88787 C 90055,88975 90079,89118 90124,89218 90171,89316 90269,89408 90420,89493 90565,89571 90669,89640 90730,89698 90788,89757 90820,89853 90820,89987 90820,90224 90681,90430 90402,90600 90126,90771 89483,90857 88479,90857 87129,90857 86454,90590 86454,90059 86454,89843 86543,89677 86723,89555 86901,89436 87038,89299 87135,89142 87231,88987 87278,88646 87278,88116 87278,87987 87282,87826 87289,87634 87297,87444 87301,87323 87301,87270 87301,87019 87238,86893 87115,86893 87068,86893 87009,86905 86937,86929 86793,86982 86566,87138 86258,87399 85949,87660 85672,87930 85425,88213 85180,88493 85057,88697 85057,88820 85057,89024 85076,89167 85118,89253 85159,89338 85221,89408 85304,89465 85386,89522 85447,89583 85488,89647 85529,89710 85551,89824 85551,89987 85551,90567 84869,90857 83502,90857 82993,90857 82503,90802 82032,90690 81562,90578 81326,90353 81326,90010 81326,89800 81452,89638 81703,89516 81850,89446 81950,89387 82005,89340 82060,89293 82109,89193 82154,89040 82197,88887 82228,88648 82250,88324 82269,88001 82279,87525 82279,86895 82279,86069 82273,85463 82263,85079 82254,84695 82234,84423 82205,84266 82175,84107 82138,84009 82093,83968 82046,83929 81948,83868 81797,83787 81668,83719 81571,83654 81507,83595 81442,83538 81409,83456 81409,83354 81409,82964 81699,82699 82277,82560 82855,82423 83440,82355 84032,82355 84469,82355 84886,82405 85290,82507 85692,82607 85892,82811 85892,83119 85892,83284 85857,83407 85784,83491 85713,83576 85592,83670 85421,83776 85304,83840 85223,83897 85180,83944 85137,83993 85104,84078 85086,84197 85067,84319 85057,84511 85057,84775 85057,84958 85053,85165 85045,85397 85037,85628 85033,85771 85033,85822 85033,85971 85053,86071 85092,86122 85129,86173 85216,86198 85349,86198 85466,86177 85657,86053 85923,85826 86190,85601 86450,85352 86707,85081 86962,84813 87121,84626 87184,84528 87254,84411 87289,84305 87289,84213 87289,84125 87262,84034 87205,83942 87168,83876 87099,83805 87001,83731 86905,83658 86833,83589 86790,83531 86746,83470 86723,83372 86723,83237 86723,83062 86762,82915 86837,82794 86913,82674 87101,82570 87403,82484 87705,82398 88164,82355 88783,82355 90194,82355 90900,82633 90900,83188 90900,83435 90779,83619 90537,83740 90388,83807 90285,83874 90230,83940 90173,84009 90130,84174 90100,84432 90071,84693 90055,85124 90055,85728 L 90055,88787 Z"/>
        </g>
       </g>
       <g class="com.sun.star.drawing.ClosedBezierShape">
        <g id="id14">
         <rect class="BoundingBox" stroke="none" fill="none" x="17804" y="83931" width="78352" height="4600"/>
         <path fill="rgb(255,255,255)" stroke="none" d="M 96155,83931 C 95082,85493 93918,86987 92671,88408 L 92671,83931 96155,83931 Z M 96155,83931 L 96155,83931 Z M 21396,88530 C 20108,87073 18908,85538 17804,83931 L 21396,83931 21396,88530 Z"/>
        </g>
       </g>
       <g class="com.sun.star.drawing.ClosedBezierShape">
        <g id="id15">
         <rect class="BoundingBox" stroke="none" fill="none" x="26414" y="93588" width="61143" height="1935"/>
         <path fill="rgb(255,255,255)" stroke="none" d="M 87556,93589 C 86760,94259 85943,94904 85104,95522 L 28866,95522 C 28027,94904 27209,94259 26414,93589 L 87556,93589 Z"/>
        </g>
       </g>
       <g class="com.sun.star.drawing.ClosedBezierShape">
        <g id="id16">
         <rect class="BoundingBox" stroke="none" fill="none" x="18921" y="68205" width="5790" height="5790"/>
         <path fill="rgb(255,255,255)" stroke="none" d="M 21816,68205 L 21815,68205 C 22348,68205 22801,68326 23263,68593 23724,68859 24056,69191 24322,69652 24589,70114 24710,70567 24710,71099 L 24710,71100 24710,71100 C 24710,71632 24589,72085 24322,72547 24056,73008 23724,73340 23263,73606 22801,73873 22348,73994 21816,73994 21283,73994 20830,73873 20368,73606 19907,73340 19575,73008 19309,72547 19042,72085 18921,71632 18921,71100 18921,70567 19042,70114 19309,69652 19575,69191 19907,68859 20368,68593 20830,68326 21283,68205 21815,68205 L 21816,68205 Z"/>
        </g>
       </g>
       <g class="com.sun.star.drawing.ClosedBezierShape">
        <g id="id17">
         <rect class="BoundingBox" stroke="none" fill="none" x="88878" y="68276" width="5790" height="5790"/>
         <path fill="rgb(255,255,255)" stroke="none" d="M 91773,68276 L 91772,68276 C 92305,68276 92758,68397 93220,68664 93681,68930 94013,69262 94279,69723 94546,70185 94667,70638 94667,71170 L 94667,71171 94667,71171 C 94667,71703 94546,72156 94279,72618 94013,73079 93681,73411 93220,73677 92758,73944 92305,74065 91773,74065 91240,74065 90787,73944 90325,73677 89864,73411 89532,73079 89266,72618 88999,72156 88878,71703 88878,71171 88878,70638 88999,70185 89266,69723 89532,69262 89864,68930 90325,68664 90787,68397 91240,68276 91772,68276 L 91773,68276 Z"/>
        </g>
       </g>
       <g class="Group">
        <g class="com.sun.star.drawing.ClosedBezierShape">
         <g id="id18">
          <rect class="BoundingBox" stroke="none" fill="none" x="15609" y="15539" width="82630" height="48680"/>
          <path fill="rgb(255,255,255)" stroke="none" d="M 25346,56502 C 25322,57181 25310,57712 25313,58098 25313,58484 25316,59094 25323,59931 25327,60768 25323,61387 25309,61793 25289,62371 25207,62922 25063,63448 24919,63975 24650,64230 24256,64217 24007,64208 23823,64069 23705,63796 23630,63625 23567,63508 23515,63444 23464,63379 23351,63319 23179,63261 23006,63206 22733,63161 22365,63123 21996,63088 21452,63058 20733,63032 19789,63000 19097,62982 18657,62978 18218,62974 17906,62985 17725,63013 17543,63040 17429,63079 17380,63128 17334,63181 17260,63290 17162,63460 17079,63605 17001,63712 16931,63784 16864,63855 16768,63890 16652,63886 16206,63870 15915,63528 15779,62862 15645,62195 15591,61525 15614,60848 15631,60367 15705,59916 15834,59497 15963,59080 16203,58875 16557,58887 16743,58894 16885,58939 16978,59025 17072,59112 17175,59252 17289,59451 17354,59577 17436,59656 17534,59693 17634,59730 17830,59753 18126,59763 L 18825,59787 22400,59912 C 22781,59926 23076,59902 23287,59845 23500,59787 23649,59687 23739,59546 23827,59404 23877,59203 23886,58944 23897,58614 23867,58387 23793,58256 23719,58128 23554,58039 23297,57994 23041,57949 22578,57915 21906,57892 L 19002,57790 C 18326,57767 17895,57772 17705,57804 17518,57837 17395,57903 17339,58002 17226,58179 17132,58304 17053,58375 16976,58449 16861,58481 16706,58475 16569,58470 16447,58444 16341,58393 16233,58342 16131,58231 16039,58064 15948,57895 15876,57636 15828,57294 15779,56949 15766,56502 15785,55955 15838,54439 16155,53692 16738,53712 16924,53718 17066,53764 17159,53850 17253,53936 17355,54077 17470,54276 17535,54401 17617,54481 17715,54518 17814,54555 18011,54577 18307,54588 L 19006,54612 22581,54737 C 22962,54750 23257,54727 23467,54669 23680,54612 23830,54511 23920,54371 24008,54228 24057,54028 24066,53768 24077,53464 24046,53245 23973,53114 23899,52982 23727,52888 23453,52834 23181,52777 22725,52739 22087,52717 L 19183,52615 C 18506,52592 18076,52597 17886,52628 17699,52662 17575,52727 17520,52826 17406,53004 17312,53129 17234,53200 17157,53273 17041,53305 16887,53300 16750,53295 16628,53268 16522,53218 16414,53167 16312,53056 16219,52886 16129,52719 16057,52461 16008,52119 15960,51773 15946,51326 15965,50779 16021,49184 16367,48398 17001,48420 17295,48430 17501,48567 17619,48829 17690,49002 17762,49124 17836,49189 17912,49257 18098,49313 18393,49357 18690,49401 19182,49436 19872,49460 L 23367,49582 C 23582,49589 23746,49568 23862,49521 23976,49471 24086,49362 24188,49193 24286,49026 24368,48910 24438,48845 24505,48780 24616,48751 24768,48756 25040,48765 25269,48933 25453,49258 25637,49580 25710,50319 25670,51466 25658,51804 25635,52217 25600,52705 25565,53190 25531,53640 25497,54051 25464,54463 25432,54875 25406,55286 25381,55696 25360,56104 25346,56502 Z M 25346,56502 L 25346,56502 Z M 22715,43617 C 22378,43186 22110,42850 21907,42611 21706,42369 21471,42127 21207,41880 20939,41634 20660,41432 20367,41276 19924,41041 19635,40739 19498,40375 19360,40010 19426,39575 19693,39072 19937,38615 20315,38314 20827,38167 21339,38020 21957,37932 22676,37903 22919,37890 23885,37912 25577,37968 27269,38022 28381,38070 28918,38112 29166,38132 29357,38107 29490,38043 29623,37979 29748,37888 29860,37772 29975,37656 30072,37583 30152,37552 30229,37522 30345,37548 30499,37630 30743,37759 30861,37977 30856,38282 30850,38588 30780,38912 30642,39247 30505,39586 30331,39952 30119,40350 29746,41053 29455,41571 29244,41906 29032,42242 28819,42485 28603,42634 28383,42784 28159,42796 27925,42672 27798,42605 27720,42522 27691,42429 27662,42331 27658,42210 27676,42065 27695,41920 27701,41809 27692,41731 27683,41652 27631,41587 27538,41537 27354,41439 27194,41420 27060,41481 26927,41545 26771,41716 26593,41997 26412,42279 26143,42758 25782,43437 25589,43799 25488,44070 25478,44255 25469,44441 25596,44602 25863,44744 25964,44798 26048,44807 26114,44769 26183,44731 26271,44656 26382,44548 26493,44439 26597,44368 26689,44333 26780,44300 26899,44320 27039,44395 27522,44652 27452,45366 26829,46538 26546,47070 26303,47456 26097,47695 25893,47931 25721,48063 25581,48093 25439,48121 25294,48098 25143,48018 24979,47930 24894,47837 24882,47736 24872,47635 24881,47457 24905,47200 24932,46945 24912,46744 24848,46596 24748,46355 24444,45899 23943,45229 L 22715,43617 Z M 22715,43617 L 22715,43617 Z M 24896,41579 C 25064,41263 25097,41077 24994,41022 24869,40956 24471,40932 23798,40950 23545,40953 23342,40964 23189,40984 23033,41005 22926,41073 22865,41187 22819,41273 22832,41378 22901,41506 22970,41634 23051,41754 23143,41858 23233,41965 23328,42068 23425,42168 23476,42229 23542,42301 23613,42387 23686,42475 23765,42560 23844,42645 23924,42733 23987,42787 24028,42809 24102,42848 24165,42839 24218,42783 24273,42726 24342,42620 24423,42468 L 24896,41579 Z M 24896,41579 L 24896,41579 Z M 30636,37356 C 30559,37194 30529,37070 30551,36978 30572,36889 30623,36730 30710,36502 30796,36275 30833,36081 30821,35917 30805,35656 30668,35125 30410,34329 L 29775,32405 C 29596,31888 29452,31484 29340,31190 29226,30897 29085,30591 28914,30272 28742,29951 28544,29669 28318,29427 27976,29059 27799,28682 27788,28293 27778,27901 27981,27512 28397,27124 28777,26769 29233,26607 29765,26635 30297,26663 30910,26782 31599,26988 31755,27036 32237,27224 33048,27553 33858,27883 34680,28218 35507,28559 36336,28899 36945,29150 37334,29312 37486,29372 37671,29377 37890,29326 38108,29274 38301,29234 38465,29210 38631,29184 38804,29238 38988,29369 39335,29610 39652,29884 39939,30192 40175,30445 40294,30704 40301,30971 40306,31239 40188,31487 39945,31714 39699,31943 39473,32053 39270,32045 39066,32040 38779,31992 38408,31906 38036,31820 37773,31823 37616,31918 37210,32173 36393,32874 35162,34021 34054,35055 33378,35746 33137,36093 33047,36230 33014,36493 33043,36883 33069,37273 33071,37587 33045,37825 33019,38064 32892,38289 32663,38503 32482,38672 32268,38737 32022,38700 31775,38663 31567,38551 31392,38364 31023,37967 30771,37632 30636,37356 Z M 30636,37356 L 30636,37356 Z M 34356,31701 C 34003,31522 33589,31341 33118,31158 32645,30973 32346,30863 32217,30827 31979,30746 31782,30693 31630,30660 31475,30630 31352,30659 31259,30746 31157,30841 31133,31019 31183,31282 31236,31546 31296,31769 31369,31949 31425,32154 31513,32465 31632,32878 31752,33293 31878,33648 32013,33938 32052,34006 32079,34048 32095,34065 32176,34152 32273,34184 32388,34162 32503,34141 32614,34080 32726,33976 L 34378,32435 C 34488,32332 34557,32222 34583,32105 34613,31989 34585,31887 34505,31801 34470,31764 34420,31730 34356,31701 Z M 34356,31701 L 34356,31701 Z M 38014,22561 C 37922,22355 37808,22231 37673,22186 37538,22143 37358,22135 37136,22160 36914,22185 36745,22184 36625,22159 36508,22133 36411,22036 36336,21868 36237,21647 36261,21452 36408,21284 36555,21113 36751,20974 36996,20865 37099,20819 37252,20756 37454,20674 37658,20593 37811,20529 37916,20483 38430,20254 38915,20021 39370,19786 39827,19551 40237,19331 40602,19130 40967,18925 41171,18815 41212,18797 41646,18604 42083,18478 42520,18418 42959,18357 43385,18371 43797,18463 44210,18554 44584,18731 44915,18996 45246,19261 45510,19617 45708,20061 45906,20505 45998,20943 45981,21373 45965,21802 45858,22205 45660,22583 45463,22960 45195,23296 44856,23594 44517,23889 44133,24134 43703,24326 43578,24381 43389,24453 43140,24539 42892,24627 42714,24695 42609,24741 42476,24801 42439,24893 42497,25024 L 42815,25739 C 43022,26175 43207,26431 43371,26508 43536,26586 43740,26630 43983,26642 44227,26654 44388,26752 44469,26934 44620,27274 44468,27609 44014,27942 43561,28274 43062,28560 42518,28803 40959,29496 40061,29573 39821,29034 39754,28884 39743,28765 39786,28674 39829,28584 39910,28469 40029,28333 40149,28196 40225,28057 40255,27915 40288,27773 40254,27591 40153,27366 L 38014,22561 Z M 38014,22561 L 38014,22561 Z M 41046,20508 C 40833,20602 40714,20689 40691,20769 40667,20848 40688,20961 40754,21109 L 41574,22950 C 41636,23089 41695,23190 41756,23254 41815,23316 41893,23347 41988,23347 42084,23346 42211,23311 42368,23241 42749,23072 42977,22818 43052,22483 43125,22146 43072,21780 42893,21376 42778,21118 42626,20898 42438,20724 42252,20550 42038,20439 41800,20395 41560,20352 41310,20390 41046,20508 Z M 41046,20508 L 41046,20508 Z M 58558,22800 C 58573,23014 58611,23176 58671,23286 58732,23394 58851,23492 59030,23576 59202,23654 59326,23723 59400,23786 59472,23848 59515,23955 59526,24107 59545,24378 59403,24624 59099,24841 58797,25057 58070,25207 56925,25287 55384,25395 54594,25144 54552,24538 54534,24292 54622,24095 54818,23942 55012,23792 55157,23624 55254,23437 55352,23253 55378,22860 55336,22256 55326,22109 55317,21925 55311,21705 55305,21488 55299,21349 55295,21289 55275,21002 55194,20864 55053,20874 54999,20878 54933,20896 54852,20928 54693,21000 54446,21197 54116,21519 53783,21841 53489,22172 53230,22514 52973,22853 52848,23096 52858,23236 52875,23469 52908,23631 52962,23726 53016,23819 53093,23894 53191,23952 53290,24011 53364,24075 53416,24146 53468,24214 53502,24342 53515,24528 53561,25190 52806,25575 51247,25684 50666,25725 50102,25701 49557,25611 49011,25521 48725,25283 48697,24891 48681,24652 48811,24457 49087,24298 49250,24206 49359,24131 49418,24073 49477,24015 49525,23897 49564,23718 49601,23541 49618,23265 49616,22895 49613,22524 49586,21980 49536,21262 49470,20321 49415,19630 49373,19192 49331,18755 49287,18446 49241,18269 49195,18090 49145,17981 49090,17938 49033,17897 48916,17836 48738,17756 48585,17688 48470,17622 48392,17560 48313,17500 48269,17409 48261,17293 48229,16848 48539,16523 49188,16318 49837,16115 50498,15990 51173,15943 51672,15908 52152,15933 52621,16017 53087,16099 53332,16316 53356,16667 53369,16855 53339,16998 53263,17100 53189,17202 53058,17319 52872,17453 52743,17537 52656,17608 52610,17665 52565,17724 52534,17823 52523,17961 52510,18101 52514,18321 52536,18623 52550,18831 52562,19068 52572,19333 52581,19597 52588,19761 52592,19819 52604,19989 52635,20102 52683,20156 52730,20212 52830,20234 52982,20223 53115,20189 53322,20033 53608,19753 53894,19474 54172,19169 54443,18840 54712,18514 54879,18288 54942,18172 55013,18032 55045,17908 55038,17803 55031,17702 54992,17602 54920,17501 54872,17428 54788,17353 54671,17276 54555,17201 54467,17128 54413,17065 54359,16999 54325,16889 54314,16735 54300,16536 54333,16365 54408,16220 54486,16078 54692,15944 55030,15822 55367,15699 55887,15613 56594,15564 58204,15452 59031,15713 59075,16345 59095,16627 58971,16847 58706,17005 58541,17093 58428,17177 58371,17258 58311,17340 58275,17532 58262,17829 58249,18129 58266,18622 58314,19311 L 58558,22800 Z M 58558,22800 L 58558,22800 Z M 70425,25405 C 70370,25613 70353,25778 70373,25901 70396,26024 70477,26154 70619,26292 70756,26422 70851,26528 70900,26611 70948,26694 70954,26809 70915,26956 70845,27218 70630,27404 70272,27510 69916,27617 69180,27522 68072,27225 66580,26825 65914,26331 66071,25744 66125,25543 66210,25415 66332,25359 66451,25305 66586,25244 66735,25180 66883,25112 67037,24954 67192,24703 67348,24452 67503,24037 67660,23452 67720,23227 67742,23061 67723,22958 67704,22854 67648,22778 67553,22732 67459,22686 67287,22628 67035,22561 66479,22412 66092,22322 65879,22293 65666,22266 65514,22290 65425,22371 65334,22451 65254,22617 65186,22871 L 65060,23341 C 64924,23849 64881,24191 64935,24363 64986,24535 65084,24707 65228,24880 65370,25053 65413,25248 65354,25466 65249,25858 64907,26043 64330,26023 63751,26000 63167,25911 62574,25752 62011,25601 61486,25395 60999,25132 60513,24870 60319,24551 60421,24172 60483,23941 60670,23798 60983,23738 61166,23704 61294,23668 61369,23632 61443,23597 61527,23501 61622,23345 61715,23189 61820,22934 61940,22583 62057,22232 62209,21709 62395,21014 62640,20102 62812,19431 62915,19004 63018,18576 63077,18270 63091,18088 63106,17904 63093,17784 63056,17725 63015,17668 62925,17572 62782,17439 62660,17325 62573,17225 62519,17141 62464,17059 62452,16958 62482,16845 62597,16414 62996,16208 63676,16225 64355,16245 65021,16342 65675,16517 66158,16647 66604,16826 67020,17059 67434,17288 67595,17572 67503,17912 67455,18094 67379,18220 67274,18292 67171,18364 67009,18432 66789,18498 66653,18532 66548,18585 66472,18652 66397,18723 66324,18850 66249,19036 66176,19221 66088,19504 65986,19885 65913,20157 65914,20343 65987,20444 66062,20546 66210,20627 66437,20688 L 66777,20779 67438,20956 C 67702,21027 67899,21063 68026,21063 68154,21062 68241,21034 68282,20973 68326,20913 68369,20804 68412,20646 68580,20018 68655,19602 68636,19395 68614,19189 68555,19039 68450,18943 68303,18793 68201,18670 68149,18580 68095,18486 68087,18366 68127,18219 68169,18063 68255,17930 68388,17817 68519,17706 68786,17646 69188,17635 69590,17624 70168,17721 70924,17924 72483,18341 73180,18858 73016,19471 72943,19743 72754,19911 72451,19974 72267,20003 72133,20046 72052,20104 71969,20163 71873,20332 71764,20609 71654,20888 71509,21360 71330,22027 L 70425,25405 Z M 70425,25405 L 70425,25405 Z M 81030,23191 C 81348,23413 81601,23645 81795,23888 81988,24129 82171,24392 82346,24676 82522,24961 82643,25128 82711,25175 82798,25236 82895,25284 83004,25320 83112,25357 83198,25398 83261,25442 83422,25555 83530,25749 83586,26020 83642,26292 83623,26610 83526,26974 83429,27339 83245,27717 82976,28101 82748,28426 82465,28635 82123,28729 81783,28823 81455,28760 81141,28540 80893,28367 80756,28183 80735,27987 80710,27792 80708,27434 80728,26917 80746,26399 80692,25964 80559,25614 80427,25264 80140,24935 79698,24625 79435,24441 79163,24357 78880,24370 78599,24384 78339,24467 78102,24621 77865,24776 77669,24962 77515,25180 77226,25593 77009,26016 76862,26452 76717,26887 76649,27321 76663,27751 76674,28180 76773,28578 76965,28945 77155,29310 77438,29626 77815,29890 78223,30175 78580,30349 78885,30406 79190,30463 79482,30479 79761,30453 80043,30426 80222,30439 80299,30493 80446,30596 80513,30747 80502,30942 80493,31138 80432,31316 80318,31478 80203,31643 80008,31811 79736,31981 79465,32150 79182,32264 78893,32325 78606,32383 78377,32355 78208,32236 78118,32173 77881,32103 77494,32024 77108,31946 76743,31849 76398,31733 76054,31618 75692,31428 75314,31163 74559,30634 73985,29961 73594,29143 73202,28324 73036,27470 73092,26585 73148,25699 73431,24893 73936,24171 74320,23624 74801,23190 75382,22865 75962,22541 76586,22340 77256,22264 77926,22188 78586,22229 79242,22387 79894,22546 80492,22814 81030,23191 Z M 81030,23191 L 81030,23191 Z M 84617,37605 C 84880,36548 84956,35943 84848,35795 84690,35577 84411,35613 84012,35903 L 83784,36069 C 83668,36153 83593,36252 83557,36364 83523,36477 83502,36623 83490,36801 83481,36979 83456,37128 83419,37245 83380,37363 83301,37467 83183,37553 83047,37652 82892,37684 82718,37650 82547,37616 82313,37459 82020,37181 81727,36904 81364,36469 80935,35878 80364,35093 80044,34533 79972,34197 79901,33864 79974,33617 80191,33459 80318,33366 80423,33324 80510,33329 80596,33333 80711,33361 80857,33410 81000,33458 81148,33479 81297,33470 81448,33460 81632,33398 81857,33279 82361,33024 83029,32594 83860,31990 84328,31650 84723,31355 85044,31102 85363,30851 85651,30595 85905,30338 86091,30156 86208,29996 86252,29856 86300,29716 86316,29566 86305,29405 86293,29244 86300,29120 86324,29036 86350,28948 86433,28854 86577,28750 86787,28597 87074,28607 87437,28779 87800,28950 88329,29514 89022,30468 89345,30912 89582,31330 89732,31717 89883,32103 89798,32414 89477,32647 89331,32754 89151,32785 88939,32742 88729,32700 88533,32690 88355,32712 88174,32733 87900,32879 87532,33146 87227,33368 87125,33547 87225,33685 87291,33776 87485,33845 87807,33891 88130,33939 88461,33956 88803,33946 89144,33934 89354,33900 89434,33842 89514,33784 89589,33686 89661,33545 89730,33403 89805,33304 89883,33248 90202,33016 90543,33050 90905,33353 91267,33658 91653,34090 92064,34655 L 92230,34884 C 92984,35921 93121,36614 92644,36961 92383,37150 92175,37191 92014,37084 91854,36978 91653,36775 91415,36474 91174,36172 90972,36012 90805,35989 90607,35941 90369,35887 90090,35821 89813,35756 89536,35714 89261,35694 88984,35675 88778,35716 88640,35816 88517,35906 88430,36019 88379,36155 88331,36290 88269,36507 88195,36805 L 87244,40970 C 87215,41105 87223,41307 87267,41577 87309,41848 87320,42062 87301,42223 87281,42381 87170,42534 86972,42678 86573,42967 86137,42786 85664,42135 L 84318,40283 C 84209,40133 84141,40016 84112,39934 84083,39853 84078,39754 84098,39637 84120,39521 84171,39310 84253,39003 L 84617,37605 Z M 84617,37605 L 84617,37605 Z M 91287,52510 C 91080,52570 90930,52641 90835,52722 90742,52804 90671,52941 90626,53134 90586,53318 90543,53454 90498,53539 90452,53622 90356,53687 90209,53729 89949,53804 89678,53715 89403,53463 89129,53213 88831,52534 88515,51429 88089,49945 88170,49119 88753,48952 88991,48884 89202,48928 89392,49088 89580,49247 89774,49354 89976,49410 90177,49467 90567,49411 91149,49244 91291,49204 91469,49157 91682,49105 91894,49054 92029,49020 92087,49003 92363,48924 92481,48816 92442,48680 92427,48628 92396,48567 92347,48495 92244,48354 92000,48154 91616,47898 91232,47639 90847,47421 90459,47238 90074,47057 89811,46986 89675,47025 89451,47089 89300,47156 89218,47228 89138,47300 89080,47391 89044,47500 89007,47608 88960,47694 88901,47760 88845,47825 88727,47884 88548,47935 87911,48118 87377,47460 86946,45958 86785,45398 86691,44842 86666,44289 86640,43737 86814,43407 87191,43299 87421,43233 87640,43320 87853,43557 87976,43696 88073,43788 88142,43833 88211,43879 88336,43901 88518,43903 88700,43902 88973,43861 89335,43783 89697,43702 90224,43563 90915,43365 91823,43104 92487,42907 92906,42775 93325,42643 93618,42536 93782,42454 93947,42372 94043,42300 94074,42237 94102,42173 94138,42046 94179,41855 94214,41691 94254,41565 94299,41476 94341,41386 94421,41324 94533,41292 94962,41169 95344,41404 95679,41996 96012,42589 96272,43209 96459,43860 96596,44340 96672,44816 96687,45292 96704,45765 96543,46049 96204,46146 96023,46198 95877,46198 95761,46145 95646,46094 95504,45990 95334,45836 95226,45727 95138,45656 95073,45624 95006,45592 94902,45582 94765,45600 94626,45617 94411,45667 94120,45750 93920,45807 93690,45869 93434,45933 93177,45997 93018,46038 92962,46054 92798,46101 92695,46154 92651,46213 92607,46270 92606,46373 92648,46520 92709,46642 92904,46812 93238,47034 93570,47256 93926,47464 94304,47661 94680,47856 94935,47972 95062,48010 95214,48051 95341,48056 95443,48027 95540,47999 95630,47941 95713,47849 95775,47787 95831,47690 95882,47558 95931,47430 95984,47329 96035,47263 96088,47196 96189,47139 96337,47097 96529,47042 96703,47038 96860,47082 97016,47128 97189,47302 97379,47607 97569,47912 97761,48402 97956,49083 98401,50635 98318,51498 97708,51673 97436,51751 97195,51676 96986,51449 96866,51306 96760,51213 96669,51174 96576,51133 96381,51137 96087,51186 95791,51236 95312,51355 94649,51545 L 91287,52510 Z"/>
         </g>
        </g>
        <g class="com.sun.star.drawing.ClosedBezierShape">
         <g id="id19">
          <rect class="BoundingBox" stroke="none" fill="none" x="88465" y="54669" width="10069" height="9525"/>
          <path fill="rgb(255,255,255)" stroke="none" d="M 98207,60762 C 98170,61290 98159,61705 98177,62005 98194,62302 98222,62545 98261,62727 98300,62910 98319,63017 98317,63046 98301,63281 98177,63472 97944,63622 97712,63770 97444,63875 97136,63934 96828,63996 96562,64018 96336,64002 96074,63983 95851,63910 95667,63782 95485,63657 95401,63474 95418,63236 95433,63013 95519,62850 95672,62744 95828,62640 95992,62535 96167,62430 96341,62326 96496,62134 96634,61861 96770,61585 96858,61157 96899,60574 96929,60149 96921,59843 96878,59658 96835,59473 96738,59348 96592,59284 96443,59222 96199,59178 95851,59153 L 95180,59106 C 94896,59087 94705,59089 94602,59113 94502,59135 94435,59200 94398,59306 94364,59411 94336,59612 94315,59910 94299,60136 94351,60294 94473,60382 94595,60469 94777,60540 95022,60595 95268,60648 95448,60715 95566,60793 95684,60869 95735,61014 95720,61222 95697,61559 95462,61765 95014,61842 94566,61921 94101,61942 93623,61909 93350,61890 93052,61846 92728,61779 92405,61711 92118,61601 91873,61451 91625,61299 91511,61103 91527,60861 91540,60682 91595,60571 91692,60533 91791,60495 91967,60463 92220,60433 92472,60404 92665,60334 92799,60224 92930,60112 93008,59906 93029,59602 93046,59359 92974,59202 92815,59128 92656,59054 92428,59006 92128,58985 91509,58942 91073,58936 90825,58968 90576,59000 90412,59090 90336,59240 90261,59389 90208,59665 90180,60066 L 90156,60399 C 90113,61023 90165,61503 90315,61835 90462,62169 90656,62416 90892,62574 91129,62734 91350,62889 91551,63038 91754,63185 91846,63373 91830,63604 91816,63803 91716,63953 91529,64057 91342,64160 91141,64205 90927,64190 90625,64169 90277,64075 89884,63913 89491,63748 89154,63556 88870,63336 88589,63116 88455,62920 88466,62750 88467,62742 88505,62549 88581,62170 88657,61793 88708,61417 88734,61043 L 89119,55528 C 89161,54928 89375,54645 89759,54671 89954,54685 90101,54803 90204,55028 90305,55255 90406,55422 90503,55535 90601,55645 90854,55730 91260,55785 92484,55954 93268,56049 93613,56073 93613,56073 94371,56097 95886,56149 96297,56162 96599,56127 96791,56039 96982,55954 97115,55851 97190,55732 97266,55616 97353,55496 97451,55375 97550,55254 97702,55200 97908,55214 98373,55246 98578,55647 98525,56417 98520,56477 98512,56562 98500,56671 98488,56780 98481,56854 98478,56897 L 98207,60762 Z"/>
         </g>
        </g>
       </g>
       <g class="com.sun.star.drawing.ClosedBezierShape">
        <g id="id20">
         <rect class="BoundingBox" stroke="none" fill="none" x="9500" y="9455" width="95002" height="70548"/>
         <path fill="rgb(255,255,255)" stroke="none" d="M 57001,9455 C 83230,9455 104501,30725 104501,56956 104501,65319 102335,73176 98539,80002 L 15461,80002 C 11665,73176 9500,65319 9500,56956 9500,30725 30770,9455 57001,9455 Z M 57001,9455 L 57001,9455 Z M 63459,60992 L 63756,61706 C 65470,61829 69877,57837 69402,55997 68899,57786 64919,61000 63459,60992 Z M 63459,60992 L 63459,60992 Z M 51254,75462 C 42433,73342 36753,66479 34999,59798 36592,61101 38247,61162 40076,60646 38022,60786 34443,58113 34231,56073 34019,54041 33982,52119 34402,50112 35428,52453 37270,53904 39410,54826 37452,53773 34555,48701 35238,46512 35850,44551 36703,42850 38072,40898 38184,44401 39348,47186 40965,50001 39410,46639 39249,42077 39341,39127 41955,36047 45118,33869 48555,32478 49677,32024 49588,32777 49318,33034 49212,33135 49051,33248 49051,33248 45212,35766 42631,40096 42545,45287 42545,49486 44990,55237 49216,57036 49249,57050 49290,57053 49316,57078 49707,57461 49330,59423 49113,59972 47635,59641 44457,57121 44036,55623 43623,58450 48768,60736 48717,60872 46637,65170 47163,72291 51307,75406 51425,75496 51331,75481 51254,75462 Z M 51254,75462 L 51254,75462 Z M 63095,58021 L 64345,57376 C 68656,54795 71586,50775 71586,45287 71499,40008 68831,35620 64884,33122 63493,32242 64979,32206 65926,32619 68861,33897 71615,35697 73963,38201 76176,40559 74388,47360 73166,50001 74784,47186 75947,44401 76059,40898 77429,42850 78281,44551 78893,46512 79809,49447 77344,53416 74722,54826 76862,53904 78703,52453 79730,50112 80173,52235 80107,54263 79863,56426 79608,58680 76284,60797 74056,60646 75885,61162 77540,61101 79133,59798 77365,66532 71495,73451 62518,75512 63778,76099 65099,76604 66495,76948 66768,77015 66857,77252 66827,77463 L 95573,77463 C 98846,71341 100702,64349 100702,56924 100702,32827 81162,13287 57066,13287 32970,13287 13429,32827 13429,56924 13429,64349 15286,71341 18559,77463 L 47304,77463 C 47275,77252 47363,77015 47637,76948 49031,76605 50687,76115 52004,75513 52166,75440 52109,75335 51998,75234 48120,71684 47609,65163 49189,61250 49598,60406 49924,59328 49905,58185 49898,57707 49749,57349 49686,56906 49143,53111 59265,48000 58667,43268 59252,43113 59712,42677 59705,41815 59696,40785 58762,40264 57831,40016 57872,39813 57911,39624 57910,39462 57906,39048 57485,38944 57254,39266 57149,39412 57084,39630 57003,39858 56907,39847 56816,39838 56730,39831 56507,39814 56283,39813 56061,39829 56294,39201 56757,38429 56687,37744 L 56320,37831 C 56371,38330 56014,38986 55824,39440 55441,40352 55357,41076 55247,42030 L 50656,40614 C 50541,40578 50522,40577 50469,40463 50390,40294 50363,40098 50515,40064 51053,39944 54793,39098 55205,38480 55481,38032 55711,37691 56320,37831 58047,37291 61900,38307 62389,39953 62470,40229 62528,40566 62579,40851 63510,46102 56443,60184 63095,58021 Z M 63095,58021 L 63095,58021 Z M 63459,60992 L 63756,61706 C 65470,61829 69877,57837 69402,55997 68899,57786 64919,61000 63459,60992 Z M 63459,60992 L 63459,60992 Z M 55900,40227 C 55794,40620 55730,41005 55679,41411 L 55597,42197 C 56238,42435 56852,42646 57369,42794 58007,42976 59035,42960 59026,41815 59016,40595 57412,40282 56614,40214 56376,40194 56137,40197 55900,40227 Z"/>
        </g>
       </g>
       <g class="com.sun.star.drawing.ClosedBezierShape">
        <g id="id21">
         <rect class="BoundingBox" stroke="none" fill="none" x="32297" y="97705" width="49125" height="6841"/>
         <path fill="rgb(255,255,255)" stroke="none" d="M 81421,97706 C 74254,102046 65847,104545 56859,104545 47871,104545 39465,102046 32298,97706 L 81421,97706 Z"/>
        </g>
       </g>
      </g>
     </g>
    </g>
   </g>
  </g>
 </g>
</svg>