<?xml version="1.0" encoding="utf-8"?>
<!-- Generator: Adobe Illustrator 23.1.0, SVG Export Plug-In . SVG Version: 6.00 Build 0)  -->
<svg version="1.1"
	 id="Слой_1" xmlns:anim="urn:oasis:names:tc:opendocument:xmlns:animation:1.0" xmlns:ooo="http://xml.openoffice.org/svg/export" xmlns:presentation="http://sun.com/xmlns/staroffice/presentation" xmlns:smil="http://www.w3.org/2001/SMIL20/"
	 xmlns="http://www.w3.org/2000/svg" xmlns:xlink="http://www.w3.org/1999/xlink" x="0px" y="0px" viewBox="0 0 3231.5 3231.5"
	 style="enable-background:new 0 0 3231.5 3231.5;" xml:space="preserve">
<style type="text/css">
	.st0{fill:none;}
	.st1{fill-rule:evenodd;clip-rule:evenodd;fill:#FFFFFF;}
</style>
<g id="id2">
	<g id="bg-id2">
	</g>
	<g id="bo-id2">
	</g>
</g>
<rect class="st0" width="3231.5" height="3231.5"/>
<g>
	<g>
		<g id="id4">
			<rect x="661.7" y="2334.5" class="st0" width="1915" height="244.1"/>
			<path class="st1" d="M777.8,2374.8c-3,1.7-5.2,3.6-6.6,5.8c-1.3,2.1-2.3,5.6-2.9,10.5c-0.5,4.9-0.8,12.2-0.8,22v88.8
				c0,13,1.2,21.4,3.5,25.2c2.4,3.8,5.8,7.3,10.3,10.5c4.5,3.2,6.8,7.7,6.8,13.2c0,10-7,16.7-20.9,19.9c-14,3.2-28.6,4.8-43.8,4.8
				c-14.4,0-28.3-1.6-41.7-4.7c-13.3-3.2-20-9.6-20-19.3c0-6,3.5-10.6,10.7-14c4.2-2,7-3.7,8.6-5c1.6-1.3,2.9-4.2,4.2-8.5
				c1.2-4.3,2.1-11.1,2.7-20.3c0.5-9.2,0.8-22.6,0.8-40.5c0-23.4-0.2-40.6-0.4-51.5c-0.3-10.9-0.9-18.6-1.7-23
				c-0.9-4.5-1.9-7.3-3.2-8.4c-1.3-1.1-4.1-2.8-8.4-5.1c-3.7-1.9-6.4-3.8-8.2-5.4c-1.8-1.6-2.8-3.9-2.8-6.8
				c0-11.1,8.2-18.6,24.6-22.5c16.4-3.9,33-5.8,49.7-5.8c1.8,0,11.2,0.4,28,1.1c16.8,0.8,30.3,1.2,40.6,1.2c8.4,0,19.1-0.4,32.2-1.2
				c13-0.7,24.3-1.1,33.8-1.1c40,0,60,7.9,60,23.6c0,7-3.4,12.2-10.3,15.6c-4.2,1.9-7.2,3.8-8.7,5.7c-1.6,2-2.8,6.6-3.7,13.9
				c-0.8,7.4-1.3,19.6-1.3,36.7v86.7c0,5.3,0.7,9.4,2,12.2c1.3,2.8,4.1,5.4,8.4,7.8c4.1,2.2,7.1,4.2,8.8,5.8
				c1.6,1.7,2.6,4.4,2.6,8.2c0,6.7-3.9,12.6-11.8,17.4c-7.8,4.8-26.1,7.3-54.5,7.3c-38.3,0-57.4-7.6-57.4-22.6
				c0-5.2,1.2-8.8,3.8-10.9c2.5-2.1,5.3-4.4,8.5-6.9c3.1-2.6,5.8-7.3,7.9-14.3c2.1-7,3.2-18,3.2-32.9v-72.1
				c0-16.1-0.9-26.6-2.7-31.4c-1.8-4.8-4.2-8-7.3-9.7c-1.2-0.9-8.2-1.3-21.3-1.3C786.3,2373.5,779.2,2373.9,777.8,2374.8z
				 M777.8,2374.8L777.8,2374.8z M973.4,2388.8c0-5.6-1.3-9.6-3.9-12c-2.6-2.3-6.6-4.3-11.9-6c-5.3-1.6-9.1-3.4-11.6-5.2
				c-2.4-1.8-3.6-4.9-3.6-9.5c0-6,2.5-10.2,7.5-12.5c5.1-2.4,10.9-3.6,17.6-3.6c2.8,0,6.9,0.1,12.3,0.3c5.4,0.2,9.6,0.3,12.4,0.3
				c13.9,0,27.3-0.4,39.9-1.1c12.7-0.7,24.2-1.6,34.5-2.4c10.3-1,16-1.4,17.1-1.4c11.8,0,23,1.5,33.4,4.6
				c10.6,3.1,20.1,7.7,28.5,13.9c8.4,6.2,15.1,14,20,23.4c4.8,9.3,7.2,20,7.2,32.1c0,12-2.3,22.9-7,32.4
				c-4.7,9.6-11.2,17.7-19.5,24.2c-8.3,6.5-17.7,11.5-28.4,14.8c-10.7,3.3-21.9,5-33.5,5c-3.4,0-8.4-0.3-14.9-0.9
				c-6.5-0.5-11.2-0.8-14-0.8c-3.6,0-5.4,1.7-5.4,5.3v19.4c0.3,12,1.9,19.6,4.8,23c2.9,3.4,7.1,6.5,12.5,9.2
				c5.4,2.7,8.1,6.6,8.1,11.5c0,9.2-6.8,15.3-20.4,18.2c-13.6,2.9-27.8,4.4-42.6,4.4c-42.3,0-63.4-7.3-63.4-21.9
				c0-4.1,0.9-6.9,2.8-8.5c1.9-1.6,4.9-3.4,8.9-5.3c4.1-1.9,7.2-4.3,9.4-7.1c2.2-2.9,3.2-7.3,3.2-13.5V2388.8z M973.4,2388.8
				L973.4,2388.8z M1062.8,2372.8c-5.8,0-9.3,0.8-10.7,2.3s-2,4.3-2,8.3v50c0,3.8,0.3,6.7,1.1,8.7c0.7,2,2.2,3.5,4.3,4.5
				c2.2,0.9,5.4,1.4,9.7,1.4c10.3,0,18.1-3.4,23.1-10.3c5-6.9,7.6-15.7,7.6-26.6c0-7-1.2-13.5-3.7-19.4c-2.4-5.8-6.2-10.5-11.1-13.9
				C1076,2374.5,1069.9,2372.8,1062.8,2372.8z M1062.8,2372.8L1062.8,2372.8z M1419.6,2502.5c0,12.5,1.5,20.9,4.6,25.3
				c3,4.4,7.2,8.3,12.5,11.7c5.3,3.4,7.9,7.3,7.9,11.6c0,16.2-21.1,24.3-63.4,24.3c-17.2,0-30.3-0.9-39.4-2.7
				c-9-1.7-15.2-4.1-18.3-7.1c-3.1-2.9-4.7-6.7-4.7-11.3c0-3.6,0.8-6.3,2.2-8.2c1.4-1.8,3.7-3.6,6.8-5.4c3-1.8,5.4-3.6,7.2-5.4
				c1.7-1.7,2.9-4.3,3.5-7.7c1.6-8.5,2.3-19.3,2.3-32.3c0-6.7-0.3-11.7-0.9-14.8c-0.6-3.2-1.6-5.1-2.9-6c-1.3-0.8-3.3-1.2-6.1-1.2
				c-8.2,0-14.3,2.7-18.2,8c-4,5.3-7.1,12.7-9.4,22.3c-3.2,13.9-6.1,24.9-8.7,33c-2.6,8-6.2,15.2-10.9,21.6
				c-4.6,6.4-11.1,11.4-19.3,14.9c-8.2,3.5-18.7,5.2-31.4,5.2c-17.5,0-30.7-2.6-39.6-7.7c-8.9-5.2-13.4-11.3-13.4-18.4
				c0-4.4,0.9-7.2,2.6-8.5c1.6-1.4,4.5-2.6,8.6-3.7c4-1.1,7.2-3.1,9.6-5.8c2.4-2.8,4.1-7.6,4.9-14.5c2.3-17.9,6.3-31.3,12.1-40.2
				c5.7-8.8,14.5-15.4,26.2-19.8c3.1-1.4,5.3-2.5,6.5-3.5c1.2-0.9,1.8-2.4,1.8-4.6c0-2.4-1.8-4.6-5.4-6.6
				c-9-4.5-15.9-11.1-20.9-19.8c-4.9-8.7-7.4-18.3-7.4-28.5c0-13.9,4-25.5,11.9-34.6c8-9.2,18.1-15.9,30.6-20.1
				c12.5-4.2,25.5-6.3,38.9-6.3c8.1,0,19.2,0.4,33.2,1.2c13.9,0.8,24.5,1.2,31.5,1.2c4.6,0,11.2-0.4,20.1-1.2
				c8.8-0.8,15.8-1.2,20.9-1.2c10,0,19,1.4,27.2,4.3c8.1,2.8,12.2,8.4,12.2,16.4c0,4.4-1.4,7.5-4.3,9.2c-2.8,1.8-5.9,3.6-9.2,5.6
				c-3.3,2-6.1,5.6-8.4,10.9c-2.3,5.4-3.4,13.8-3.4,25.3V2502.5z M1419.6,2502.5L1419.6,2502.5z M1340.8,2390.5
				c-0.5-6.8-1.3-11.5-2.5-14.1c-1.3-2.6-4.7-3.9-10.2-3.9c-15.6,0-23.3,11-23.3,33c0,10.8,2.2,18.9,6.5,24.4
				c4.3,5.5,11.7,8.3,22.1,8.3c3.6,0,5.9-0.7,7-2.2c1.2-1.4,1.8-3.6,2.1-6.5c0-3-0.2-5.5-0.5-7.3L1340.8,2390.5z M1340.8,2390.5
				L1340.8,2390.5z M1701.6,2516.8c0,5.3,0.7,9.4,1.9,12.2c1.3,2.8,4.1,5.4,8.4,7.8c4.1,2.2,7.1,4.2,8.8,5.8
				c1.7,1.7,2.6,4.4,2.6,8.2c0,6.7-3.9,12.6-11.8,17.4c-7.9,4.8-26.1,7.3-54.5,7.3c-38.3,0-57.4-7.6-57.4-22.6
				c0-5.2,1.2-8.8,3.8-10.9c2.5-2.1,5.3-4.4,8.5-6.9c3.1-2.6,5.8-7.3,7.9-14.3c2.1-7,3.2-17.9,3.2-32.9c0-5.8-0.5-9.9-1.7-12.2
				c-1.1-2.4-2.9-3.8-5.5-4.3c-2.6-0.5-7.1-0.8-13.5-0.8c-14.3,0-24.1,0.3-29.4,1c-5.3,0.7-8.8,2.3-10.4,4.8
				c-1.6,2.5-2.5,7-2.5,13.5v12.1c0,13,1.2,21.5,3.6,25.3c2.3,3.8,5.8,7.3,10.3,10.5c4.5,3.2,6.8,7.6,6.8,13.2
				c0,10-7,16.7-20.9,19.9c-14,3.2-28.5,4.8-43.8,4.8c-14.5,0-28.3-1.6-41.7-4.7c-13.4-3.2-20-9.6-20-19.3c0-6,3.5-10.5,10.7-14
				c4.2-2,7-3.7,8.6-5c1.6-1.3,2.9-4.2,4.2-8.5c1.2-4.3,2.1-11.1,2.7-20.3c0.6-9.2,0.9-22.6,0.9-40.5c0-23.4-0.2-40.6-0.5-51.5
				s-0.8-18.6-1.7-23c-0.8-4.5-1.9-7.3-3.2-8.4c-1.3-1.1-4.1-2.8-8.4-5.1c-3.7-1.9-6.4-3.8-8.2-5.4c-1.8-1.6-2.8-3.9-2.8-6.8
				c0-11.1,8.2-18.6,24.6-22.5c16.4-3.9,32.9-5.8,49.7-5.8c12.4,0,24.2,1.4,35.7,4.3c11.4,2.8,17.1,8.6,17.1,17.3
				c0,4.7-1,8.2-3.1,10.5c-2,2.4-5.4,5.1-10.3,8.1c-3.1,1.6-5.2,3.6-6.6,5.7c-1.3,2.2-2.3,5.6-2.9,10.6c-0.6,4.9-0.9,12.2-0.9,22
				c0,7,1.2,11.5,3.6,13.4c2.4,1.9,6.5,2.9,12.3,2.9h8.7h16.9c6.8,0,11.7-0.4,14.8-1.2c3.1-0.8,4.9-2,5.6-3.8c0.7-1.7,1-4.6,1-8.7
				c0-16.1-0.9-26.6-2.7-31.4c-1.8-4.8-4.2-8-7.3-9.6c-4.5-2.7-7.7-5-9.6-6.8c-1.9-1.9-2.8-4.7-2.8-8.5c0-4,1.2-7.7,3.7-11.3
				c2.4-3.5,8.4-6.7,18-9.5c9.6-2.8,24-4.2,43.4-4.2c40,0,60,7.9,60,23.6c0,7-3.5,12.2-10.3,15.6c-4.2,1.9-7.2,3.8-8.7,5.7
				c-1.6,2-2.8,6.6-3.7,13.9c-0.9,7.4-1.3,19.6-1.3,36.7V2516.8z M1701.6,2516.8L1701.6,2516.8z M1982.4,2516.8
				c0,5.3,0.7,9.4,1.9,12.2c1.3,2.8,4.1,5.4,8.4,7.8c4.1,2.2,7.1,4.2,8.8,5.8c1.7,1.7,2.6,4.4,2.6,8.2c0,6.7-3.9,12.6-11.8,17.4
				c-7.9,4.8-26.1,7.3-54.5,7.3c-38.3,0-57.4-7.6-57.4-22.6c0-6.1,2.5-10.8,7.6-14.3c5.1-3.4,9-7.3,11.7-11.7
				c2.7-4.4,4.1-14.1,4.1-29.1c0-3.7,0.1-8.2,0.3-13.7c0.2-5.4,0.3-8.8,0.3-10.3c0-7.1-1.8-10.7-5.3-10.7c-1.3,0-3,0.3-5,1
				c-4.1,1.5-10.5,5.9-19.2,13.3c-8.8,7.4-16.6,15.1-23.6,23.1c-6.9,7.9-10.5,13.7-10.5,17.2c0,5.8,0.6,9.8,1.7,12.3
				c1.2,2.4,2.9,4.4,5.3,6c2.4,1.6,4.1,3.3,5.2,5.2c1.2,1.8,1.8,5,1.8,9.6c0,16.4-19.3,24.7-58.1,24.7c-14.5,0-28.3-1.6-41.7-4.7
				c-13.4-3.2-20-9.6-20-19.3c0-6,3.5-10.5,10.7-14c4.2-2,7-3.7,8.6-5c1.6-1.3,2.9-4.2,4.2-8.5c1.2-4.3,2.1-11.1,2.7-20.3
				c0.6-9.2,0.9-22.6,0.9-40.5c0-23.4-0.2-40.6-0.5-51.5s-0.8-18.6-1.7-23c-0.8-4.5-1.9-7.3-3.2-8.4c-1.3-1.1-4.1-2.8-8.4-5.1
				c-3.7-1.9-6.4-3.8-8.2-5.4c-1.8-1.6-2.8-3.9-2.8-6.8c0-11.1,8.2-18.6,24.6-22.5c16.4-3.9,32.9-5.8,49.7-5.8
				c12.4,0,24.2,1.4,35.7,4.3c11.4,2.8,17.1,8.6,17.1,17.3c0,4.7-1,8.2-3.1,10.5c-2,2.4-5.4,5.1-10.3,8.1c-3.3,1.8-5.6,3.4-6.8,4.8
				c-1.2,1.4-2.2,3.8-2.7,7.2c-0.6,3.5-0.9,8.9-0.9,16.4c0,5.2-0.1,11.1-0.3,17.6c-0.2,6.5-0.3,10.6-0.3,12c0,4.2,0.5,7.1,1.6,8.5
				c1.1,1.4,3.5,2.2,7.3,2.2c3.3-0.6,8.7-4.1,16.3-10.5c7.5-6.4,14.9-13.4,22.2-21.1c7.2-7.6,11.7-12.9,13.5-15.7c2-3.3,3-6.3,3-8.9
				c0-2.5-0.8-5.1-2.4-7.7c-1.1-1.9-3-3.9-5.8-6c-2.7-2.1-4.8-4-6-5.7c-1.2-1.7-1.9-4.5-1.9-8.3c0-5,1.1-9.1,3.2-12.6
				c2.2-3.4,7.5-6.3,16.1-8.8c8.5-2.4,21.5-3.7,39.1-3.7c40,0,60,7.9,60,23.6c0,7-3.5,12.2-10.3,15.6c-4.2,1.9-7.2,3.8-8.7,5.7
				c-1.6,2-2.8,6.6-3.7,13.9c-0.9,7.4-1.3,19.6-1.3,36.7V2516.8z M1982.4,2516.8L1982.4,2516.8z M2164.6,2526.8
				c-17.4-20.7-28.4-31-32.9-31c-6.7,0-10,6.1-10,18.3v7c0,3.5,0.9,6.5,2.6,8.8c1.8,2.4,4.4,4.9,7.8,7.7c3.4,2.8,6,5.4,7.9,7.9
				c1.8,2.5,2.7,5.6,2.7,9.2c0,4.2-1.6,7.7-4.8,10.7c-3.1,2.9-9.7,5.3-19.6,7.2s-23.9,2.8-42,2.8c-24,0-39.9-1.7-47.7-5.2
				c-7.7-3.5-11.6-8.5-11.6-15.2c0-3.9,0.7-6.6,2.1-8.3c1.3-1.6,3.5-3.5,6.7-5.8c3.1-2.2,5.6-4.8,7.6-8c2-3.2,3.5-7.8,4.3-14
				c2.2-13.8,3.3-33.5,3.3-59c0-14.3-0.2-26.6-0.6-36.7c-0.4-10.1-1.3-19.6-2.8-28.4c-0.9-6.4-2.4-11.1-4.6-14
				c-2.1-3-4.9-5.5-8.3-7.6c-3.4-2.1-5.8-4.1-7.1-5.8c-1.4-1.8-2.1-4.8-2.1-9.2c0-6.4,4.4-12,13.1-16.8c8.7-4.8,27.7-7.1,56.9-7.1
				c13.6,0,25.5,1.3,35.4,3.9c9.9,2.6,15,8.8,15,18.7c0,4.5-2,8.6-6,12.2c-3.9,3.6-6.9,7.4-9.1,11.3c-2.2,3.9-3.3,11.5-3.3,22.8
				c0,9.3,2.1,14,6.3,14c2.8,0,7-2.9,12.6-8.7c5.7-5.8,10.9-12.2,15.6-19.2c4.7-7,7.1-11.7,7.1-14.2c0-2.4-0.9-5.4-2.7-8.9
				c-1.8-3.5-2.7-6.4-2.7-8.8c0-9.8,5.7-16.1,17-19c11.4-2.8,25.7-4.3,43-4.3h7c31.8,0,47.7,7.3,47.7,21.9c0,8-2.2,12.8-6.7,14.4
				c-4.5,1.7-11.5,2.7-20.9,3.1c-9.6,0.5-15.7,2.2-18.6,5.2c-3.8,3.3-8.4,7.3-13.8,11.9c-5.3,4.6-10.2,9.6-14.6,14.8
				c-4.5,5.3-6.6,10-6.6,14.2c0,3.8,1,7.2,3,10.2c2,2.9,5.4,7.3,10.3,13.2l69.7,79.7c2.3,2.6,6.4,5.4,12.5,8.4
				c6,3.1,10.5,6,13.4,8.7c2.9,2.7,4.3,7.2,4.3,13.2c0,12.2-10,18.3-30,18.3h-56.7c-4.6,0-7.9-0.3-10-0.9c-2-0.6-4.1-1.9-6.2-4.1
				c-2-2.1-5.5-6.2-10.5-12.3L2164.6,2526.8z M2164.6,2526.8L2164.6,2526.8z M2552.7,2516.8c0,5.3,0.7,9.4,2,12.2
				c1.3,2.8,4.1,5.4,8.4,7.8c4.1,2.2,7.1,4.2,8.8,5.8c1.6,1.7,2.6,4.4,2.6,8.2c0,6.7-3.9,12.6-11.8,17.4c-7.8,4.8-26.1,7.3-54.5,7.3
				c-38.3,0-57.4-7.6-57.4-22.6c0-6.1,2.5-10.8,7.6-14.3c5-3.4,8.9-7.3,11.7-11.7c2.7-4.4,4.1-14.1,4.1-29.1c0-3.7,0.1-8.2,0.3-13.7
				c0.2-5.4,0.3-8.8,0.3-10.3c0-7.1-1.8-10.7-5.3-10.7c-1.3,0-3,0.3-5,1c-4.1,1.5-10.5,5.9-19.2,13.3c-8.8,7.4-16.6,15.1-23.6,23.1
				c-6.9,7.9-10.4,13.7-10.4,17.2c0,5.8,0.5,9.8,1.7,12.3c1.2,2.4,2.9,4.4,5.3,6c2.3,1.6,4.1,3.3,5.2,5.2c1.2,1.8,1.8,5,1.8,9.6
				c0,16.4-19.3,24.7-58.1,24.7c-14.4,0-28.3-1.6-41.7-4.7c-13.3-3.2-20-9.6-20-19.3c0-6,3.6-10.5,10.7-14c4.2-2,7-3.7,8.6-5
				c1.6-1.3,2.9-4.2,4.2-8.5c1.2-4.3,2.1-11.1,2.7-20.3c0.5-9.2,0.8-22.6,0.8-40.5c0-23.4-0.2-40.6-0.5-51.5
				c-0.3-10.9-0.8-18.6-1.6-23c-0.9-4.5-1.9-7.3-3.2-8.4c-1.3-1.1-4.1-2.8-8.4-5.1c-3.7-1.9-6.4-3.8-8.2-5.4
				c-1.8-1.6-2.8-3.9-2.8-6.8c0-11.1,8.2-18.6,24.6-22.5c16.4-3.9,33-5.8,49.7-5.8c12.4,0,24.2,1.4,35.7,4.3
				c11.4,2.8,17.1,8.6,17.1,17.3c0,4.7-1,8.2-3.1,10.5c-2,2.4-5.4,5.1-10.3,8.1c-3.3,1.8-5.6,3.4-6.8,4.8c-1.2,1.4-2.2,3.8-2.7,7.2
				c-0.5,3.5-0.8,8.9-0.8,16.4c0,5.2-0.1,11.1-0.3,17.6c-0.2,6.5-0.3,10.6-0.3,12c0,4.2,0.6,7.1,1.7,8.5c1,1.4,3.5,2.2,7.3,2.2
				c3.3-0.6,8.7-4.1,16.3-10.5c7.6-6.4,14.9-13.4,22.2-21.1c7.2-7.6,11.7-12.9,13.5-15.7c2-3.3,3-6.3,3-8.9c0-2.5-0.8-5.1-2.4-7.7
				c-1-1.9-3-3.9-5.8-6c-2.7-2.1-4.8-4-6-5.7c-1.2-1.7-1.9-4.5-1.9-8.3c0-5,1.1-9.1,3.2-12.6c2.2-3.4,7.5-6.3,16-8.8
				c8.6-2.4,21.6-3.7,39.1-3.7c40,0,60,7.9,60,23.6c0,7-3.4,12.2-10.3,15.6c-4.2,1.9-7.1,3.8-8.7,5.7c-1.6,2-2.8,6.6-3.7,13.9
				c-0.8,7.4-1.3,19.6-1.3,36.7V2516.8z"/>
		</g>
	</g>
	<g>
		<g id="id5">
			<rect x="504.7" y="2379.2" class="st0" width="2221" height="130.4"/>
			<path class="st1" d="M2725.7,2379.2c-30.4,44.3-63.4,86.6-98.8,126.9v-126.9H2725.7z M2725.7,2379.2L2725.7,2379.2z
				 M606.5,2509.5c-36.5-41.3-70.5-84.8-101.8-130.4h101.8V2509.5z"/>
		</g>
	</g>
	<g>
		<g id="id6">
			<rect x="748.7" y="2652.9" class="st0" width="1733.2" height="54.8"/>
			<path class="st1" d="M2481.9,2652.9c-22.6,19-45.7,37.3-69.5,54.8H818.2c-23.8-17.5-47-35.8-69.5-54.8H2481.9z"/>
		</g>
	</g>
	<g>
		<g id="id7">
			<rect x="536.3" y="1933.4" class="st0" width="164.2" height="164.1"/>
			<path class="st1" d="M618.4,1933.4L618.4,1933.4c15.1,0,27.9,3.4,41,11c13.1,7.5,22.5,17,30,30c7.6,13.1,11,25.9,11,41v0l0,0
				c0,15.1-3.4,27.9-11,41c-7.5,13.1-17,22.5-30,30c-13.1,7.6-25.9,11-41,11c-15.1,0-27.9-3.4-41-11c-13.1-7.5-22.5-17-30-30
				c-7.6-13.1-11-25.9-11-41c0-15.1,3.4-27.9,11-41c7.5-13.1,17-22.5,30-30C590.5,1936.8,603.3,1933.4,618.4,1933.4L618.4,1933.4z"
				/>
		</g>
	</g>
	<g>
		<g id="id8">
			<rect x="2519.4" y="1935.4" class="st0" width="164.1" height="164.1"/>
			<path class="st1" d="M2601.4,1935.4L2601.4,1935.4c15.1,0,27.9,3.4,41,11c13.1,7.5,22.5,17,30,30c7.6,13.1,11,25.9,11,41v0l0,0
				c0,15.1-3.4,27.9-11,41c-7.5,13.1-17,22.5-30,30c-13.1,7.6-25.9,11-41,11c-15.1,0-27.9-3.4-41-11c-13.1-7.5-22.5-17-30-30
				c-7.6-13.1-11-25.9-11-41c0-15.1,3.4-27.9,11-41c7.5-13.1,17-22.5,30-30C2573.5,1938.8,2586.3,1935.4,2601.4,1935.4
				L2601.4,1935.4z"/>
		</g>
	</g>
	<g>
		<g>
			<g id="id9">
				<rect x="442.5" y="440.5" class="st0" width="2342.3" height="1379.9"/>
				<path class="st1" d="M718.5,1601.7c-0.7,19.2-1,34.3-0.9,45.2c0,10.9,0.1,28.2,0.3,52c0.1,23.7,0,41.3-0.4,52.8
					c-0.6,16.4-2.9,32-7,46.9c-4.1,14.9-11.7,22.2-22.9,21.8c-7.1-0.3-12.3-4.2-15.6-11.9c-2.1-4.8-3.9-8.2-5.4-10
					c-1.4-1.8-4.6-3.5-9.5-5.2c-4.9-1.6-12.6-2.8-23.1-3.9c-10.5-1-25.9-1.8-46.3-2.6c-26.8-0.9-46.4-1.4-58.8-1.5
					c-12.4-0.1-21.3,0.2-26.4,1c-5.2,0.8-8.4,1.9-9.8,3.3c-1.3,1.5-3.4,4.6-6.2,9.4c-2.4,4.1-4.6,7.1-6.5,9.2c-1.9,2-4.6,3-7.9,2.9
					c-12.6-0.5-20.9-10.1-24.7-29c-3.8-18.9-5.3-37.9-4.7-57.1c0.5-13.6,2.6-26.4,6.2-38.3c3.7-11.8,10.5-17.6,20.5-17.3
					c5.3,0.2,9.3,1.5,11.9,3.9c2.7,2.5,5.6,6.4,8.8,12.1c1.8,3.6,4.2,5.8,6.9,6.9c2.8,1,8.4,1.7,16.8,2l19.8,0.7l101.3,3.5
					c10.8,0.4,19.2-0.3,25.1-1.9c6-1.6,10.3-4.5,12.8-8.5c2.5-4,3.9-9.7,4.2-17.1c0.3-9.4-0.5-15.8-2.6-19.5
					c-2.1-3.6-6.8-6.2-14.1-7.4c-7.3-1.3-20.4-2.2-39.4-2.9l-82.3-2.9c-19.2-0.7-31.4-0.5-36.8,0.4c-5.3,0.9-8.8,2.8-10.4,5.6
					c-3.2,5-5.9,8.6-8.1,10.6c-2.2,2.1-5.4,3-9.8,2.8c-3.9-0.1-7.3-0.9-10.3-2.3c-3.1-1.4-6-4.6-8.6-9.3c-2.6-4.8-4.6-12.1-6-21.8
					c-1.4-9.8-1.8-22.5-1.2-38c1.5-43,10.5-64.1,27-63.6c5.3,0.2,9.3,1.5,11.9,3.9c2.7,2.4,5.6,6.4,8.8,12.1
					c1.8,3.5,4.2,5.8,6.9,6.9c2.8,1,8.4,1.7,16.8,2l19.8,0.7l101.3,3.5c10.8,0.4,19.2-0.3,25.1-1.9c6-1.6,10.3-4.5,12.8-8.4
					c2.5-4.1,3.9-9.7,4.1-17.1c0.3-8.6-0.6-14.8-2.6-18.5c-2.1-3.7-7-6.4-14.7-7.9c-7.7-1.6-20.6-2.7-38.7-3.3l-82.3-2.9
					c-19.2-0.7-31.4-0.5-36.8,0.4c-5.3,1-8.8,2.8-10.4,5.6c-3.2,5-5.9,8.6-8.1,10.6c-2.2,2.1-5.5,3-9.8,2.8
					c-3.9-0.1-7.3-0.9-10.3-2.3c-3.1-1.4-6-4.6-8.6-9.4c-2.6-4.7-4.6-12-6-21.7c-1.4-9.8-1.8-22.5-1.2-38
					c1.6-45.2,11.4-67.5,29.4-66.9c8.3,0.3,14.2,4.2,17.5,11.6c2,4.9,4.1,8.4,6.2,10.2c2.2,1.9,7.4,3.5,15.8,4.8
					c8.4,1.2,22.4,2.2,41.9,2.9l99.1,3.5c6.1,0.2,10.7-0.4,14-1.7c3.2-1.4,6.3-4.5,9.2-9.3c2.8-4.7,5.1-8,7.1-9.9
					c1.9-1.8,5-2.7,9.4-2.5c7.7,0.3,14.2,5,19.4,14.2c5.2,9.1,7.3,30.1,6.2,62.6c-0.3,9.6-1,21.3-2,35.1c-1,13.7-2,26.5-2.9,38.2
					c-0.9,11.7-1.8,23.4-2.6,35C719.5,1578.8,718.9,1590.4,718.5,1601.7z M718.5,1601.7L718.5,1601.7z M643.9,1236.4
					c-9.6-12.2-17.1-21.7-22.9-28.5c-5.7-6.9-12.4-13.7-19.8-20.7c-7.6-7-15.5-12.7-23.8-17.1c-12.6-6.7-20.7-15.2-24.6-25.5
					c-3.9-10.3-2-22.7,5.5-36.9c6.9-13,17.6-21.5,32.1-25.7c14.5-4.2,32-6.7,52.4-7.5c6.9-0.4,34.3,0.3,82.2,1.8
					c48,1.5,79.5,2.9,94.7,4.1c7,0.6,12.4-0.1,16.2-2s7.3-4.4,10.5-7.7c3.3-3.3,6-5.4,8.3-6.2c2.2-0.9,5.5-0.1,9.8,2.2
					c6.9,3.7,10.3,9.8,10.1,18.5c-0.2,8.7-2.2,17.9-6.1,27.4c-3.9,9.6-8.8,20-14.8,31.3c-10.6,19.9-18.8,34.6-24.8,44.1
					c-6,9.5-12,16.4-18.2,20.6c-6.2,4.3-12.6,4.6-19.2,1.1c-3.6-1.9-5.8-4.3-6.6-6.9c-0.8-2.8-0.9-6.2-0.4-10.3
					c0.5-4.1,0.7-7.3,0.5-9.5c-0.3-2.2-1.7-4.1-4.4-5.5c-5.2-2.8-9.8-3.3-13.5-1.6c-3.8,1.8-8.2,6.7-13.2,14.6
					c-5.1,8-12.8,21.6-23,40.8c-5.5,10.3-8.3,17.9-8.6,23.2c-0.3,5.3,3.3,9.8,10.9,13.9c2.9,1.5,5.2,1.8,7.1,0.7
					c2-1.1,4.5-3.2,7.6-6.3c3.1-3.1,6.1-5.1,8.7-6.1c2.6-0.9,6-0.4,9.9,1.8c13.7,7.3,11.7,27.5-6,60.7c-8,15.1-14.9,26-20.7,32.8
					c-5.8,6.7-10.7,10.4-14.6,11.3c-4,0.8-8.1,0.1-12.4-2.1c-4.6-2.5-7.1-5.1-7.4-8c-0.3-2.9,0-7.9,0.7-15.2
					c0.8-7.2,0.2-12.9-1.6-17.1c-2.8-6.8-11.5-19.8-25.7-38.7L643.9,1236.4z M643.9,1236.4L643.9,1236.4z M705.7,1178.6
					c4.8-9,5.7-14.2,2.8-15.8c-3.5-1.9-14.8-2.6-33.9-2c-7.2,0.1-12.9,0.4-17.3,1c-4.4,0.6-7.5,2.5-9.2,5.8c-1.3,2.4-0.9,5.4,1,9
					c2,3.6,4.3,7,6.9,10c2.6,3,5.2,6,8,8.8c1.4,1.7,3.3,3.8,5.3,6.2c2.1,2.5,4.3,4.9,6.5,7.3c2.3,2.5,4.1,4,5.2,4.6
					c2.1,1.1,3.9,0.9,5.4-0.7c1.6-1.6,3.5-4.6,5.8-8.9L705.7,1178.6z M705.7,1178.6L705.7,1178.6z M868.4,1058.9
					c-2.2-4.6-3-8.1-2.4-10.7c0.6-2.5,2-7,4.5-13.5c2.4-6.4,3.5-11.9,3.1-16.6c-0.5-7.4-4.3-22.5-11.7-45l-18-54.5
					c-5.1-14.7-9.2-26.1-12.3-34.4c-3.2-8.3-7.2-17-12.1-26c-4.9-9.1-10.5-17.1-16.9-24c-9.7-10.4-14.7-21.1-15-32.1
					c-0.3-11.1,5.5-22.1,17.3-33.1c10.8-10.1,23.7-14.7,38.8-13.9s32.5,4.2,52,10c4.4,1.4,18.1,6.7,41.1,16
					c23,9.4,46.3,18.9,69.7,28.5c23.5,9.6,40.8,16.8,51.8,21.3c4.3,1.7,9.6,1.8,15.8,0.4c6.2-1.5,11.7-2.6,16.3-3.3
					c4.7-0.7,9.6,0.8,14.8,4.5c9.8,6.8,18.8,14.6,27,23.3c6.7,7.2,10.1,14.5,10.3,22.1c0.1,7.6-3.2,14.6-10.1,21.1
					c-7,6.5-13.4,9.6-19.1,9.4c-5.8-0.1-13.9-1.5-24.4-3.9c-10.5-2.4-18-2.4-22.5,0.3c-11.5,7.2-34.7,27.1-69.6,59.6
					c-31.4,29.3-50.6,48.9-57.4,58.7c-2.6,3.9-3.5,11.3-2.7,22.4c0.7,11.1,0.8,20,0.1,26.7c-0.7,6.8-4.3,13.2-10.8,19.2
					c-5.1,4.8-11.2,6.6-18.2,5.6c-7-1-12.9-4.2-17.9-9.5C879.4,1076.3,872.2,1066.8,868.4,1058.9z M868.4,1058.9L868.4,1058.9z
					 M973.9,898.6c-10-5.1-21.7-10.2-35.1-15.4c-13.4-5.2-21.9-8.4-25.5-9.4c-6.7-2.3-12.3-3.8-16.6-4.7c-4.4-0.9-7.9,0-10.5,2.4
					c-2.9,2.7-3.6,7.7-2.2,15.2c1.5,7.5,3.2,13.8,5.3,18.9c1.6,5.8,4.1,14.6,7.5,26.3c3.4,11.8,7,21.8,10.8,30
					c1.1,1.9,1.9,3.1,2.3,3.6c2.3,2.5,5,3.4,8.3,2.7c3.3-0.6,6.4-2.3,9.6-5.3l46.8-43.7c3.1-2.9,5.1-6,5.8-9.4
					c0.9-3.3,0.1-6.2-2.2-8.6C977.1,900.4,975.7,899.5,973.9,898.6z M973.9,898.6L973.9,898.6z M1077.6,639.6
					c-2.6-5.8-5.8-9.4-9.7-10.6c-3.8-1.2-8.9-1.4-15.2-0.7c-6.3,0.7-11.1,0.7-14.5,0c-3.3-0.7-6.1-3.5-8.2-8.2
					c-2.8-6.3-2.1-11.8,2-16.6c4.2-4.8,9.7-8.8,16.7-11.9c2.9-1.3,7.3-3.1,13-5.4c5.8-2.3,10.1-4.1,13.1-5.4
					c14.6-6.5,28.3-13.1,41.2-19.8c13-6.7,24.6-12.9,34.9-18.6c10.3-5.8,16.1-8.9,17.3-9.4c12.3-5.5,24.7-9,37.1-10.7
					c12.4-1.7,24.5-1.3,36.2,1.3c11.7,2.6,22.3,7.6,31.7,15.1c9.4,7.5,16.9,17.6,22.5,30.2c5.6,12.6,8.2,25,7.7,37.2
					c-0.5,12.2-3.5,23.6-9.1,34.3c-5.6,10.7-13.2,20.2-22.8,28.7c-9.6,8.4-20.5,15.3-32.7,20.7c-3.5,1.6-8.9,3.6-16,6
					c-7,2.5-12.1,4.4-15.1,5.7c-3.8,1.7-4.8,4.3-3.2,8l9,20.3c5.9,12.4,11.1,19.6,15.8,21.8c4.7,2.2,10.5,3.5,17.3,3.8
					c6.9,0.3,11.5,3.1,13.8,8.3c4.3,9.6,0,19.1-12.9,28.6c-12.8,9.4-27,17.5-42.4,24.4c-44.2,19.6-69.6,21.8-76.5,6.5
					c-1.9-4.3-2.2-7.6-1-10.2c1.2-2.6,3.5-5.8,6.9-9.7c3.4-3.9,5.6-7.8,6.4-11.8c0.9-4,0-9.2-2.9-15.6L1077.6,639.6z M1077.6,639.6
					L1077.6,639.6z M1163.5,581.4c-6,2.7-9.4,5.1-10.1,7.4c-0.7,2.2-0.1,5.4,1.8,9.6l23.2,52.2c1.8,3.9,3.4,6.8,5.2,8.6
					c1.7,1.8,3.9,2.6,6.6,2.6c2.7,0,6.3-1,10.8-3c10.8-4.8,17.3-12,19.4-21.5c2.1-9.6,0.6-19.9-4.5-31.4
					c-3.3-7.3-7.6-13.5-12.9-18.5c-5.3-4.9-11.3-8.1-18.1-9.3C1178.1,576.9,1171,578,1163.5,581.4z M1163.5,581.4L1163.5,581.4z
					 M1659.9,646.3c0.4,6.1,1.5,10.7,3.2,13.8c1.7,3.1,5.1,5.8,10.2,8.2c4.9,2.2,8.4,4.2,10.5,6c2,1.8,3.3,4.8,3.6,9.1
					c0.5,7.7-3.5,14.7-12.1,20.8c-8.6,6.1-29.2,10.4-61.6,12.6c-43.7,3.1-66.1-4.1-67.3-21.2c-0.5-7,2-12.6,7.5-16.9
					c5.5-4.3,9.6-9,12.4-14.3c2.8-5.2,3.5-16.4,2.3-33.5c-0.3-4.2-0.5-9.4-0.7-15.6c-0.2-6.2-0.3-10.1-0.5-11.8
					c-0.6-8.1-2.9-12-6.9-11.8c-1.5,0.1-3.4,0.6-5.7,1.5c-4.5,2-11.5,7.6-20.9,16.8c-9.4,9.1-17.8,18.5-25.1,28.2
					c-7.3,9.6-10.8,16.5-10.5,20.5c0.5,6.6,1.4,11.2,2.9,13.9c1.5,2.6,3.7,4.8,6.5,6.4c2.8,1.7,4.9,3.5,6.4,5.5
					c1.5,1.9,2.4,5.6,2.8,10.8c1.3,18.8-20.1,29.7-64.3,32.8c-16.5,1.2-32.5,0.5-47.9-2.1c-15.5-2.6-23.6-9.3-24.4-20.4
					c-0.5-6.8,3.2-12.3,11.1-16.8c4.6-2.6,7.7-4.7,9.4-6.4s3-5,4.1-10.1c1-5,1.5-12.8,1.5-23.3c-0.1-10.5-0.9-25.9-2.3-46.3
					c-1.9-26.7-3.4-46.3-4.6-58.7c-1.2-12.4-2.4-21.1-3.7-26.2c-1.3-5.1-2.7-8.2-4.3-9.4c-1.6-1.2-4.9-2.9-10-5.2
					c-4.3-1.9-7.6-3.8-9.8-5.6c-2.2-1.7-3.5-4.3-3.7-7.6c-0.9-12.6,7.9-21.8,26.3-27.6c18.4-5.8,37.1-9.3,56.3-10.6
					c14.1-1,27.8-0.3,41,2.1c13.2,2.3,20.2,8.5,20.8,18.4c0.4,5.3-0.5,9.4-2.6,12.3c-2.1,2.9-5.8,6.2-11.1,10
					c-3.7,2.4-6.1,4.4-7.4,6c-1.3,1.7-2.2,4.5-2.5,8.4c-0.4,4-0.3,10.2,0.4,18.8c0.4,5.9,0.7,12.6,1,20.1c0.3,7.5,0.5,12.1,0.6,13.8
					c0.3,4.8,1.2,8,2.6,9.6c1.3,1.6,4.2,2.2,8.5,1.9c3.8-1,9.6-5.4,17.7-13.3c8.1-7.9,16-16.6,23.7-25.9
					c7.6-9.2,12.4-15.6,14.1-18.9c2-4,2.9-7.5,2.7-10.5c-0.2-2.9-1.3-5.7-3.3-8.6c-1.4-2.1-3.7-4.2-7.1-6.4c-3.3-2.1-5.8-4.2-7.3-6
					c-1.5-1.9-2.5-5-2.8-9.4c-0.4-5.6,0.5-10.5,2.7-14.6c2.2-4,8.1-7.8,17.6-11.3c9.6-3.5,24.3-5.9,44.3-7.3
					c45.6-3.2,69.1,4.2,70.3,22.1c0.6,8-2.9,14.2-10.5,18.7c-4.7,2.5-7.9,4.9-9.5,7.2c-1.7,2.3-2.7,7.8-3.1,16.2
					c-0.4,8.5,0.1,22.5,1.5,42L1659.9,646.3z M1659.9,646.3L1659.9,646.3z M1996.3,720.2c-1.6,5.9-2,10.6-1.5,14.1
					c0.7,3.5,2.9,7.2,7,11.1c3.9,3.7,6.6,6.7,8,9c1.4,2.4,1.5,5.6,0.4,9.8c-2,7.4-8.1,12.7-18.2,15.7c-10.1,3-31,0.3-62.4-8.1
					c-42.3-11.3-61.2-25.3-56.7-42c1.5-5.7,3.9-9.3,7.4-10.9c3.4-1.5,7.2-3.3,11.4-5.1c4.2-1.9,8.6-6.4,13-13.5
					c4.4-7.1,8.8-18.9,13.3-35.5c1.7-6.4,2.3-11.1,1.8-14c-0.5-2.9-2.1-5.1-4.8-6.4c-2.7-1.3-7.5-2.9-14.7-4.8
					c-15.8-4.2-26.7-6.8-32.8-7.6c-6-0.8-10.3-0.1-12.9,2.2c-2.6,2.3-4.8,7-6.8,14.2l-3.6,13.3c-3.9,14.4-5.1,24.1-3.5,29
					c1.4,4.9,4.2,9.8,8.3,14.7c4,4.9,5.2,10.4,3.6,16.6c-3,11.1-12.7,16.4-29,15.8c-16.4-0.7-33-3.2-49.8-7.7
					c-16-4.3-30.8-10.1-44.6-17.6c-13.8-7.4-19.3-16.5-16.4-27.2c1.8-6.5,7.1-10.6,15.9-12.3c5.2-1,8.8-2,10.9-3
					c2.1-1,4.5-3.7,7.2-8.1c2.6-4.4,5.6-11.7,9-21.6c3.3-9.9,7.6-24.8,12.9-44.5c6.9-25.9,11.8-44.9,14.7-57c2.9-12.1,4.6-20.8,5-26
					c0.4-5.2,0.1-8.6-1-10.3c-1.2-1.6-3.7-4.3-7.8-8.1c-3.5-3.2-5.9-6.1-7.5-8.4c-1.6-2.3-1.9-5.2-1-8.4
					c3.3-12.2,14.6-18.1,33.8-17.6c19.2,0.6,38.1,3.3,56.7,8.3c13.7,3.7,26.3,8.8,38.1,15.4c11.7,6.5,16.3,14.5,13.7,24.2
					c-1.4,5.2-3.5,8.7-6.5,10.8c-2.9,2-7.5,4-13.7,5.8c-3.9,1-6.8,2.5-9,4.4c-2.1,2-4.2,5.6-6.3,10.9c-2.1,5.2-4.6,13.3-7.5,24.1
					c-2.1,7.7-2,13,0,15.8c2.1,2.9,6.3,5.2,12.8,6.9l9.6,2.6l18.7,5c7.5,2,13.1,3,16.7,3c3.6,0,6.1-0.8,7.3-2.6
					c1.2-1.7,2.5-4.8,3.7-9.3c4.8-17.8,6.9-29.6,6.3-35.5c-0.6-5.8-2.3-10.1-5.3-12.8c-4.2-4.3-7.1-7.7-8.5-10.3
					c-1.5-2.7-1.8-6.1-0.6-10.2c1.2-4.4,3.6-8.2,7.4-11.4c3.7-3.1,11.3-4.8,22.7-5.2c11.4-0.3,27.8,2.4,49.2,8.2
					c44.2,11.8,63.9,26.5,59.3,43.9c-2.1,7.7-7.4,12.5-16,14.3c-5.2,0.8-9,2-11.3,3.7c-2.4,1.7-5.1,6.5-8.2,14.3
					c-3.1,7.9-7.2,21.3-12.3,40.2L1996.3,720.2z M1996.3,720.2L1996.3,720.2z M2296.9,657.4c9,6.3,16.2,12.9,21.7,19.8
					c5.5,6.8,10.7,14.3,15.6,22.3c5,8.1,8.4,12.8,10.3,14.1c2.5,1.7,5.2,3.1,8.3,4.1c3.1,1,5.5,2.2,7.3,3.5
					c4.6,3.2,7.6,8.7,9.2,16.4c1.6,7.7,1,16.7-1.7,27c-2.7,10.3-8,21.1-15.6,31.9c-6.5,9.2-14.5,15.1-24.2,17.8
					c-9.6,2.7-18.9,0.9-27.8-5.4c-7-4.9-10.9-10.1-11.5-15.7c-0.7-5.5-0.8-15.7-0.2-30.3c0.5-14.7-1-27-4.8-36.9
					c-3.7-9.9-11.9-19.2-24.4-28c-7.5-5.2-15.2-7.6-23.2-7.2c-8,0.4-15.3,2.7-22.1,7.1c-6.7,4.4-12.3,9.7-16.6,15.8
					c-8.2,11.7-14.3,23.7-18.5,36.1c-4.1,12.3-6,24.6-5.6,36.8c0.3,12.2,3.1,23.4,8.6,33.8c5.4,10.3,13.4,19.3,24.1,26.8
					c11.6,8.1,21.7,13,30.3,14.6c8.6,1.6,16.9,2.1,24.8,1.3c8-0.8,13.1-0.4,15.3,1.1c4.2,2.9,6.1,7.2,5.8,12.7
					c-0.3,5.6-2,10.6-5.2,15.2c-3.3,4.7-8.8,9.4-16.5,14.3c-7.7,4.8-15.7,8-23.9,9.8c-8.1,1.6-14.6,0.9-19.4-2.5
					c-2.6-1.8-9.3-3.8-20.2-6c-10.9-2.2-21.3-5-31.1-8.2c-9.8-3.3-20-8.6-30.7-16.2c-21.4-15-37.7-34.1-48.8-57.3
					c-11.1-23.2-15.8-47.4-14.2-72.5c1.6-25.1,9.6-48,23.9-68.4c10.9-15.5,24.5-27.8,41-37c16.4-9.2,34.1-14.9,53.1-17
					c19-2.2,37.7-1,56.3,3.5C2264.7,639.1,2281.7,646.7,2296.9,657.4z M2296.9,657.4L2296.9,657.4z M2398.6,1066
					c7.5-30,9.6-47.1,6.5-51.3c-4.5-6.2-12.4-5.2-23.7,3.1l-6.5,4.7c-3.3,2.4-5.4,5.2-6.4,8.4c-1,3.2-1.6,7.3-1.9,12.4
					c-0.3,5-1,9.3-2,12.6c-1.1,3.3-3.3,6.3-6.7,8.7c-3.9,2.8-8.2,3.7-13.2,2.7c-4.8-1-11.5-5.4-19.8-13.3
					c-8.3-7.9-18.6-20.2-30.8-36.9c-16.2-22.3-25.3-38.1-27.3-47.7c-2-9.4,0.1-16.4,6.2-20.9c3.6-2.6,6.6-3.8,9-3.7
					c2.4,0.1,5.7,0.9,9.8,2.3c4.1,1.4,8.2,2,12.5,1.7c4.3-0.3,9.5-2,15.9-5.4c14.3-7.2,33.2-19.4,56.8-36.5
					c13.3-9.6,24.5-18,33.6-25.2c9-7.1,17.2-14.4,24.4-21.7c5.3-5.2,8.6-9.7,9.8-13.7c1.4-4,1.8-8.2,1.5-12.8
					c-0.3-4.6-0.1-8.1,0.5-10.5c0.7-2.5,3.1-5.2,7.2-8.1c6-4.3,14.1-4.1,24.4,0.8c10.3,4.8,25.3,20.8,44.9,47.9
					c9.2,12.6,15.9,24.4,20.1,35.4c4.3,10.9,1.9,19.8-7.2,26.4c-4.1,3-9.2,3.9-15.3,2.7c-6-1.2-11.5-1.5-16.6-0.9
					c-5.1,0.6-12.9,4.7-23.3,12.3c-8.6,6.3-11.5,11.4-8.7,15.3c1.9,2.6,7.4,4.5,16.5,5.8c9.2,1.4,18.5,1.8,28.2,1.6
					c9.7-0.3,15.6-1.3,17.9-2.9c2.3-1.6,4.4-4.4,6.4-8.4c2-4,4.1-6.8,6.3-8.4c9-6.6,18.7-5.6,29,3c10.3,8.6,21.2,20.9,32.9,36.9
					l4.7,6.5c21.4,29.4,25.3,49,11.7,58.9c-7.4,5.4-13.3,6.5-17.9,3.5c-4.5-3-10.2-8.8-17-17.3c-6.8-8.6-12.6-13.1-17.3-13.7
					c-5.6-1.4-12.4-2.9-20.3-4.8c-7.9-1.8-15.7-3-23.5-3.6c-7.9-0.5-13.7,0.6-17.6,3.5c-3.5,2.6-6,5.8-7.4,9.6
					c-1.4,3.8-3.1,10-5.2,18.4l-27,118.1c-0.8,3.8-0.6,9.6,0.7,17.2c1.2,7.7,1.5,13.7,1,18.3c-0.6,4.5-3.7,8.8-9.3,12.9
					c-11.3,8.2-23.7,3.1-37.1-15.4l-38.2-52.5c-3.1-4.3-5-7.6-5.8-9.9c-0.8-2.3-1-5.1-0.4-8.4c0.6-3.3,2.1-9.3,4.4-18L2398.6,1066z
					 M2398.6,1066L2398.6,1066z M2587.7,1488.5c-5.9,1.7-10.1,3.7-12.8,6c-2.6,2.3-4.6,6.2-5.9,11.7c-1.1,5.2-2.4,9.1-3.6,11.5
					c-1.3,2.4-4,4.2-8.2,5.4c-7.4,2.1-15.1-0.4-22.8-7.5c-7.8-7.1-16.2-26.3-25.2-57.7c-12.1-42.1-9.8-65.5,6.7-70.2
					c6.7-1.9,12.7-0.7,18.1,3.9c5.3,4.5,10.8,7.5,16.6,9.1c5.7,1.6,16.8,0,33.3-4.7c4-1.1,9.1-2.5,15.1-3.9c6-1.4,9.8-2.4,11.5-2.9
					c7.8-2.2,11.2-5.3,10.1-9.2c-0.4-1.5-1.3-3.2-2.7-5.2c-2.9-4-9.8-9.7-20.7-16.9c-10.9-7.3-21.8-13.5-32.8-18.7
					c-10.9-5.1-18.4-7.1-22.2-6c-6.3,1.8-10.6,3.7-13,5.8c-2.3,2-3.9,4.6-4.9,7.7c-1,3.1-2.4,5.5-4.1,7.4c-1.6,1.8-4.9,3.5-10,5
					c-18.1,5.2-33.2-13.5-45.4-56c-4.6-15.9-7.2-31.6-7.9-47.3c-0.7-15.6,4.2-25,14.9-28.1c6.5-1.9,12.7,0.6,18.8,7.3
					c3.5,3.9,6.2,6.5,8.2,7.8c2,1.3,5.5,1.9,10.7,2c5.2,0,12.9-1.2,23.2-3.4c10.3-2.3,25.2-6.2,44.8-11.8
					c25.7-7.4,44.6-13,56.4-16.7c11.9-3.7,20.2-6.8,24.8-9.1c4.7-2.3,7.4-4.4,8.3-6.2c0.8-1.8,1.8-5.4,3-10.8
					c1-4.6,2.1-8.2,3.4-10.7c1.2-2.6,3.5-4.3,6.6-5.2c12.2-3.5,23,3.2,32.5,20c9.4,16.8,16.8,34.4,22.1,52.8
					c3.9,13.6,6,27.1,6.5,40.6c0.5,13.4-4.1,21.5-13.7,24.2c-5.1,1.5-9.3,1.5-12.6,0c-3.3-1.4-7.3-4.4-12.1-8.8
					c-3.1-3.1-5.6-5.1-7.4-6c-1.9-0.9-4.8-1.2-8.7-0.7c-3.9,0.5-10,1.9-18.3,4.3c-5.7,1.6-12.2,3.4-19.4,5.2
					c-7.3,1.8-11.8,3-13.4,3.4c-4.6,1.3-7.6,2.8-8.8,4.5c-1.2,1.6-1.3,4.5-0.1,8.7c1.7,3.5,7.3,8.3,16.7,14.6
					c9.4,6.3,19.5,12.2,30.2,17.8c10.7,5.5,17.9,8.8,21.5,9.9c4.3,1.2,7.9,1.3,10.8,0.5c2.7-0.8,5.3-2.4,7.7-5
					c1.8-1.8,3.3-4.5,4.8-8.2c1.4-3.6,2.9-6.5,4.3-8.4c1.5-1.9,4.4-3.5,8.6-4.7c5.4-1.6,10.4-1.7,14.8-0.4
					c4.4,1.3,9.3,6.2,14.7,14.9c5.4,8.6,10.8,22.5,16.4,41.8c12.6,44,10.3,68.5-7,73.4c-7.7,2.2-14.5,0.1-20.5-6.3
					c-3.4-4.1-6.4-6.7-9-7.8c-2.6-1.2-8.2-1-16.5,0.3c-8.4,1.4-22,4.8-40.8,10.2L2587.7,1488.5z"/>
			</g>
		</g>
		<g>
			<g id="id10">
				<rect x="2507.7" y="1549.7" class="st0" width="285.4" height="270"/>
				<path class="st1" d="M2783.8,1722.4c-1,15-1.4,26.7-0.9,35.2c0.5,8.4,1.3,15.3,2.4,20.5c1.1,5.2,1.6,8.2,1.6,9
					c-0.5,6.7-4,12.1-10.6,16.3c-6.6,4.2-14.2,7.2-22.9,8.8c-8.7,1.8-16.3,2.4-22.7,1.9c-7.4-0.5-13.7-2.6-19-6.2
					c-5.2-3.5-7.5-8.7-7.1-15.5c0.4-6.3,2.9-10.9,7.2-13.9c4.4-2.9,9.1-5.9,14-8.9c4.9-2.9,9.3-8.4,13.2-16.1
					c3.9-7.8,6.3-20,7.5-36.5c0.9-12,0.6-20.7-0.6-26c-1.2-5.2-4-8.8-8.1-10.6c-4.2-1.8-11.1-3-21-3.7l-19-1.3
					c-8.1-0.5-13.5-0.5-16.4,0.2c-2.8,0.6-4.7,2.5-5.8,5.5c-1,3-1.8,8.7-2.4,17.1c-0.5,6.4,1,10.9,4.5,13.4c3.5,2.5,8.6,4.5,15.6,6
					c7,1.5,12.1,3.4,15.4,5.6c3.3,2.2,4.8,6.3,4.4,12.2c-0.7,9.6-7.3,15.4-20,17.6c-12.7,2.2-25.9,2.8-39.4,1.9
					c-7.7-0.5-16.2-1.8-25.4-3.7c-9.2-1.9-17.3-5-24.2-9.3c-7-4.3-10.3-9.9-9.8-16.7c0.4-5.1,1.9-8.2,4.7-9.3c2.8-1.1,7.8-2,15-2.8
					c7.1-0.8,12.6-2.8,16.4-5.9c3.7-3.2,5.9-9,6.5-17.6c0.5-6.9-1.6-11.3-6.1-13.4s-11-3.5-19.5-4.1c-17.5-1.2-29.9-1.4-36.9-0.5
					c-7.1,0.9-11.7,3.5-13.9,7.7c-2.1,4.2-3.6,12-4.4,23.4l-0.7,9.4c-1.2,17.7,0.3,31.3,4.5,40.7c4.2,9.5,9.7,16.5,16.4,20.9
					c6.7,4.5,13,8.9,18.7,13.2c5.8,4.2,8.4,9.5,7.9,16c-0.4,5.6-3.2,9.9-8.5,12.8c-5.3,2.9-11,4.2-17.1,3.8
					c-8.6-0.6-18.4-3.3-29.6-7.9c-11.1-4.7-20.7-10.1-28.7-16.4c-8-6.2-11.8-11.8-11.5-16.6c0-0.2,1.1-5.7,3.3-16.4
					c2.2-10.7,3.6-21.3,4.3-31.9l10.9-156.3c1.2-17,7.3-25,18.1-24.3c5.5,0.4,9.7,3.7,12.6,10.1c2.9,6.4,5.7,11.2,8.5,14.4
					c2.8,3.1,9.9,5.5,21.5,7.1c34.7,4.8,56.9,7.5,66.7,8.2c0,0,21.5,0.7,64.4,2.2c11.7,0.4,20.2-0.6,25.7-3.1
					c5.4-2.4,9.2-5.3,11.3-8.7c2.2-3.3,4.6-6.7,7.4-10.1c2.8-3.4,7.1-5,13-4.6c13.2,0.9,19,12.3,17.5,34.1c-0.1,1.7-0.4,4.1-0.7,7.2
					c-0.3,3.1-0.5,5.2-0.6,6.4L2783.8,1722.4z"/>
			</g>
		</g>
	</g>
	<g>
		<g id="id11">
			<rect x="269.3" y="268" class="st0" width="2693" height="1999.8"/>
			<path class="st1" d="M1615.8,268c743.5,0,1346.5,602.9,1346.5,1346.5c0,237.1-61.4,459.8-169,653.3h-2355
				c-107.6-193.5-169-416.2-169-653.3C269.3,870.9,872.2,268,1615.8,268z M1615.8,268L1615.8,268z M1798.8,1728.9l8.4,20.2
				c48.6,3.5,173.5-109.7,160-161.8C1953,1638,1840.2,1729.1,1798.8,1728.9z M1798.8,1728.9L1798.8,1728.9z M1452.9,2139.1
				c-250-60.1-411.1-254.6-460.8-444c45.2,36.9,92.1,38.7,143.9,24c-58.2,4-159.7-71.8-165.7-129.6c-6-57.6-7.1-112.1,4.8-169
				c29.1,66.4,81.3,107.5,142,133.6c-55.5-29.8-137.6-173.6-118.3-235.7c17.3-55.6,41.5-103.8,80.3-159.1
				c3.2,99.3,36.2,178.2,82,258c-44.1-95.3-48.6-224.6-46-308.2c74.1-87.3,163.8-149,261.2-188.5c31.8-12.9,29.3,8.5,21.6,15.8
				c-3,2.9-7.6,6.1-7.6,6.1c-108.8,71.4-182,194.1-184.4,341.3c0,119,69.3,282,189.1,333c0.9,0.4,2.1,0.5,2.8,1.2
				c11.1,10.9,0.4,66.5-5.8,82c-41.9-9.4-132-80.8-143.9-123.3c-11.7,80.1,134.1,144.9,132.7,148.8c-59,121.8-44.1,323.7,73.4,412
				C1457.7,2140,1455.1,2139.6,1452.9,2139.1z M1452.9,2139.1L1452.9,2139.1z M1788.5,1644.7l35.4-18.3
				c122.2-73.2,205.3-187.1,205.3-342.7c-2.5-149.6-78.1-274-190-344.8c-39.4-24.9,2.7-26,29.5-14.3
				c83.2,36.2,161.3,87.3,227.8,158.2c62.7,66.8,12,259.6-22.6,334.5c45.9-79.8,78.8-158.7,82-258c38.8,55.3,63,103.5,80.3,159.1
				c26,83.2-43.9,195.7-118.2,235.7c60.7-26.1,112.8-67.3,142-133.6c12.6,60.2,10.7,117.7,3.8,179
				c-7.2,63.9-101.5,123.9-164.6,119.6c51.8,14.6,98.8,12.9,143.9-24c-50.1,190.9-216.5,387-471,445.4c35.7,16.6,73.2,31,112.7,40.7
				c7.7,1.9,10.3,8.6,9.4,14.6h814.8c92.8-173.5,145.4-371.7,145.4-582.2c0-683.1-553.9-1237-1236.9-1237s-1237,553.9-1237,1237
				c0,210.5,52.6,408.7,145.4,582.2h814.8c-0.8-6,1.7-12.7,9.4-14.6c39.5-9.7,86.5-23.6,123.8-40.7c4.6-2.1,3-5-0.2-7.9
				c-109.9-100.6-124.4-285.5-79.6-396.4c11.6-23.9,20.8-54.5,20.3-86.9c-0.2-13.5-4.4-23.7-6.2-36.3
				c-15.4-107.6,271.5-252.5,254.6-386.6c16.6-4.4,29.6-16.8,29.4-41.2c-0.3-29.2-26.7-44-53.1-51c1.2-5.8,2.3-11.1,2.2-15.7
				c-0.1-11.7-12-14.7-18.6-5.6c-3,4.1-4.8,10.3-7.1,16.8c-2.7-0.3-5.3-0.6-7.7-0.8c-6.3-0.5-12.7-0.5-19-0.1
				c6.6-17.8,19.7-39.7,17.7-59.1l-10.4,2.5c1.4,14.1-8.7,32.7-14.1,45.6c-10.9,25.9-13.2,46.4-16.4,73.4l-130.1-40.1
				c-3.3-1-3.8-1-5.3-4.3c-2.2-4.8-3-10.3,1.3-11.3c15.3-3.4,121.3-27.4,132.9-44.9c7.8-12.7,14.3-22.4,31.6-18.4
				c49-15.3,158.2,13.5,172,60.2c2.3,7.8,3.9,17.4,5.4,25.5C1800.3,1306.8,1600,1706,1788.5,1644.7z M1788.5,1644.7L1788.5,1644.7z
				 M1798.8,1728.9l8.4,20.2c48.6,3.5,173.5-109.7,160-161.8C1953,1638,1840.2,1729.1,1798.8,1728.9z M1798.8,1728.9L1798.8,1728.9z
				 M1584.6,1140.3c-3,11.1-4.8,22.1-6.3,33.6l-2.3,22.3c18.2,6.7,35.6,12.7,50.2,16.9c18.1,5.2,47.2,4.7,47-27.8
				c-0.3-34.6-45.8-43.5-68.4-45.4C1598.1,1139.4,1591.3,1139.4,1584.6,1140.3z"/>
		</g>
	</g>
	<g>
		<g id="id12">
			<rect x="915.5" y="2769.6" class="st0" width="1392.5" height="193.9"/>
			<path class="st1" d="M2308,2769.6c-203.2,123-441.5,193.9-696.2,193.9s-493.1-70.8-696.2-193.9H2308z"/>
		</g>
	</g>
</g>
<g>
	<g>
		<g id="id13">
			<rect x="661.7" y="2334.5" class="st0" width="1915" height="244"/>
			<path class="st1" d="M777.8,2374.8c-3,1.7-5.2,3.6-6.6,5.8c-1.3,2.1-2.3,5.6-2.9,10.5c-0.5,4.9-0.8,12.2-0.8,22v88.8
				c0,13,1.2,21.4,3.5,25.2c2.4,3.8,5.8,7.3,10.3,10.5c4.5,3.2,6.8,7.7,6.8,13.2c0,10-7,16.7-20.9,19.9c-14,3.2-28.6,4.8-43.8,4.8
				c-14.4,0-28.3-1.6-41.7-4.7c-13.3-3.2-20-9.6-20-19.3c0-6,3.5-10.6,10.7-14c4.2-2,7-3.7,8.6-5c1.6-1.3,2.9-4.2,4.2-8.5
				c1.2-4.3,2.1-11.1,2.7-20.3c0.5-9.2,0.8-22.6,0.8-40.5c0-23.4-0.2-40.6-0.4-51.5c-0.3-10.9-0.9-18.6-1.7-23
				c-0.9-4.5-1.9-7.3-3.2-8.4c-1.3-1.1-4.1-2.8-8.4-5.1c-3.7-1.9-6.4-3.8-8.2-5.4c-1.8-1.6-2.8-3.9-2.8-6.8
				c0-11.1,8.2-18.6,24.6-22.5c16.4-3.9,33-5.8,49.7-5.8c1.8,0,11.2,0.4,28,1.1c16.8,0.8,30.3,1.2,40.6,1.2c8.4,0,19.1-0.4,32.2-1.2
				c13-0.7,24.3-1.1,33.8-1.1c40,0,60,7.9,60,23.6c0,7-3.4,12.2-10.3,15.6c-4.2,1.9-7.2,3.8-8.7,5.7c-1.6,2-2.8,6.6-3.7,13.9
				c-0.8,7.4-1.3,19.6-1.3,36.7v86.7c0,5.3,0.7,9.4,2,12.2c1.3,2.8,4.1,5.4,8.4,7.8c4.1,2.2,7.1,4.2,8.8,5.8
				c1.6,1.7,2.6,4.4,2.6,8.2c0,6.7-3.9,12.6-11.8,17.4c-7.8,4.8-26.1,7.3-54.5,7.3c-38.3,0-57.4-7.6-57.4-22.6
				c0-5.2,1.2-8.8,3.8-10.9c2.5-2.1,5.3-4.4,8.5-6.9c3.1-2.6,5.8-7.3,7.9-14.3c2.1-7,3.2-18,3.2-32.9v-72.1
				c0-16.1-0.9-26.6-2.7-31.4c-1.8-4.8-4.2-8-7.3-9.7c-1.2-0.9-8.2-1.3-21.3-1.3C786.3,2373.5,779.2,2373.9,777.8,2374.8z
				 M777.8,2374.8L777.8,2374.8z M973.4,2388.8c0-5.6-1.3-9.6-3.9-12c-2.6-2.3-6.6-4.3-11.9-6c-5.3-1.6-9.1-3.4-11.6-5.2
				c-2.4-1.8-3.6-4.9-3.6-9.5c0-6,2.5-10.2,7.5-12.5c5.1-2.4,10.9-3.6,17.6-3.6c2.8,0,6.9,0.1,12.3,0.3c5.4,0.2,9.6,0.3,12.4,0.3
				c13.9,0,27.3-0.4,39.9-1.1c12.7-0.7,24.2-1.6,34.5-2.4c10.3-1,16-1.4,17.1-1.4c11.8,0,23,1.5,33.4,4.6
				c10.6,3.1,20.1,7.7,28.5,13.9c8.4,6.2,15.1,14,20,23.4c4.8,9.3,7.2,20,7.2,32.1c0,12-2.3,22.9-7,32.4
				c-4.7,9.6-11.2,17.7-19.5,24.2c-8.3,6.5-17.7,11.5-28.4,14.8c-10.7,3.3-21.9,5-33.5,5c-3.4,0-8.4-0.3-14.9-0.9
				c-6.5-0.5-11.2-0.8-14-0.8c-3.6,0-5.4,1.7-5.4,5.3v19.4c0.3,12,1.9,19.6,4.8,23c2.9,3.4,7.1,6.5,12.5,9.2
				c5.4,2.7,8.1,6.6,8.1,11.5c0,9.2-6.8,15.3-20.4,18.2c-13.6,2.9-27.8,4.4-42.6,4.4c-42.3,0-63.4-7.3-63.4-21.9
				c0-4.1,0.9-6.9,2.8-8.5c1.9-1.6,4.9-3.4,8.9-5.3c4.1-1.9,7.2-4.3,9.4-7.1c2.2-2.9,3.2-7.3,3.2-13.5V2388.8z M973.4,2388.8
				L973.4,2388.8z M1062.8,2372.8c-5.8,0-9.3,0.8-10.7,2.3s-2,4.3-2,8.3v50c0,3.8,0.3,6.7,1.1,8.7c0.7,2,2.2,3.5,4.3,4.5
				c2.2,0.9,5.4,1.4,9.7,1.4c10.3,0,18.1-3.4,23.1-10.3c5-6.9,7.6-15.7,7.6-26.6c0-7-1.2-13.5-3.7-19.4c-2.4-5.8-6.2-10.5-11.1-13.9
				C1076,2374.5,1069.9,2372.8,1062.8,2372.8z M1062.8,2372.8L1062.8,2372.8z M1419.6,2502.5c0,12.5,1.5,20.9,4.6,25.3
				c3,4.4,7.2,8.3,12.5,11.7c5.3,3.4,7.9,7.3,7.9,11.6c0,16.2-21.1,24.3-63.4,24.3c-17.2,0-30.3-0.9-39.4-2.7
				c-9-1.7-15.2-4.1-18.3-7.1c-3.1-2.9-4.7-6.7-4.7-11.3c0-3.6,0.8-6.3,2.2-8.2c1.4-1.8,3.7-3.6,6.8-5.4c3-1.8,5.4-3.6,7.2-5.4
				c1.7-1.7,2.9-4.3,3.5-7.7c1.6-8.5,2.3-19.3,2.3-32.3c0-6.7-0.3-11.7-0.9-14.8c-0.6-3.2-1.6-5.1-2.9-6c-1.3-0.8-3.3-1.2-6.1-1.2
				c-8.2,0-14.3,2.7-18.2,8c-4,5.3-7.1,12.7-9.4,22.3c-3.2,13.9-6.1,24.9-8.7,33c-2.6,8-6.2,15.2-10.9,21.6
				c-4.6,6.4-11.1,11.4-19.3,14.9c-8.2,3.5-18.7,5.2-31.4,5.2c-17.5,0-30.7-2.6-39.6-7.7c-8.9-5.2-13.4-11.3-13.4-18.4
				c0-4.4,0.9-7.2,2.6-8.5c1.6-1.4,4.5-2.6,8.6-3.7c4-1.1,7.2-3.1,9.6-5.8c2.4-2.8,4.1-7.6,4.9-14.5c2.3-17.9,6.3-31.3,12.1-40.2
				c5.7-8.8,14.5-15.4,26.2-19.8c3.1-1.4,5.3-2.5,6.5-3.5c1.2-0.9,1.8-2.4,1.8-4.6c0-2.4-1.8-4.6-5.4-6.6
				c-9-4.5-15.9-11.1-20.9-19.8c-4.9-8.7-7.4-18.3-7.4-28.5c0-13.9,4-25.5,11.9-34.6c8-9.2,18.1-15.9,30.6-20.1
				c12.5-4.2,25.5-6.3,38.9-6.3c8.1,0,19.2,0.4,33.2,1.2c13.9,0.8,24.5,1.2,31.5,1.2c4.6,0,11.2-0.4,20.1-1.2
				c8.8-0.8,15.8-1.2,20.9-1.2c10,0,19,1.4,27.2,4.3c8.1,2.8,12.2,8.4,12.2,16.4c0,4.4-1.4,7.5-4.3,9.2c-2.8,1.8-5.9,3.6-9.2,5.6
				c-3.3,2-6.1,5.6-8.4,10.9c-2.3,5.4-3.4,13.8-3.4,25.3V2502.5z M1419.6,2502.5L1419.6,2502.5z M1340.8,2390.5
				c-0.5-6.8-1.3-11.5-2.5-14.1c-1.3-2.6-4.7-3.9-10.2-3.9c-15.6,0-23.3,11-23.3,33c0,10.8,2.2,18.9,6.5,24.4
				c4.3,5.5,11.7,8.3,22.1,8.3c3.6,0,5.9-0.7,7-2.2c1.2-1.4,1.8-3.6,2.1-6.5c0-3-0.2-5.5-0.5-7.3L1340.8,2390.5z M1340.8,2390.5
				L1340.8,2390.5z M1701.6,2516.8c0,5.3,0.7,9.4,1.9,12.2c1.3,2.8,4.1,5.4,8.4,7.8c4.1,2.2,7.1,4.2,8.8,5.8
				c1.7,1.7,2.6,4.4,2.6,8.2c0,6.7-3.9,12.6-11.8,17.4c-7.9,4.8-26.1,7.3-54.5,7.3c-38.3,0-57.4-7.6-57.4-22.6
				c0-5.2,1.2-8.8,3.8-10.9c2.5-2.1,5.3-4.4,8.5-6.9c3.1-2.6,5.8-7.3,7.9-14.3c2.1-7,3.2-17.9,3.2-32.9c0-5.8-0.5-9.9-1.7-12.2
				c-1.1-2.4-2.9-3.8-5.5-4.3c-2.6-0.5-7.1-0.8-13.5-0.8c-14.3,0-24.1,0.3-29.4,1c-5.3,0.7-8.8,2.3-10.4,4.8
				c-1.6,2.5-2.5,7-2.5,13.5v12.1c0,13,1.2,21.5,3.6,25.3c2.3,3.8,5.8,7.3,10.3,10.5c4.5,3.2,6.8,7.6,6.8,13.2
				c0,10-7,16.7-20.9,19.9c-14,3.2-28.5,4.8-43.8,4.8c-14.5,0-28.3-1.6-41.7-4.7c-13.4-3.2-20-9.6-20-19.3c0-6,3.5-10.5,10.7-14
				c4.2-2,7-3.7,8.6-5c1.6-1.3,2.9-4.2,4.2-8.5c1.2-4.3,2.1-11.1,2.7-20.3c0.6-9.2,0.9-22.6,0.9-40.5c0-23.4-0.2-40.6-0.5-51.5
				s-0.8-18.6-1.7-23c-0.8-4.5-1.9-7.3-3.2-8.4c-1.3-1.1-4.1-2.8-8.4-5.1c-3.7-1.9-6.4-3.8-8.2-5.4c-1.8-1.6-2.8-3.9-2.8-6.8
				c0-11.1,8.2-18.6,24.6-22.5c16.4-3.9,32.9-5.8,49.7-5.8c12.4,0,24.2,1.4,35.7,4.3c11.4,2.8,17.1,8.6,17.1,17.3
				c0,4.7-1,8.2-3.1,10.5c-2,2.4-5.4,5.1-10.3,8.1c-3.1,1.6-5.2,3.6-6.6,5.7c-1.3,2.2-2.3,5.6-2.9,10.6c-0.6,4.9-0.9,12.2-0.9,22
				c0,7,1.2,11.5,3.6,13.4c2.4,1.9,6.5,2.9,12.3,2.9h8.7h16.9c6.8,0,11.7-0.4,14.8-1.2c3.1-0.8,4.9-2,5.6-3.8c0.7-1.7,1-4.6,1-8.7
				c0-16.1-0.9-26.6-2.7-31.4c-1.8-4.8-4.2-8-7.3-9.6c-4.5-2.7-7.7-5-9.6-6.8c-1.9-1.9-2.8-4.7-2.8-8.5c0-4,1.2-7.7,3.7-11.3
				c2.4-3.5,8.4-6.7,18-9.5c9.6-2.8,24-4.2,43.4-4.2c40,0,60,7.9,60,23.6c0,7-3.5,12.2-10.3,15.6c-4.2,1.9-7.2,3.8-8.7,5.7
				c-1.6,2-2.8,6.6-3.7,13.9c-0.9,7.4-1.3,19.6-1.3,36.7V2516.8z M1701.6,2516.8L1701.6,2516.8z M1982.4,2516.8
				c0,5.3,0.7,9.4,1.9,12.2c1.3,2.8,4.1,5.4,8.4,7.8c4.1,2.2,7.1,4.2,8.8,5.8c1.7,1.7,2.6,4.4,2.6,8.2c0,6.7-3.9,12.6-11.8,17.4
				c-7.9,4.8-26.1,7.3-54.5,7.3c-38.3,0-57.4-7.6-57.4-22.6c0-6.1,2.5-10.8,7.6-14.3c5.1-3.4,9-7.3,11.7-11.7
				c2.7-4.4,4.1-14.1,4.1-29.1c0-3.7,0.1-8.2,0.3-13.7c0.2-5.4,0.3-8.8,0.3-10.3c0-7.1-1.8-10.7-5.3-10.7c-1.3,0-3,0.3-5,1
				c-4.1,1.5-10.5,5.9-19.2,13.3c-8.8,7.4-16.6,15.1-23.6,23.1c-6.9,7.9-10.5,13.7-10.5,17.2c0,5.8,0.6,9.8,1.7,12.3
				c1.2,2.4,2.9,4.4,5.3,6c2.4,1.6,4.1,3.3,5.2,5.2c1.2,1.8,1.8,5,1.8,9.6c0,16.4-19.3,24.7-58.1,24.7c-14.5,0-28.3-1.6-41.7-4.7
				c-13.4-3.2-20-9.6-20-19.3c0-6,3.5-10.5,10.7-14c4.2-2,7-3.7,8.6-5c1.6-1.3,2.9-4.2,4.2-8.5c1.2-4.3,2.1-11.1,2.7-20.3
				c0.6-9.2,0.9-22.6,0.9-40.5c0-23.4-0.2-40.6-0.5-51.5s-0.8-18.6-1.7-23c-0.8-4.5-1.9-7.3-3.2-8.4c-1.3-1.1-4.1-2.8-8.4-5.1
				c-3.7-1.9-6.4-3.8-8.2-5.4c-1.8-1.6-2.8-3.9-2.8-6.8c0-11.1,8.2-18.6,24.6-22.5c16.4-3.9,32.9-5.8,49.7-5.8
				c12.4,0,24.2,1.4,35.7,4.3c11.4,2.8,17.1,8.6,17.1,17.3c0,4.7-1,8.2-3.1,10.5c-2,2.4-5.4,5.1-10.3,8.1c-3.3,1.8-5.6,3.4-6.8,4.8
				c-1.2,1.4-2.2,3.8-2.7,7.2c-0.6,3.5-0.9,8.9-0.9,16.4c0,5.2-0.1,11.1-0.3,17.6c-0.2,6.5-0.3,10.6-0.3,12c0,4.2,0.5,7.1,1.6,8.5
				c1.1,1.4,3.5,2.2,7.3,2.2c3.3-0.6,8.7-4.1,16.3-10.5c7.5-6.4,14.9-13.4,22.2-21.1c7.2-7.6,11.7-12.9,13.5-15.7c2-3.3,3-6.3,3-8.9
				c0-2.5-0.8-5.1-2.4-7.7c-1.1-1.9-3-3.9-5.8-6c-2.7-2.1-4.8-4-6-5.7c-1.2-1.7-1.9-4.5-1.9-8.3c0-5,1.1-9.1,3.2-12.6
				c2.2-3.4,7.5-6.3,16.1-8.8c8.5-2.4,21.5-3.7,39.1-3.7c40,0,60,7.9,60,23.6c0,7-3.5,12.2-10.3,15.6c-4.2,1.9-7.2,3.8-8.7,5.7
				c-1.6,2-2.8,6.6-3.7,13.9c-0.9,7.4-1.3,19.6-1.3,36.7V2516.8z M1982.4,2516.8L1982.4,2516.8z M2164.6,2526.8
				c-17.4-20.7-28.4-31-32.9-31c-6.7,0-10,6.1-10,18.3v7c0,3.5,0.9,6.5,2.6,8.8c1.8,2.4,4.4,4.9,7.8,7.7c3.4,2.8,6,5.4,7.9,7.9
				c1.8,2.5,2.7,5.6,2.7,9.2c0,4.2-1.6,7.7-4.8,10.7c-3.1,2.9-9.7,5.3-19.6,7.2s-23.9,2.8-42,2.8c-24,0-39.9-1.7-47.7-5.2
				c-7.7-3.5-11.6-8.5-11.6-15.2c0-3.9,0.7-6.6,2.1-8.3c1.3-1.6,3.5-3.5,6.7-5.8c3.1-2.2,5.6-4.8,7.6-8c2-3.2,3.5-7.8,4.3-14
				c2.2-13.8,3.3-33.5,3.3-59c0-14.3-0.2-26.6-0.6-36.7c-0.4-10.1-1.3-19.6-2.8-28.4c-0.9-6.4-2.4-11.1-4.6-14
				c-2.1-3-4.9-5.5-8.3-7.6c-3.4-2.1-5.8-4.1-7.1-5.8c-1.4-1.8-2.1-4.8-2.1-9.2c0-6.4,4.4-12,13.1-16.8c8.7-4.8,27.7-7.1,56.9-7.1
				c13.6,0,25.5,1.3,35.4,3.9c9.9,2.6,15,8.8,15,18.7c0,4.5-2,8.6-6,12.2c-3.9,3.6-6.9,7.4-9.1,11.3c-2.2,3.9-3.3,11.5-3.3,22.8
				c0,9.3,2.1,14,6.3,14c2.8,0,7-2.9,12.6-8.7c5.7-5.8,10.9-12.2,15.6-19.2c4.7-7,7.1-11.7,7.1-14.2c0-2.4-0.9-5.4-2.7-8.9
				c-1.8-3.5-2.7-6.4-2.7-8.8c0-9.8,5.7-16.1,17-19c11.4-2.8,25.7-4.3,43-4.3h7c31.8,0,47.7,7.3,47.7,21.9c0,8-2.2,12.8-6.7,14.4
				c-4.5,1.7-11.5,2.7-20.9,3.1c-9.6,0.5-15.7,2.2-18.6,5.2c-3.8,3.3-8.4,7.3-13.8,11.9c-5.3,4.6-10.2,9.6-14.6,14.8
				c-4.5,5.3-6.6,10-6.6,14.2c0,3.8,1,7.2,3,10.2c2,2.9,5.4,7.3,10.3,13.2l69.7,79.7c2.3,2.6,6.4,5.4,12.5,8.4
				c6,3.1,10.5,6,13.4,8.7c2.9,2.7,4.3,7.2,4.3,13.2c0,12.2-10,18.3-30,18.3h-56.7c-4.6,0-7.9-0.3-10-0.9c-2-0.6-4.1-1.9-6.2-4.1
				c-2-2.1-5.5-6.2-10.5-12.3L2164.6,2526.8z M2164.6,2526.8L2164.6,2526.8z M2552.7,2516.8c0,5.3,0.7,9.4,2,12.2
				c1.3,2.8,4.1,5.4,8.4,7.8c4.1,2.2,7.1,4.2,8.8,5.8c1.6,1.7,2.6,4.4,2.6,8.2c0,6.7-3.9,12.6-11.8,17.4c-7.8,4.8-26.1,7.3-54.5,7.3
				c-38.3,0-57.4-7.6-57.4-22.6c0-6.1,2.5-10.8,7.6-14.3c5-3.4,8.9-7.3,11.7-11.7c2.7-4.4,4.1-14.1,4.1-29.1c0-3.7,0.1-8.2,0.3-13.7
				c0.2-5.4,0.3-8.8,0.3-10.3c0-7.1-1.8-10.7-5.3-10.7c-1.3,0-3,0.3-5,1c-4.1,1.5-10.5,5.9-19.2,13.3c-8.8,7.4-16.6,15.1-23.6,23.1
				c-6.9,7.9-10.4,13.7-10.4,17.2c0,5.8,0.5,9.8,1.7,12.3c1.2,2.4,2.9,4.4,5.3,6c2.3,1.6,4.1,3.3,5.2,5.2c1.2,1.8,1.8,5,1.8,9.6
				c0,16.4-19.3,24.7-58.1,24.7c-14.4,0-28.3-1.6-41.7-4.7c-13.3-3.2-20-9.6-20-19.3c0-6,3.6-10.5,10.7-14c4.2-2,7-3.7,8.6-5
				c1.6-1.3,2.9-4.2,4.2-8.5c1.2-4.3,2.1-11.1,2.7-20.3c0.5-9.2,0.8-22.6,0.8-40.5c0-23.4-0.2-40.6-0.5-51.5
				c-0.3-10.9-0.8-18.6-1.6-23c-0.9-4.5-1.9-7.3-3.2-8.4c-1.3-1.1-4.1-2.8-8.4-5.1c-3.7-1.9-6.4-3.8-8.2-5.4
				c-1.8-1.6-2.8-3.9-2.8-6.8c0-11.1,8.2-18.6,24.6-22.5c16.4-3.9,33-5.8,49.7-5.8c12.4,0,24.2,1.4,35.7,4.3
				c11.4,2.8,17.1,8.6,17.1,17.3c0,4.7-1,8.2-3.1,10.5c-2,2.4-5.4,5.1-10.3,8.1c-3.3,1.8-5.6,3.4-6.8,4.8c-1.2,1.4-2.2,3.8-2.7,7.2
				c-0.5,3.5-0.8,8.9-0.8,16.4c0,5.2-0.1,11.1-0.3,17.6c-0.2,6.5-0.3,10.6-0.3,12c0,4.2,0.6,7.1,1.7,8.5c1,1.4,3.5,2.2,7.3,2.2
				c3.3-0.6,8.7-4.1,16.3-10.5c7.6-6.4,14.9-13.4,22.2-21.1c7.2-7.6,11.7-12.9,13.5-15.7c2-3.3,3-6.3,3-8.9c0-2.5-0.8-5.1-2.4-7.7
				c-1-1.9-3-3.9-5.8-6c-2.7-2.1-4.8-4-6-5.7c-1.2-1.7-1.9-4.5-1.9-8.3c0-5,1.1-9.1,3.2-12.6c2.2-3.4,7.5-6.3,16-8.8
				c8.6-2.4,21.6-3.7,39.1-3.7c40,0,60,7.9,60,23.6c0,7-3.4,12.2-10.3,15.6c-4.2,1.9-7.1,3.8-8.7,5.7c-1.6,2-2.8,6.6-3.7,13.9
				c-0.8,7.4-1.3,19.6-1.3,36.7V2516.8z"/>
		</g>
	</g>
	<g>
		<g id="id14">
			<rect x="504.7" y="2379.1" class="st0" width="2221" height="130.4"/>
			<path class="st1" d="M2725.7,2379.1c-30.4,44.3-63.4,86.6-98.8,126.9v-126.9H2725.7z M2725.7,2379.1L2725.7,2379.1z
				 M606.5,2509.5c-36.5-41.3-70.5-84.8-101.8-130.4h101.8V2509.5z"/>
		</g>
	</g>
	<g>
		<g id="id15">
			<rect x="748.7" y="2652.9" class="st0" width="1733.2" height="54.9"/>
			<path class="st1" d="M2481.9,2652.9c-22.6,19-45.7,37.3-69.5,54.8H818.2c-23.8-17.5-47-35.8-69.5-54.8H2481.9z"/>
		</g>
	</g>
	<g>
		<g id="id16">
			<rect x="536.3" y="1933.4" class="st0" width="164.1" height="164.1"/>
			<path class="st1" d="M618.4,1933.4L618.4,1933.4c15.1,0,27.9,3.4,41,11c13.1,7.5,22.5,17,30,30c7.6,13.1,11,25.9,11,41v0l0,0
				c0,15.1-3.4,27.9-11,41c-7.5,13.1-17,22.5-30,30c-13.1,7.6-25.9,11-41,11c-15.1,0-27.9-3.4-41-11c-13.1-7.5-22.5-17-30-30
				c-7.6-13.1-11-25.9-11-41c0-15.1,3.4-27.9,11-41c7.5-13.1,17-22.5,30-30C590.5,1936.8,603.3,1933.4,618.4,1933.4L618.4,1933.4z"
				/>
		</g>
	</g>
	<g>
		<g id="id17">
			<rect x="2519.4" y="1935.4" class="st0" width="164.1" height="164.1"/>
			<path class="st1" d="M2601.4,1935.4L2601.4,1935.4c15.1,0,27.9,3.4,41,11c13.1,7.5,22.5,17,30,30c7.6,13.1,11,25.9,11,41v0l0,0
				c0,15.1-3.4,27.9-11,41c-7.5,13.1-17,22.5-30,30c-13.1,7.6-25.9,11-41,11c-15.1,0-27.9-3.4-41-11c-13.1-7.5-22.5-17-30-30
				c-7.6-13.1-11-25.9-11-41c0-15.1,3.4-27.9,11-41c7.5-13.1,17-22.5,30-30C2573.5,1938.8,2586.3,1935.4,2601.4,1935.4
				L2601.4,1935.4z"/>
		</g>
	</g>
	<g>
		<g>
			<g id="id18">
				<rect x="442.5" y="440.5" class="st0" width="2342.3" height="1379.9"/>
				<path class="st1" d="M718.5,1601.6c-0.7,19.2-1,34.3-0.9,45.2c0,10.9,0.1,28.2,0.3,52c0.1,23.7,0,41.3-0.4,52.8
					c-0.6,16.4-2.9,32-7,46.9c-4.1,14.9-11.7,22.2-22.9,21.8c-7.1-0.3-12.3-4.2-15.6-11.9c-2.1-4.8-3.9-8.2-5.4-10
					c-1.4-1.8-4.6-3.5-9.5-5.2c-4.9-1.6-12.6-2.8-23.1-3.9c-10.5-1-25.9-1.8-46.3-2.6c-26.8-0.9-46.4-1.4-58.8-1.5
					c-12.4-0.1-21.3,0.2-26.4,1c-5.2,0.8-8.4,1.9-9.8,3.3c-1.3,1.5-3.4,4.6-6.2,9.4c-2.4,4.1-4.6,7.1-6.5,9.2c-1.9,2-4.6,3-7.9,2.9
					c-12.6-0.5-20.9-10.1-24.7-29c-3.8-18.9-5.3-37.9-4.7-57.1c0.5-13.6,2.6-26.4,6.2-38.3c3.7-11.8,10.5-17.6,20.5-17.3
					c5.3,0.2,9.3,1.5,11.9,3.9c2.7,2.5,5.6,6.4,8.8,12.1c1.8,3.6,4.2,5.8,6.9,6.9c2.8,1,8.4,1.7,16.8,2l19.8,0.7l101.3,3.5
					c10.8,0.4,19.2-0.3,25.1-1.9c6-1.6,10.3-4.5,12.8-8.5c2.5-4,3.9-9.7,4.2-17.1c0.3-9.4-0.5-15.8-2.6-19.5
					c-2.1-3.6-6.8-6.2-14.1-7.4c-7.3-1.3-20.4-2.2-39.4-2.9l-82.3-2.9c-19.2-0.7-31.4-0.5-36.8,0.4c-5.3,0.9-8.8,2.8-10.4,5.6
					c-3.2,5-5.9,8.6-8.1,10.6c-2.2,2.1-5.4,3-9.8,2.8c-3.9-0.1-7.3-0.9-10.3-2.3c-3.1-1.4-6-4.6-8.6-9.3c-2.6-4.8-4.6-12.1-6-21.8
					c-1.4-9.8-1.8-22.5-1.2-38c1.5-43,10.5-64.1,27-63.6c5.3,0.2,9.3,1.5,11.9,3.9c2.7,2.4,5.6,6.4,8.8,12.1
					c1.8,3.5,4.2,5.8,6.9,6.9c2.8,1,8.4,1.7,16.8,2l19.8,0.7l101.3,3.5c10.8,0.4,19.2-0.3,25.1-1.9c6-1.6,10.3-4.5,12.8-8.4
					c2.5-4.1,3.9-9.7,4.1-17.1c0.3-8.6-0.6-14.8-2.6-18.5c-2.1-3.7-7-6.4-14.7-7.9c-7.7-1.6-20.6-2.7-38.7-3.3l-82.3-2.9
					c-19.2-0.7-31.4-0.5-36.8,0.4c-5.3,1-8.8,2.8-10.4,5.6c-3.2,5-5.9,8.6-8.1,10.6c-2.2,2.1-5.5,3-9.8,2.8
					c-3.9-0.1-7.3-0.9-10.3-2.3c-3.1-1.4-6-4.6-8.6-9.4c-2.6-4.7-4.6-12-6-21.7c-1.4-9.8-1.8-22.5-1.2-38
					c1.6-45.2,11.4-67.5,29.4-66.9c8.3,0.3,14.2,4.2,17.5,11.6c2,4.9,4.1,8.4,6.2,10.2c2.2,1.9,7.4,3.5,15.8,4.8
					c8.4,1.2,22.4,2.2,41.9,2.9l99.1,3.5c6.1,0.2,10.7-0.4,14-1.7c3.2-1.4,6.3-4.5,9.2-9.3c2.8-4.7,5.1-8,7.1-9.9
					c1.9-1.8,5-2.7,9.4-2.5c7.7,0.3,14.2,5,19.4,14.2c5.2,9.1,7.3,30.1,6.2,62.6c-0.3,9.6-1,21.3-2,35.1c-1,13.7-2,26.5-2.9,38.2
					c-0.9,11.7-1.8,23.4-2.6,35C719.5,1578.8,718.9,1590.3,718.5,1601.6z M718.5,1601.6L718.5,1601.6z M643.9,1236.4
					c-9.6-12.2-17.1-21.7-22.9-28.5c-5.7-6.9-12.4-13.7-19.8-20.7c-7.6-7-15.5-12.7-23.8-17.1c-12.6-6.7-20.7-15.2-24.6-25.5
					c-3.9-10.3-2-22.7,5.5-36.9c6.9-13,17.6-21.5,32.1-25.7c14.5-4.2,32-6.7,52.4-7.5c6.9-0.4,34.3,0.3,82.2,1.8
					c48,1.5,79.5,2.9,94.7,4.1c7,0.6,12.4-0.1,16.2-2c3.8-1.8,7.3-4.4,10.5-7.7c3.3-3.3,6-5.4,8.3-6.2c2.2-0.9,5.5-0.1,9.8,2.2
					c6.9,3.7,10.3,9.8,10.1,18.5c-0.2,8.7-2.2,17.9-6.1,27.4c-3.9,9.6-8.8,20-14.8,31.3c-10.6,19.9-18.8,34.6-24.8,44.1
					c-6,9.5-12,16.4-18.2,20.6c-6.2,4.3-12.6,4.6-19.2,1.1c-3.6-1.9-5.8-4.3-6.6-6.9c-0.8-2.8-0.9-6.2-0.4-10.3
					c0.5-4.1,0.7-7.3,0.5-9.5c-0.3-2.2-1.7-4.1-4.4-5.5c-5.2-2.8-9.8-3.3-13.5-1.6c-3.8,1.8-8.2,6.7-13.2,14.6
					c-5.1,8-12.8,21.6-23,40.8c-5.5,10.3-8.3,17.9-8.6,23.2c-0.3,5.3,3.3,9.8,10.9,13.9c2.9,1.5,5.2,1.8,7.1,0.7
					c2-1.1,4.5-3.2,7.6-6.3c3.1-3.1,6.1-5.1,8.7-6.1c2.6-0.9,6-0.4,9.9,1.8c13.7,7.3,11.7,27.5-6,60.7c-8,15.1-14.9,26-20.7,32.8
					c-5.8,6.7-10.7,10.4-14.6,11.3c-4,0.8-8.1,0.1-12.4-2.1c-4.6-2.5-7.1-5.1-7.4-8c-0.3-2.9,0-7.9,0.7-15.2
					c0.8-7.2,0.2-12.9-1.6-17.1c-2.8-6.8-11.5-19.8-25.7-38.7L643.9,1236.4z M643.9,1236.4L643.9,1236.4z M705.7,1178.6
					c4.8-9,5.7-14.2,2.8-15.8c-3.5-1.9-14.8-2.6-33.9-2c-7.2,0.1-12.9,0.4-17.3,1c-4.4,0.6-7.5,2.5-9.2,5.8c-1.3,2.4-0.9,5.4,1,9
					c2,3.6,4.3,7,6.9,10c2.6,3,5.2,6,8,8.8c1.4,1.7,3.3,3.8,5.3,6.2c2.1,2.5,4.3,4.9,6.5,7.3c2.3,2.5,4.1,4,5.2,4.6
					c2.1,1.1,3.9,0.9,5.4-0.7c1.6-1.6,3.5-4.6,5.8-8.9L705.7,1178.6z M705.7,1178.6L705.7,1178.6z M868.4,1058.9
					c-2.2-4.6-3-8.1-2.4-10.7c0.6-2.5,2-7,4.5-13.5c2.4-6.4,3.5-11.9,3.1-16.6c-0.5-7.4-4.3-22.5-11.7-45l-18-54.5
					c-5.1-14.7-9.2-26.1-12.3-34.4c-3.2-8.3-7.2-17-12.1-26c-4.9-9.1-10.5-17.1-16.9-24c-9.7-10.4-14.7-21.1-15-32.1
					c-0.3-11.1,5.5-22.1,17.3-33.1c10.8-10.1,23.7-14.7,38.8-13.9s32.5,4.2,52,10c4.4,1.4,18.1,6.7,41.1,16
					c23,9.4,46.3,18.9,69.7,28.5c23.5,9.6,40.8,16.8,51.8,21.3c4.3,1.7,9.6,1.8,15.8,0.4c6.2-1.5,11.7-2.6,16.3-3.3
					c4.7-0.7,9.6,0.8,14.8,4.5c9.8,6.8,18.8,14.6,27,23.3c6.7,7.2,10.1,14.5,10.3,22.1c0.1,7.6-3.2,14.6-10.1,21.1
					c-7,6.5-13.4,9.6-19.1,9.4c-5.8-0.1-13.9-1.5-24.4-3.9c-10.5-2.4-18-2.4-22.5,0.3c-11.5,7.2-34.7,27.1-69.6,59.6
					c-31.4,29.3-50.6,48.9-57.4,58.7c-2.6,3.9-3.5,11.3-2.7,22.4c0.7,11.1,0.8,20,0.1,26.7c-0.7,6.8-4.3,13.2-10.8,19.2
					c-5.1,4.8-11.2,6.6-18.2,5.6c-7-1-12.9-4.2-17.9-9.5C879.4,1076.2,872.2,1066.7,868.4,1058.9z M868.4,1058.9L868.4,1058.9z
					 M973.9,898.6c-10-5.1-21.7-10.2-35.1-15.4c-13.4-5.2-21.9-8.4-25.5-9.4c-6.7-2.3-12.3-3.8-16.6-4.7c-4.4-0.9-7.9,0-10.5,2.4
					c-2.9,2.7-3.6,7.7-2.2,15.2c1.5,7.5,3.2,13.8,5.3,18.9c1.6,5.8,4.1,14.6,7.5,26.3c3.4,11.8,7,21.8,10.8,30
					c1.1,1.9,1.9,3.1,2.3,3.6c2.3,2.5,5,3.4,8.3,2.7c3.3-0.6,6.4-2.3,9.6-5.3l46.8-43.7c3.1-2.9,5.1-6,5.8-9.4
					c0.9-3.3,0.1-6.2-2.2-8.6C977.1,900.4,975.7,899.4,973.9,898.6z M973.9,898.6L973.9,898.6z M1077.6,639.5
					c-2.6-5.8-5.8-9.4-9.7-10.6c-3.8-1.2-8.9-1.4-15.2-0.7c-6.3,0.7-11.1,0.7-14.5,0c-3.3-0.7-6.1-3.5-8.2-8.2
					c-2.8-6.3-2.1-11.8,2-16.6c4.2-4.8,9.7-8.8,16.7-11.9c2.9-1.3,7.3-3.1,13-5.4c5.8-2.3,10.1-4.1,13.1-5.4
					c14.6-6.5,28.3-13.1,41.2-19.8c13-6.7,24.6-12.9,34.9-18.6c10.3-5.8,16.1-8.9,17.3-9.4c12.3-5.5,24.7-9,37.1-10.7
					c12.4-1.7,24.5-1.3,36.2,1.3c11.7,2.6,22.3,7.6,31.7,15.1c9.4,7.5,16.9,17.6,22.5,30.2c5.6,12.6,8.2,25,7.7,37.2
					c-0.5,12.2-3.5,23.6-9.1,34.3c-5.6,10.7-13.2,20.2-22.8,28.7c-9.6,8.4-20.5,15.3-32.7,20.7c-3.5,1.6-8.9,3.6-16,6
					c-7,2.5-12.1,4.4-15.1,5.7c-3.8,1.7-4.8,4.3-3.2,8l9,20.3c5.9,12.4,11.1,19.6,15.8,21.8c4.7,2.2,10.5,3.5,17.3,3.8
					c6.9,0.3,11.5,3.1,13.8,8.3c4.3,9.6,0,19.1-12.9,28.6c-12.8,9.4-27,17.5-42.4,24.4c-44.2,19.6-69.6,21.8-76.5,6.5
					c-1.9-4.3-2.2-7.6-1-10.2c1.2-2.6,3.5-5.8,6.9-9.7c3.4-3.9,5.6-7.8,6.4-11.8c0.9-4,0-9.2-2.9-15.6L1077.6,639.5z M1077.6,639.5
					L1077.6,639.5z M1163.5,581.3c-6,2.7-9.4,5.1-10.1,7.4c-0.7,2.2-0.1,5.4,1.8,9.6l23.2,52.2c1.8,3.9,3.4,6.8,5.2,8.6
					c1.7,1.8,3.9,2.6,6.6,2.6c2.7,0,6.3-1,10.8-3c10.8-4.8,17.3-12,19.4-21.5c2.1-9.6,0.6-19.9-4.5-31.4
					c-3.3-7.3-7.6-13.5-12.9-18.5c-5.3-4.9-11.3-8.1-18.1-9.3C1178.1,576.9,1171,578,1163.5,581.3z M1163.5,581.3L1163.5,581.3z
					 M1659.9,646.3c0.4,6.1,1.5,10.7,3.2,13.8c1.7,3.1,5.1,5.8,10.2,8.2c4.9,2.2,8.4,4.2,10.5,6c2,1.8,3.3,4.8,3.6,9.1
					c0.5,7.7-3.5,14.7-12.1,20.8c-8.6,6.1-29.2,10.4-61.6,12.6c-43.7,3.1-66.1-4.1-67.3-21.2c-0.5-7,2-12.6,7.5-16.9
					c5.5-4.3,9.6-9,12.4-14.3c2.8-5.2,3.5-16.4,2.3-33.5c-0.3-4.2-0.5-9.4-0.7-15.6c-0.2-6.2-0.3-10.1-0.5-11.8
					c-0.6-8.1-2.9-12-6.9-11.8c-1.5,0.1-3.4,0.6-5.7,1.5c-4.5,2-11.5,7.6-20.9,16.8c-9.4,9.1-17.8,18.5-25.1,28.2
					c-7.3,9.6-10.8,16.5-10.5,20.5c0.5,6.6,1.4,11.2,2.9,13.9c1.5,2.6,3.7,4.8,6.5,6.4c2.8,1.7,4.9,3.5,6.4,5.5
					c1.5,1.9,2.4,5.6,2.8,10.8c1.3,18.8-20.1,29.7-64.3,32.8c-16.5,1.2-32.5,0.5-47.9-2.1c-15.5-2.6-23.6-9.3-24.4-20.4
					c-0.5-6.8,3.2-12.3,11.1-16.8c4.6-2.6,7.7-4.7,9.4-6.4c1.7-1.6,3-5,4.1-10.1c1-5,1.5-12.8,1.5-23.3c-0.1-10.5-0.9-25.9-2.3-46.3
					c-1.9-26.7-3.4-46.3-4.6-58.7c-1.2-12.4-2.4-21.1-3.7-26.2c-1.3-5.1-2.7-8.2-4.3-9.4c-1.6-1.2-4.9-2.9-10-5.2
					c-4.3-1.9-7.6-3.8-9.8-5.6c-2.2-1.7-3.5-4.3-3.7-7.6c-0.9-12.6,7.9-21.8,26.3-27.6c18.4-5.8,37.1-9.3,56.3-10.6
					c14.1-1,27.8-0.3,41,2.1c13.2,2.3,20.2,8.5,20.8,18.4c0.4,5.3-0.5,9.4-2.6,12.3c-2.1,2.9-5.8,6.2-11.1,10
					c-3.7,2.4-6.1,4.4-7.4,6c-1.3,1.7-2.2,4.5-2.5,8.4c-0.4,4-0.3,10.2,0.4,18.8c0.4,5.9,0.7,12.6,1,20.1c0.3,7.5,0.5,12.1,0.6,13.8
					c0.3,4.8,1.2,8,2.6,9.6c1.3,1.6,4.2,2.2,8.5,1.9c3.8-1,9.6-5.4,17.7-13.3c8.1-7.9,16-16.6,23.7-25.9
					c7.6-9.2,12.4-15.6,14.1-18.9c2-4,2.9-7.5,2.7-10.5c-0.2-2.9-1.3-5.7-3.3-8.6c-1.4-2.1-3.7-4.2-7.1-6.4c-3.3-2.1-5.8-4.2-7.3-6
					c-1.5-1.9-2.5-5-2.8-9.4c-0.4-5.6,0.5-10.5,2.7-14.6c2.2-4,8.1-7.8,17.6-11.3c9.6-3.5,24.3-5.9,44.3-7.3
					c45.6-3.2,69.1,4.2,70.3,22.1c0.6,8-2.9,14.2-10.5,18.7c-4.7,2.5-7.9,4.9-9.5,7.2c-1.7,2.3-2.7,7.8-3.1,16.2
					c-0.4,8.5,0.1,22.5,1.5,42L1659.9,646.3z M1659.9,646.3L1659.9,646.3z M1996.3,720.1c-1.6,5.9-2,10.6-1.5,14.1
					c0.7,3.5,2.9,7.2,7,11.1c3.9,3.7,6.6,6.7,8,9c1.4,2.4,1.5,5.6,0.4,9.8c-2,7.4-8.1,12.7-18.2,15.7c-10.1,3-31,0.3-62.4-8.1
					c-42.3-11.3-61.2-25.3-56.7-42c1.5-5.7,3.9-9.3,7.4-10.9c3.4-1.5,7.2-3.3,11.4-5.1c4.2-1.9,8.6-6.4,13-13.5
					c4.4-7.1,8.8-18.9,13.3-35.5c1.7-6.4,2.3-11.1,1.8-14c-0.5-2.9-2.1-5.1-4.8-6.4c-2.7-1.3-7.5-2.9-14.7-4.8
					c-15.8-4.2-26.7-6.8-32.8-7.6c-6-0.8-10.3-0.1-12.9,2.2c-2.6,2.3-4.8,7-6.8,14.2l-3.6,13.3c-3.9,14.4-5.1,24.1-3.5,29
					c1.4,4.9,4.2,9.8,8.3,14.7c4,4.9,5.2,10.4,3.6,16.6c-3,11.1-12.7,16.4-29,15.8c-16.4-0.7-33-3.2-49.8-7.7
					c-16-4.3-30.8-10.1-44.6-17.6c-13.8-7.4-19.3-16.5-16.4-27.2c1.8-6.5,7.1-10.6,15.9-12.3c5.2-1,8.8-2,10.9-3
					c2.1-1,4.5-3.7,7.2-8.1c2.6-4.4,5.6-11.7,9-21.6c3.3-9.9,7.6-24.8,12.9-44.5c6.9-25.9,11.8-44.9,14.7-57c2.9-12.1,4.6-20.8,5-26
					c0.4-5.2,0.1-8.6-1-10.3c-1.2-1.6-3.7-4.3-7.8-8.1c-3.5-3.2-5.9-6.1-7.5-8.4c-1.6-2.3-1.9-5.2-1-8.4
					c3.3-12.2,14.6-18.1,33.8-17.6c19.2,0.6,38.1,3.3,56.7,8.3c13.7,3.7,26.3,8.8,38.1,15.4c11.7,6.5,16.3,14.5,13.7,24.2
					c-1.4,5.2-3.5,8.7-6.5,10.8c-2.9,2-7.5,4-13.7,5.8c-3.9,1-6.8,2.5-9,4.4c-2.1,2-4.2,5.6-6.3,10.9c-2.1,5.2-4.6,13.3-7.5,24.1
					c-2.1,7.7-2,13,0,15.8c2.1,2.9,6.3,5.2,12.8,6.9l9.6,2.6l18.7,5c7.5,2,13.1,3,16.7,3c3.6,0,6.1-0.8,7.3-2.6
					c1.2-1.7,2.5-4.8,3.7-9.3c4.8-17.8,6.9-29.6,6.3-35.5c-0.6-5.8-2.3-10.1-5.3-12.8c-4.2-4.3-7.1-7.7-8.5-10.3
					c-1.5-2.7-1.8-6.1-0.6-10.2c1.2-4.4,3.6-8.2,7.4-11.4c3.7-3.1,11.3-4.8,22.7-5.2c11.4-0.3,27.8,2.4,49.2,8.2
					c44.2,11.8,63.9,26.5,59.3,43.9c-2.1,7.7-7.4,12.5-16,14.3c-5.2,0.8-9,2-11.3,3.7c-2.4,1.7-5.1,6.5-8.2,14.3
					c-3.1,7.9-7.2,21.3-12.3,40.2L1996.3,720.1z M1996.3,720.1L1996.3,720.1z M2296.9,657.4c9,6.3,16.2,12.9,21.7,19.8
					c5.5,6.8,10.7,14.3,15.6,22.3c5,8.1,8.4,12.8,10.3,14.1c2.5,1.7,5.2,3.1,8.3,4.1c3.1,1,5.5,2.2,7.3,3.5
					c4.6,3.2,7.6,8.7,9.2,16.4c1.6,7.7,1,16.7-1.7,27c-2.7,10.3-8,21.1-15.6,31.9c-6.5,9.2-14.5,15.1-24.2,17.8
					c-9.6,2.7-18.9,0.9-27.8-5.4c-7-4.9-10.9-10.1-11.5-15.7c-0.7-5.5-0.8-15.7-0.2-30.3c0.5-14.7-1-27-4.8-36.9
					c-3.7-9.9-11.9-19.2-24.4-28c-7.5-5.2-15.2-7.6-23.2-7.2c-8,0.4-15.3,2.7-22.1,7.1c-6.7,4.4-12.3,9.7-16.6,15.8
					c-8.2,11.7-14.3,23.7-18.5,36.1c-4.1,12.3-6,24.6-5.6,36.8c0.3,12.2,3.1,23.4,8.6,33.8c5.4,10.3,13.4,19.3,24.1,26.8
					c11.6,8.1,21.7,13,30.3,14.6c8.6,1.6,16.9,2.1,24.8,1.3c8-0.8,13.1-0.4,15.3,1.1c4.2,2.9,6.1,7.2,5.8,12.7
					c-0.3,5.6-2,10.6-5.2,15.2c-3.3,4.7-8.8,9.4-16.5,14.3c-7.7,4.8-15.7,8-23.9,9.8c-8.1,1.6-14.6,0.9-19.4-2.5
					c-2.6-1.8-9.3-3.8-20.2-6c-10.9-2.2-21.3-5-31.1-8.2c-9.8-3.3-20-8.6-30.7-16.2c-21.4-15-37.7-34.1-48.8-57.3
					c-11.1-23.2-15.8-47.4-14.2-72.5c1.6-25.1,9.6-48,23.9-68.4c10.9-15.5,24.5-27.8,41-37c16.4-9.2,34.1-14.9,53.1-17
					c19-2.2,37.7-1,56.3,3.5C2264.7,639.1,2281.7,646.7,2296.9,657.4z M2296.9,657.4L2296.9,657.4z M2398.6,1066
					c7.5-30,9.6-47.1,6.5-51.3c-4.5-6.2-12.4-5.2-23.7,3.1l-6.5,4.7c-3.3,2.4-5.4,5.2-6.4,8.4c-1,3.2-1.6,7.3-1.9,12.4
					c-0.3,5-1,9.3-2,12.6c-1.1,3.3-3.3,6.3-6.7,8.7c-3.9,2.8-8.2,3.7-13.2,2.7c-4.8-1-11.5-5.4-19.8-13.3
					c-8.3-7.9-18.6-20.2-30.8-36.9c-16.2-22.3-25.3-38.1-27.3-47.7c-2-9.4,0.1-16.4,6.2-20.9c3.6-2.6,6.6-3.8,9-3.7
					c2.4,0.1,5.7,0.9,9.8,2.3c4.1,1.4,8.2,2,12.5,1.7c4.3-0.3,9.5-2,15.9-5.4c14.3-7.2,33.2-19.4,56.8-36.5
					c13.3-9.6,24.5-18,33.6-25.2c9-7.1,17.2-14.4,24.4-21.7c5.3-5.2,8.6-9.7,9.8-13.7c1.4-4,1.8-8.2,1.5-12.8
					c-0.3-4.6-0.1-8.1,0.5-10.5c0.7-2.5,3.1-5.2,7.2-8.1c6-4.3,14.1-4.1,24.4,0.8c10.3,4.8,25.3,20.8,44.9,47.9
					c9.2,12.6,15.9,24.4,20.1,35.4c4.3,10.9,1.9,19.8-7.2,26.4c-4.1,3-9.2,3.9-15.3,2.7c-6-1.2-11.5-1.5-16.6-0.9
					c-5.1,0.6-12.9,4.7-23.3,12.3c-8.6,6.3-11.5,11.4-8.7,15.3c1.9,2.6,7.4,4.5,16.5,5.8c9.2,1.4,18.5,1.8,28.2,1.6
					c9.7-0.3,15.6-1.3,17.9-2.9c2.3-1.6,4.4-4.4,6.4-8.4c2-4,4.1-6.8,6.3-8.4c9-6.6,18.7-5.6,29,3c10.3,8.6,21.2,20.9,32.9,36.9
					l4.7,6.5c21.4,29.4,25.3,49,11.7,58.9c-7.4,5.4-13.3,6.5-17.9,3.5c-4.5-3-10.2-8.8-17-17.3c-6.8-8.6-12.6-13.1-17.3-13.7
					c-5.6-1.4-12.4-2.9-20.3-4.8c-7.9-1.8-15.7-3-23.5-3.6c-7.9-0.5-13.7,0.6-17.6,3.5c-3.5,2.6-6,5.8-7.4,9.6
					c-1.4,3.8-3.1,10-5.2,18.4l-27,118.1c-0.8,3.8-0.6,9.6,0.7,17.2c1.2,7.7,1.5,13.7,1,18.3c-0.6,4.5-3.7,8.8-9.3,12.9
					c-11.3,8.2-23.7,3.1-37.1-15.4l-38.2-52.5c-3.1-4.3-5-7.6-5.8-9.9c-0.8-2.3-1-5.1-0.4-8.4c0.6-3.3,2.1-9.3,4.4-18L2398.6,1066z
					 M2398.6,1066L2398.6,1066z M2587.7,1488.5c-5.9,1.7-10.1,3.7-12.8,6c-2.6,2.3-4.6,6.2-5.9,11.7c-1.1,5.2-2.4,9.1-3.6,11.5
					c-1.3,2.4-4,4.2-8.2,5.4c-7.4,2.1-15.1-0.4-22.8-7.5c-7.8-7.1-16.2-26.3-25.2-57.7c-12.1-42.1-9.8-65.5,6.7-70.2
					c6.7-1.9,12.7-0.7,18.1,3.9c5.3,4.5,10.8,7.5,16.6,9.1c5.7,1.6,16.8,0,33.3-4.7c4-1.1,9.1-2.5,15.1-3.9c6-1.4,9.8-2.4,11.5-2.9
					c7.8-2.2,11.2-5.3,10.1-9.2c-0.4-1.5-1.3-3.2-2.7-5.2c-2.9-4-9.8-9.7-20.7-16.9c-10.9-7.3-21.8-13.5-32.8-18.7
					c-10.9-5.1-18.4-7.1-22.2-6c-6.3,1.8-10.6,3.7-13,5.8c-2.3,2-3.9,4.6-4.9,7.7c-1,3.1-2.4,5.5-4.1,7.4c-1.6,1.8-4.9,3.5-10,5
					c-18.1,5.2-33.2-13.5-45.4-56c-4.6-15.9-7.2-31.6-7.9-47.3c-0.7-15.6,4.2-25,14.9-28.1c6.5-1.9,12.7,0.6,18.8,7.3
					c3.5,3.9,6.2,6.5,8.2,7.8c2,1.3,5.5,1.9,10.7,2c5.2,0,12.9-1.2,23.2-3.4c10.3-2.3,25.2-6.2,44.8-11.8
					c25.7-7.4,44.6-13,56.4-16.7s20.2-6.8,24.8-9.1c4.7-2.3,7.4-4.4,8.3-6.2c0.8-1.8,1.8-5.4,3-10.8c1-4.6,2.1-8.2,3.4-10.7
					c1.2-2.6,3.5-4.3,6.6-5.2c12.2-3.5,23,3.2,32.5,20c9.4,16.8,16.8,34.4,22.1,52.8c3.9,13.6,6,27.1,6.5,40.6
					c0.5,13.4-4.1,21.5-13.7,24.2c-5.1,1.5-9.3,1.5-12.6,0c-3.3-1.4-7.3-4.4-12.1-8.8c-3.1-3.1-5.6-5.1-7.4-6
					c-1.9-0.9-4.8-1.2-8.7-0.7c-3.9,0.5-10,1.9-18.3,4.3c-5.7,1.6-12.2,3.4-19.4,5.2c-7.3,1.8-11.8,3-13.4,3.4
					c-4.6,1.3-7.6,2.8-8.8,4.5c-1.2,1.6-1.3,4.5-0.1,8.7c1.7,3.5,7.3,8.3,16.7,14.6c9.4,6.3,19.5,12.2,30.2,17.8
					c10.7,5.5,17.9,8.8,21.5,9.9c4.3,1.2,7.9,1.3,10.8,0.5c2.7-0.8,5.3-2.4,7.7-5c1.8-1.8,3.3-4.5,4.8-8.2c1.4-3.6,2.9-6.5,4.3-8.4
					c1.5-1.9,4.4-3.5,8.6-4.7c5.4-1.6,10.4-1.7,14.8-0.4c4.4,1.3,9.3,6.2,14.7,14.9s10.8,22.5,16.4,41.8c12.6,44,10.3,68.5-7,73.4
					c-7.7,2.2-14.5,0.1-20.5-6.3c-3.4-4.1-6.4-6.7-9-7.8c-2.6-1.2-8.2-1-16.5,0.3c-8.4,1.4-22,4.8-40.8,10.2L2587.7,1488.5z"/>
			</g>
		</g>
		<g>
			<g id="id19">
				<rect x="2507.7" y="1549.7" class="st0" width="285.4" height="270"/>
				<path class="st1" d="M2783.8,1722.4c-1,15-1.4,26.7-0.9,35.2c0.5,8.4,1.3,15.3,2.4,20.5c1.1,5.2,1.6,8.2,1.6,9
					c-0.5,6.7-4,12.1-10.6,16.3c-6.6,4.2-14.2,7.2-22.9,8.8c-8.7,1.8-16.3,2.4-22.7,1.9c-7.4-0.5-13.7-2.6-19-6.2
					c-5.2-3.5-7.5-8.7-7.1-15.5c0.4-6.3,2.9-10.9,7.2-13.9c4.4-2.9,9.1-5.9,14-8.9c4.9-2.9,9.3-8.4,13.2-16.1
					c3.9-7.8,6.3-20,7.5-36.5c0.9-12,0.6-20.7-0.6-26c-1.2-5.2-4-8.8-8.1-10.6c-4.2-1.8-11.1-3-21-3.7l-19-1.3
					c-8.1-0.5-13.5-0.5-16.4,0.2c-2.8,0.6-4.7,2.5-5.8,5.5c-1,3-1.8,8.7-2.4,17.1c-0.5,6.4,1,10.9,4.5,13.4c3.5,2.5,8.6,4.5,15.6,6
					c7,1.5,12.1,3.4,15.4,5.6c3.3,2.2,4.8,6.3,4.4,12.2c-0.7,9.6-7.3,15.4-20,17.6c-12.7,2.2-25.9,2.8-39.4,1.9
					c-7.7-0.5-16.2-1.8-25.4-3.7c-9.2-1.9-17.3-5-24.2-9.3c-7-4.3-10.3-9.9-9.8-16.7c0.4-5.1,1.9-8.2,4.7-9.3c2.8-1.1,7.8-2,15-2.8
					c7.1-0.8,12.6-2.8,16.4-5.9c3.7-3.2,5.9-9,6.5-17.6c0.5-6.9-1.6-11.3-6.1-13.4c-4.5-2.1-11-3.5-19.5-4.1
					c-17.5-1.2-29.9-1.4-36.9-0.5c-7.1,0.9-11.7,3.5-13.9,7.7c-2.1,4.2-3.6,12-4.4,23.4l-0.7,9.4c-1.2,17.7,0.3,31.3,4.5,40.7
					c4.2,9.5,9.7,16.5,16.4,20.9c6.7,4.5,13,8.9,18.7,13.2c5.8,4.2,8.4,9.5,7.9,16c-0.4,5.6-3.2,9.9-8.5,12.8
					c-5.3,2.9-11,4.2-17.1,3.8c-8.6-0.6-18.4-3.3-29.6-7.9c-11.1-4.7-20.7-10.1-28.7-16.4c-8-6.2-11.8-11.8-11.5-16.6
					c0-0.2,1.1-5.7,3.3-16.4c2.2-10.7,3.6-21.3,4.3-31.9l10.9-156.3c1.2-17,7.3-25,18.1-24.3c5.5,0.4,9.7,3.7,12.6,10.1
					c2.9,6.4,5.7,11.2,8.5,14.4c2.8,3.1,9.9,5.5,21.5,7.1c34.7,4.8,56.9,7.5,66.7,8.2c0,0,21.5,0.7,64.4,2.2
					c11.7,0.4,20.2-0.6,25.7-3.1c5.4-2.4,9.2-5.3,11.3-8.7c2.2-3.3,4.6-6.7,7.4-10.1c2.8-3.4,7.1-5,13-4.6
					c13.2,0.9,19,12.3,17.5,34.1c-0.1,1.7-0.4,4.1-0.7,7.2c-0.3,3.1-0.5,5.2-0.6,6.4L2783.8,1722.4z"/>
			</g>
		</g>
	</g>
	<g>
		<g id="id20">
			<rect x="269.3" y="268" class="st0" width="2693" height="1999.8"/>
			<path class="st1" d="M1615.8,268c743.5,0,1346.5,602.9,1346.5,1346.5c0,237.1-61.4,459.8-169,653.3h-2355
				c-107.6-193.5-169-416.2-169-653.3C269.3,870.9,872.2,268,1615.8,268z M1615.8,268L1615.8,268z M1798.8,1728.9l8.4,20.2
				c48.6,3.5,173.5-109.7,160-161.8C1953,1638,1840.2,1729.1,1798.8,1728.9z M1798.8,1728.9L1798.8,1728.9z M1452.9,2139.1
				c-250-60.1-411.1-254.6-460.8-444c45.2,36.9,92.1,38.7,143.9,24c-58.2,4-159.7-71.8-165.7-129.6c-6-57.6-7.1-112.1,4.8-169
				c29.1,66.4,81.3,107.5,142,133.6c-55.5-29.8-137.6-173.6-118.3-235.7c17.3-55.6,41.5-103.8,80.3-159.1
				c3.2,99.3,36.2,178.2,82,258c-44.1-95.3-48.6-224.6-46-308.2c74.1-87.3,163.8-149,261.2-188.5c31.8-12.9,29.3,8.5,21.6,15.8
				c-3,2.9-7.6,6.1-7.6,6.1c-108.8,71.4-182,194.1-184.4,341.3c0,119,69.3,282,189.1,333c0.9,0.4,2.1,0.5,2.8,1.2
				c11.1,10.9,0.4,66.5-5.8,82c-41.9-9.4-132-80.8-143.9-123.3c-11.7,80.1,134.1,144.9,132.7,148.8c-59,121.8-44.1,323.7,73.4,412
				C1457.7,2140,1455.1,2139.6,1452.9,2139.1z M1452.9,2139.1L1452.9,2139.1z M1788.5,1644.7l35.4-18.3
				c122.2-73.2,205.3-187.1,205.3-342.7c-2.5-149.6-78.1-274-190-344.8c-39.4-24.9,2.7-26,29.5-14.3
				c83.2,36.2,161.3,87.3,227.8,158.2c62.7,66.8,12,259.6-22.6,334.5c45.9-79.8,78.8-158.7,82-258c38.8,55.3,63,103.5,80.3,159.1
				c26,83.2-43.9,195.7-118.2,235.7c60.7-26.1,112.8-67.3,142-133.6c12.6,60.2,10.7,117.7,3.8,179
				c-7.2,63.9-101.5,123.9-164.6,119.6c51.8,14.6,98.8,12.9,143.9-24c-50.1,190.9-216.5,387-471,445.4c35.7,16.6,73.2,31,112.7,40.7
				c7.7,1.9,10.3,8.6,9.4,14.6h814.8c92.8-173.5,145.4-371.7,145.4-582.2c0-683.1-553.9-1237-1236.9-1237s-1237,553.9-1237,1237
				c0,210.5,52.6,408.7,145.4,582.2h814.8c-0.8-6,1.7-12.7,9.4-14.6c39.5-9.7,86.5-23.6,123.8-40.7c4.6-2.1,3-5-0.2-7.9
				c-109.9-100.6-124.4-285.5-79.6-396.4c11.6-23.9,20.8-54.5,20.3-86.9c-0.2-13.5-4.4-23.7-6.2-36.3
				c-15.4-107.6,271.5-252.5,254.6-386.6c16.6-4.4,29.6-16.8,29.4-41.2c-0.3-29.2-26.7-44-53.1-51c1.2-5.8,2.3-11.1,2.2-15.7
				c-0.1-11.7-12-14.7-18.6-5.6c-3,4.1-4.8,10.3-7.1,16.8c-2.7-0.3-5.3-0.6-7.7-0.8c-6.3-0.5-12.7-0.5-19-0.1
				c6.6-17.8,19.7-39.7,17.7-59.1l-10.4,2.5c1.4,14.1-8.7,32.7-14.1,45.6c-10.9,25.9-13.2,46.4-16.4,73.4l-130.1-40.1
				c-3.3-1-3.8-1-5.3-4.3c-2.2-4.8-3-10.3,1.3-11.3c15.3-3.4,121.3-27.4,132.9-44.9c7.8-12.7,14.3-22.4,31.6-18.4
				c49-15.3,158.2,13.5,172,60.2c2.3,7.8,3.9,17.4,5.4,25.5C1800.3,1306.8,1600,1706,1788.5,1644.7z M1788.5,1644.7L1788.5,1644.7z
				 M1798.8,1728.9l8.4,20.2c48.6,3.5,173.5-109.7,160-161.8C1953,1638,1840.2,1729.1,1798.8,1728.9z M1798.8,1728.9L1798.8,1728.9z
				 M1584.6,1140.3c-3,11.1-4.8,22.1-6.3,33.6l-2.3,22.3c18.2,6.7,35.6,12.7,50.2,16.9c18.1,5.2,47.2,4.7,47-27.8
				c-0.3-34.6-45.8-43.5-68.4-45.4C1598.1,1139.4,1591.3,1139.4,1584.6,1140.3z"/>
		</g>
	</g>
	<g>
		<g id="id21">
			<rect x="915.5" y="2769.6" class="st0" width="1392.5" height="193.9"/>
			<path class="st1" d="M2308,2769.6c-203.2,123-441.5,193.9-696.2,193.9s-493.1-70.8-696.2-193.9H2308z"/>
		</g>
	</g>
</g>
</svg>
